<svg width="725" xmlns="http://www.w3.org/2000/svg" height="454" id="screenshot-a0a0e7ce-c69b-80bf-8008-5c62c52b9bd0" viewBox="0 0 725 454" xmlns:xlink="http://www.w3.org/1999/xlink" fill="none" version="1.1"><g id="shape-a0a0e7ce-c69b-80bf-8008-5c62c52b9bd0" width="310" height="194" rx="0" ry="0" style="fill: rgb(0, 0, 0);"><g id="shape-a0a0e7ce-c69b-80bf-8008-5c62c52bee3d" style="display: none;"><g class="fills" id="fills-a0a0e7ce-c69b-80bf-8008-5c62c52bee3d"><rect width="725" height="454" x="0" transform="matrix(1.000000, 0.000000, 0.000000, 1.000000, 0.000000, 0.000000)" style="fill: none;" ry="0" fill="none" rx="0" y="0"/></g></g><g id="shape-a0a0e7ce-c69b-80bf-8008-5c62c52bee3e"><g class="fills" id="fills-a0a0e7ce-c69b-80bf-8008-5c62c52bee3e"><path d="M603.6142578125,154.85498046875C614.49609375,144.92617797851562,608.333984375,117.7509765625,594.25927734375,122.09208679199219C583.31396484375,125.46784973144531,574.0595703125,139.86309814453125,579.05810546875,150.17477416992188C584.33349609375,161.06072998046875,594.6796875,163.00634765625,603.6142578125,154.85498046875Z" fill-rule="evenodd" clip-rule="evenodd" style="fill: rgb(240, 138, 107); fill-opacity: 1;"/></g></g><g id="shape-a0a0e7ce-c69b-80bf-8008-5c62c52c42f4"><g class="fills" id="fills-a0a0e7ce-c69b-80bf-8008-5c62c52c42f4"><path d="M59.86328125,184.10775756835938C59.86328125,184.10775756835938,-4.2763671875,219.43174743652344,0.22607421875,255.4849853515625C10.75048828125,339.7301330566406,42.85595703125,297.0727844238281,59.86328125,330.37158203125C86.75830078125,383.0262145996094,61.0771484375,376.0033264160156,76.234375,416.9569091796875C84.77001953125,440.017333984375,100.79052734375,456.5671691894531,113.6533203125,452.06231689453125C126.5166015625,447.55743408203125,152.2421875,406.4259948730469,166.2744140625,380.6837158203125C180.88134765625,353.890625,190.85400390625,328.53216552734375,204.15869140625,306.96722412109375C204.15869140625,306.96722412109375,197.8564453125,256.8119201660156,175.62939453125,237.9310760498047C161.2451171875,225.71334838867188,131.19384765625,218.95018005371094,131.19384765625,218.95018005371094C79.513671875,218.77650451660156,59.86328125,184.10775756835938,59.86328125,184.10775756835938Z" style="fill: rgb(248, 245, 236); fill-opacity: 1;"/></g></g><g id="shape-a0a0e7ce-c69b-80bf-8008-5c62c52c42f5"><g class="fills" id="fills-a0a0e7ce-c69b-80bf-8008-5c62c52c42f5"><path d="M239.94482421875,267.9208984375C242.28125,266.3154296875,244.720703125,264.77325439453125,247.271484375,263.2943420410156C248.666015625,234.24293518066406,244.98681640625,217.61932373046875,229.41943359375,187.53707885742188C188.34375,211.13082885742188,156.06103515625,219.03346252441406,131.19384765625,218.95018005371094C131.19384765625,218.95018005371094,161.2451171875,225.71334838867188,175.62939453125,237.9310760498047C197.8564453125,256.8119201660156,204.15869140625,306.96722412109375,204.15869140625,306.96722412109375C213.515625,291.8026123046875,224.5205078125,278.5126953125,239.94482421875,267.9208984375Z" style="fill: rgb(240, 138, 107); fill-opacity: 1;"/></g></g><g id="shape-a0a0e7ce-c69b-80bf-8008-5c62c52c42f6"><g class="fills" id="fills-a0a0e7ce-c69b-80bf-8008-5c62c52c42f6"><path d="M252.80810546875,172.61363220214844C247.3564453125,176.5095977783203,241.5439453125,180.34963989257812,235.267578125,184.10775756835938C233.298828125,185.28607177734375,231.349609375,186.42904663085938,229.41943359375,187.53707885742188C244.98681640625,217.61932373046875,248.666015625,234.24293518066406,247.271484375,263.2943420410156C252.18798828125,260.4414978027344,257.51953125,257.8321838378906,263.33203125,255.4849853515625C267.06396484375,253.97557067871094,271.53125,254.17918395996094,276.8583984375,255.4849853515625C291.7744140625,215.4925079345703,286.318359375,197.40762329101562,252.80810546875,172.61363220214844Z" style="fill: rgb(248, 245, 236); fill-opacity: 1;"/></g></g><g id="shape-a0a0e7ce-c69b-80bf-8008-5c62c52c42f7"><g class="fills" id="fills-a0a0e7ce-c69b-80bf-8008-5c62c52c42f7"><path d="M252.80810546875,172.61363220214844C286.318359375,197.40762329101562,291.7744140625,215.4925079345703,276.8583984375,255.4849853515625C282.90625,256.96630859375,290.06494140625,259.8658752441406,298.515625,263.28961181640625C300.72998046875,264.1859130859375,303.0341796875,265.11962890625,305.4287109375,266.0720520019531C305.4287109375,266.0720520019531,311.275390625,227.40208435058594,311.275390625,206.3397216796875C311.275390625,185.27764892578125,299.34326171875,132.62301635742188,299.34326171875,132.62301635742188L298.2998046875,133.60565185546875L296.87353515625,134.9522247314453C283.5546875,147.52239990234375,269.96923828125,160.34576416015625,252.80810546875,172.61363220214844Z" style="fill: rgb(240, 138, 107); fill-opacity: 1;"/></g></g><g id="shape-a0a0e7ce-c69b-80bf-8008-5c62c52cbd63"><g class="fills" id="fills-a0a0e7ce-c69b-80bf-8008-5c62c52cbd63"><path d="M418.8564453125,59.991207122802734C403.98583984375,65.62075805664062,388.57421875,72.3123550415039,372.08203125,79.96858978271484C361.11572265625,85.0592269897461,351.529296875,90.57536315917969,342.84814453125,96.39988708496094C342.84814453125,96.39988708496094,319.0888671875,143.61215209960938,333.4931640625,167.72610473632812C338.5888671875,176.25848388671875,347.8623046875,178.47442626953125,356.79833984375,180.610107421875C366.6728515625,182.9697265625,376.134765625,185.23130798339844,379.09814453125,195.80859375C380.99267578125,202.57266235351562,378.3193359375,207.98696899414062,375.63916015625,213.416259765625C372.984375,218.7919921875,370.3232421875,224.182373046875,372.08203125,230.91168212890625C378.55810546875,255.7049560546875,409.84521484375,266.66650390625,432.888671875,255.4849853515625C453.39892578125,245.5321044921875,450.12158203125,223.4461212158203,446.71630859375,200.50328063964844C445.90576171875,195.0360565185547,445.0869140625,189.51998901367188,444.58203125,184.10775756835938C443.5087890625,172.62249755859375,439.2958984375,164.1996612548828,435.13818359375,155.8836669921875C430.64794921875,146.90528869628906,426.220703125,138.05130004882812,425.87255859375,125.60240173339844C425.619140625,116.5740966796875,430.0439453125,108.71331787109375,434.19287109375,101.34732055664062C439.71728515625,91.53385925292969,444.74755859375,82.59782409667969,437.56591796875,72.94775390625C432.2568359375,65.81665802001953,418.8564453125,59.991207122802734,418.8564453125,59.991207122802734Z" style="fill: rgb(240, 138, 107); fill-opacity: 1;"/></g></g><g id="shape-a0a0e7ce-c69b-80bf-8008-5c62c52cbd64"><g class="fills" id="fills-a0a0e7ce-c69b-80bf-8008-5c62c52cbd64"><path d="M624.66259765625,187.53707885742188C624.66259765625,187.53707885742188,551.2197265625,170.49781799316406,560.34814453125,140.81373596191406C561.87255859375,135.85223388671875,563.27392578125,134.25177001953125,564.470703125,132.88626098632812C566.94091796875,130.064697265625,568.53369140625,128.2451934814453,568.53369140625,99.86034393310547C568.53369140625,68.8802490234375,560.34814453125,41.48738098144531,560.34814453125,41.48738098144531C534.3017578125,38.31923294067383,511.0341796875,38.44000244140625,488.5380859375,41.48738098144531C488.5380859375,41.48738098144531,499.2119140625,55.672813415527344,498.37255859375,65.92713928222656C497.91552734375,71.47948455810547,494.4052734375,74.65770721435547,490.8505859375,77.87548828125C487.453125,80.953369140625,484.01220703125,84.0672378540039,483.1708984375,89.3292007446289C481.423828125,100.23899841308594,490.359375,104.98068237304688,499.845703125,110.01382446289062C508.41015625,114.5579833984375,517.42138671875,119.33951568603516,519.4208984375,129.11270141601562C522.92431640625,146.23617553710938,508.896484375,172.61363220214844,508.896484375,172.61363220214844C542.41748046875,164.85513305664062,570.4794921875,173.5410614013672,593.080078125,180.5368194580078C605.169921875,184.27880859375,615.6982421875,187.53707885742188,624.66259765625,187.53707885742188Z" style="fill: rgb(240, 138, 107); fill-opacity: 1;"/></g></g><g id="shape-a0a0e7ce-c69b-80bf-8008-5c62c52cbd65"><g class="fills" id="fills-a0a0e7ce-c69b-80bf-8008-5c62c52cbd65"><path d="M464.4609375,277.36358642578125C464.4609375,277.36358642578125,429.2021484375,288.418701171875,418.8564453125,306.96722412109375C406.0986328125,329.83795166015625,408.25439453125,354.2955627441406,425.87255859375,373.6631164550781C455.5849609375,406.334716796875,497.22119140625,343.322265625,513.57421875,302.28680419921875C519.333984375,287.8336486816406,521.75927734375,263.2943420410156,521.75927734375,263.2943420410156C504.1162109375,269.0980224609375,485.5048828125,273.6871337890625,464.4609375,277.36358642578125Z" style="fill: rgb(248, 245, 236); fill-opacity: 1;"/></g></g><g id="shape-a0a0e7ce-c69b-80bf-8008-5c62c52cbd66"><g class="fills" id="fills-a0a0e7ce-c69b-80bf-8008-5c62c52cbd66"><path d="M372.08203125,79.96858978271484C388.57421875,72.3123550415039,403.98583984375,65.62075805664062,418.8564453125,59.991207122802734C418.8564453125,59.991207122802734,379.5380859375,8.585014343261719,342.84814453125,2.7414321899414062C321.0322265625,-0.7330322265625,304.69482421875,-3.08587646484375,286.71923828125,9.762046813964844C273.32080078125,19.338481903076172,272.0576171875,30.893321990966797,263.33203125,44.86549758911133C237.7880859375,85.76618957519531,184.439453125,112.34303283691406,207.2021484375,154.85498046875C214.67724609375,168.81358337402344,235.267578125,184.10775756835938,235.267578125,184.10775756835938C241.5439453125,180.34963989257812,247.3564453125,176.5095977783203,252.80810546875,172.61363220214844C269.96923828125,160.34576416015625,283.5546875,147.52239990234375,296.87353515625,134.9522247314453L298.2998046875,133.60565185546875L299.34326171875,132.62301635742188C312.771484375,119.96156311035156,326.13818359375,107.60948944091797,342.84814453125,96.39988708496094C351.529296875,90.57536315917969,361.11572265625,85.0592269897461,372.08203125,79.96858978271484Z" style="fill: rgb(248, 245, 236); fill-opacity: 1;"/></g></g><g id="shape-a0a0e7ce-c69b-80bf-8008-5c62c52cffa6"><g class="fills" id="fills-a0a0e7ce-c69b-80bf-8008-5c62c52cffa6"><path d="M286.71923828125,325.68890380859375C321.23779296875,336.1706848144531,368.78662109375,283.2655029296875,368.78662109375,283.2655029296875C342.634765625,280.08526611328125,321.8671875,272.6128845214844,305.4287109375,266.0720520019531C303.0341796875,265.11962890625,300.72998046875,264.1859130859375,298.515625,263.28961181640625C290.06494140625,259.8658752441406,282.90625,256.96630859375,276.8583984375,255.4849853515625C271.53125,254.17918395996094,267.06396484375,253.97557067871094,263.33203125,255.4849853515625C257.51953125,257.8321838378906,252.18798828125,260.4414978027344,247.271484375,263.2943420410156C244.720703125,264.77325439453125,242.28125,266.3154296875,239.94482421875,267.9208984375C242.42626953125,296.85052490234375,258.95166015625,317.25933837890625,286.71923828125,325.68890380859375Z" style="fill: rgb(248, 245, 236); fill-opacity: 1;"/></g></g><g id="shape-a0a0e7ce-c69b-80bf-8008-5c62c52d0230"><g class="fills" id="fills-a0a0e7ce-c69b-80bf-8008-5c62c52d0230"><path d="M418.8564453125,283.56744384765625C435.4189453125,281.84503173828125,450.4755859375,279.8067626953125,464.4609375,277.36358642578125C485.5048828125,273.6871337890625,504.1162109375,269.0980224609375,521.75927734375,263.2943420410156C556.130859375,251.98638916015625,586.82666015625,236.07530212402344,624.66259765625,213.36033630371094C653.96630859375,195.7661590576172,698.32958984375,156.93093872070312,716.1943359375,129.11270141601562C716.1943359375,129.11270141601562,695.99560546875,154.97482299804688,677.28369140625,160.7054901123047C657.51220703125,166.76025390625,637.396484375,171.15499877929688,624.66259765625,154.85498046875C618.68896484375,147.209228515625,620.90478515625,139.36746215820312,623.24560546875,131.08290100097656C625.20263671875,124.15354919433594,627.2470703125,116.91461181640625,624.66259765625,109.2211685180664C622.7236328125,103.45513916015625,618.85595703125,99.70379638671875,615.13427734375,96.09657287597656C610.5576171875,91.66119384765625,606.20751953125,87.44413757324219,605.953125,79.96858978271484C605.54296875,67.99795532226562,618.81591796875,52.129295349121094,618.81591796875,52.129295349121094C606.40869140625,49.353511810302734,594.0791015625,46.94524383544922,582.56591796875,44.86549758911133C574.92041015625,43.48456954956055,567.52783203125,42.36103057861328,560.34814453125,41.48738098144531C560.34814453125,41.48738098144531,568.53369140625,68.8802490234375,568.53369140625,99.86034393310547C568.53369140625,128.2451934814453,566.94091796875,130.064697265625,564.470703125,132.88626098632812C563.27392578125,134.25177001953125,561.87255859375,135.85223388671875,560.34814453125,140.81373596191406C551.2197265625,170.49781799316406,624.66259765625,187.53707885742188,624.66259765625,187.53707885742188C615.6982421875,187.53707885742188,605.169921875,184.27880859375,593.080078125,180.5368194580078C570.4794921875,173.5410614013672,542.41748046875,164.85513305664062,508.896484375,172.61363220214844C508.896484375,172.61363220214844,522.92431640625,146.23617553710938,519.4208984375,129.11270141601562C517.42138671875,119.33951568603516,508.41015625,114.5579833984375,499.845703125,110.01382446289062C490.359375,104.98068237304688,481.423828125,100.23899841308594,483.1708984375,89.3292007446289C484.01220703125,84.0672378540039,487.453125,80.953369140625,490.8505859375,77.87548828125C494.4052734375,74.65770721435547,497.91552734375,71.47948455810547,498.37255859375,65.92713928222656C499.2119140625,55.672813415527344,488.5380859375,41.48738098144531,488.5380859375,41.48738098144531C465.22265625,44.645957946777344,442.7412109375,50.94840621948242,418.8564453125,59.991207122802734C418.8564453125,59.991207122802734,432.2568359375,65.81665802001953,437.56591796875,72.94775390625C444.74755859375,82.59782409667969,439.71728515625,91.53385925292969,434.19287109375,101.34732055664062C430.0439453125,108.71331787109375,425.619140625,116.5740966796875,425.87255859375,125.60240173339844C426.220703125,138.05130004882812,430.64794921875,146.90528869628906,435.13818359375,155.8836669921875C439.2958984375,164.1996612548828,443.5087890625,172.62249755859375,444.58203125,184.10775756835938C445.0869140625,189.51998901367188,445.90576171875,195.0360565185547,446.71630859375,200.50328063964844C450.12158203125,223.4461212158203,453.39892578125,245.5321044921875,432.888671875,255.4849853515625C409.84521484375,266.66650390625,378.55810546875,255.7049560546875,372.08203125,230.91168212890625C370.3232421875,224.182373046875,372.984375,218.7919921875,375.63916015625,213.416259765625C378.3193359375,207.98696899414062,380.99267578125,202.57266235351562,379.09814453125,195.80859375C376.134765625,185.23130798339844,366.6728515625,182.9697265625,356.79833984375,180.610107421875C347.8623046875,178.47442626953125,338.5888671875,176.25848388671875,333.4931640625,167.72610473632812C319.0888671875,143.61215209960938,342.84814453125,96.39988708496094,342.84814453125,96.39988708496094C326.13818359375,107.60948944091797,312.771484375,119.96156311035156,299.34326171875,132.62301635742188C299.34326171875,132.62301635742188,311.275390625,185.27764892578125,311.275390625,206.3397216796875C311.275390625,227.40208435058594,305.4287109375,266.0720520019531,305.4287109375,266.0720520019531C321.8671875,272.6128845214844,342.634765625,280.08526611328125,368.78662109375,283.2655029296875C383.6669921875,285.07452392578125,400.2939453125,285.4957275390625,418.8564453125,283.56744384765625ZM603.6142578125,154.85498046875C614.49609375,144.92617797851562,608.333984375,117.7509765625,594.25927734375,122.09208679199219C583.31396484375,125.46784973144531,574.0595703125,139.86309814453125,579.05810546875,150.17477416992188C584.33349609375,161.06072998046875,594.6796875,163.00634765625,603.6142578125,154.85498046875Z" fill-rule="evenodd" clip-rule="evenodd" style="fill: rgb(248, 245, 236); fill-opacity: 1;"/></g></g><g id="shape-a0a0e7ce-c69b-80bf-8008-5c62c52d0231"><g class="fills" id="fills-a0a0e7ce-c69b-80bf-8008-5c62c52d0231"><path d="M673.775390625,101.34732055664062C664.8251953125,101.07372283935547,657.26171875,108.4528579711914,657.40478515625,117.4118881225586C657.53271484375,125.571044921875,663.3369140625,131.9291229248047,671.43701171875,132.88626098632812C679.93310546875,133.89024353027344,687.5830078125,128.1988525390625,688.97705078125,119.75209045410156C690.4951171875,110.55203247070312,683.09033203125,101.63214111328125,673.775390625,101.34732055664062Z" style="fill: rgb(10, 37, 64); fill-opacity: 1;"/></g></g><g id="shape-a0a0e7ce-c69b-80bf-8008-5c62c52d4e27"><g class="fills" id="fills-a0a0e7ce-c69b-80bf-8008-5c62c52d4e27"><path d="M667.9287109375,137.30364990234375C658.37744140625,135.23211669921875,653.45947265625,127.16372680664062,652.72705078125,117.4118881225586C651.779296875,104.8087158203125,661.1923828125,91.72439575195312,673.775390625,92.8397216796875C685.513671875,93.88063049316406,692.6689453125,105.69750213623047,691.31591796875,117.4118881225586C689.9375,129.32681274414062,679.64306640625,139.8446044921875,667.9287109375,137.30364990234375ZM657.40478515625,117.4118881225586C657.26171875,108.4528579711914,664.8251953125,101.07372283935547,673.775390625,101.34732055664062C683.09033203125,101.63214111328125,690.4951171875,110.55203247070312,688.97705078125,119.75209045410156C687.5830078125,128.1988525390625,679.93310546875,133.89024353027344,671.43701171875,132.88626098632812C663.3369140625,131.9291229248047,657.53271484375,125.571044921875,657.40478515625,117.4118881225586Z" fill-rule="evenodd" clip-rule="evenodd" style="fill: rgb(248, 245, 236); fill-opacity: 1;"/></g></g><g id="shape-a0a0e7ce-c69b-80bf-8008-5c62c52d4e28"><g class="fills" id="fills-a0a0e7ce-c69b-80bf-8008-5c62c52d4e28"><path d="M724.05810546875,109.2211685180664C724.05810546875,81.828369140625,670.77685546875,63.755191802978516,618.81591796875,52.129295349121094C618.81591796875,52.129295349121094,605.54296875,67.99795532226562,605.953125,79.96858978271484C606.20751953125,87.44413757324219,610.5576171875,91.66119384765625,615.13427734375,96.09657287597656C618.85595703125,99.70379638671875,622.7236328125,103.45513916015625,624.66259765625,109.2211685180664C627.2470703125,116.91461181640625,625.20263671875,124.15354919433594,623.24560546875,131.08290100097656C620.90478515625,139.36746215820312,618.68896484375,147.209228515625,624.66259765625,154.85498046875C637.396484375,171.15499877929688,657.51220703125,166.76025390625,677.28369140625,160.7054901123047C695.99560546875,154.97482299804688,716.1943359375,129.11270141601562,716.1943359375,129.11270141601562C721.1416015625,121.40898132324219,724.05810546875,114.550048828125,724.05810546875,109.2211685180664ZM652.72705078125,117.4118881225586C653.45947265625,127.16372680664062,658.37744140625,135.23211669921875,667.9287109375,137.30364990234375C679.64306640625,139.8446044921875,689.9375,129.32681274414062,691.31591796875,117.4118881225586C692.6689453125,105.69750213623047,685.513671875,93.88063049316406,673.775390625,92.8397216796875C661.1923828125,91.72439575195312,651.779296875,104.8087158203125,652.72705078125,117.4118881225586Z" fill-rule="evenodd" clip-rule="evenodd" style="fill: rgb(240, 138, 107); fill-opacity: 1;"/></g></g></g></svg>