<svg width="123.121" xmlns="http://www.w3.org/2000/svg" height="87.574" id="screenshot-9196dd89-f9b0-80a4-8008-65fb7553a083" viewBox="0 0 123.121 87.574" xmlns:xlink="http://www.w3.org/1999/xlink" fill="none" version="1.1"><g id="shape-9196dd89-f9b0-80a4-8008-65fb7553a083" rx="0" ry="0"><g id="shape-9196dd89-f9b0-80a4-8008-65fb719ef3b7"><g class="fills" id="fills-9196dd89-f9b0-80a4-8008-65fb719ef3b7"><path d="M3.44140625,57.13525390625C1.2919921875,49.74169921875,5.9765625,39.12548828125,14.689453125,34.2822265625C20.650390625,30.96875,27.4248046875,29.11865234375,34.408203125,26.3837890625C35.1494140625,26.125,35.31640625,26.0966796875,35.74609375,26.3193359375C42.455078125,28.39501953125,48.900390625,30.224609375,55.3486328125,32.041015625C58.9501953125,33.05517578125,62.5576171875,34.0458984375,66.5712890625,35.05126953125C68.0693359375,35.0078125,69.158203125,34.9609375,70.51171875,35.1865234375C74.3583984375,38.4091796875,78.3291015625,38.52490234375,82.798828125,37.05126953125C83.4599609375,37.017578125,83.8388671875,37.00390625,84.3740234375,37.25634765625C84.8046875,38.0693359375,85.078125,38.6162109375,85.05078125,39.31201171875C83.51953125,40.2900390625,82.3955078125,41.47265625,81.0400390625,41.8779296875C77.693359375,42.876953125,74.0927734375,44.5146484375,70.8720703125,44.0341796875C67.4189453125,43.5185546875,64.4072265625,41.6767578125,61.5927734375,45.21826171875C61.1630859375,45.7587890625,60.1103515625,45.98828125,59.3271484375,46.03515625C52.373046875,46.44921875,45.4130859375,46.748046875,38.4599609375,47.166015625C33.771484375,47.447265625,29.08984375,47.865234375,24.072265625,48.0908203125C19.5224609375,46.50390625,16.966796875,48.35546875,15.015625,52.22021484375C10.908203125,53.90234375,7.1748046875,55.51904296875,3.44140625,57.13525390625Z" style="fill: rgb(44, 138, 94); fill-opacity: 1;"/></g></g><g id="shape-9196dd89-f9b0-80a4-8008-65fb719ef3b8"><g class="fills" id="fills-9196dd89-f9b0-80a4-8008-65fb719ef3b8"><path d="M3.3857421875,57.48046875C7.1748046875,55.51904296875,10.908203125,53.90234375,15.0458984375,52.609375C16.822265625,59.72607421875,20.869140625,60.89404296875,27.01953125,56.1474609375C33.544921875,55.38037109375,39.748046875,54.98291015625,45.78515625,53.763671875C51.666015625,52.57666015625,52.80078125,52.9619140625,53.5537109375,59.2060546875C58.4208984375,57.4775390625,63.0693359375,54.8564453125,67.9462890625,54.32177734375C75.365234375,53.5078125,82.943359375,54.1396484375,90.271484375,54.44677734375C87.4150390625,56.201171875,84.8251953125,57.8525390625,82.0478515625,59.08203125C78.9560546875,60.44970703125,75.6396484375,61.302734375,72.5166015625,62.609375C65.087890625,65.71875,57.658203125,70.798828125,49.517578125,68.77978515625C38.7734375,66.11474609375,28.5439453125,67.728515625,18.103515625,69.25390625C18.103515625,69.25390625,17.7431640625,69.24169921875,17.4912109375,69.07763671875C16.998046875,68.7333984375,16.7705078125,68.76171875,16.556640625,68.9990234375C14.2041015625,67.8798828125,11.8525390625,66.7607421875,9.3154296875,65.5537109375C9.072265625,67.11669921875,8.8623046875,68.474609375,8.6513671875,69.8330078125C8.390625,69.8544921875,8.1298828125,69.87646484375,7.869140625,69.89794921875C7.6005859375,68.30517578125,7.3310546875,66.7119140625,6.8564453125,63.89404296875C5.751953125,66.7421875,5.0869140625,68.45849609375,4.4208984375,70.1748046875C4.0751953125,70.125,3.728515625,70.0751953125,3.3828125,70.025390625C3.6240234375,67.6484375,3.8642578125,65.27197265625,4.138671875,62.5654296875C2.873046875,63.0029296875,1.896484375,63.34033203125,-0.0009765625,63.99560546875C1.3896484375,61.4189453125,2.359375,59.6220703125,3.3857421875,57.48046875Z" style="fill: rgb(44, 138, 94); fill-opacity: 1;"/></g></g><g id="shape-9196dd89-f9b0-80a4-8008-65fb719ef3b9"><g class="fills" id="fills-9196dd89-f9b0-80a4-8008-65fb719ef3b9"><path d="M18.375,69.5126953125C28.5439453125,67.728515625,38.7734375,66.11474609375,49.517578125,68.77978515625C57.658203125,70.798828125,65.087890625,65.71875,72.5166015625,62.609375C75.6396484375,61.302734375,78.9560546875,60.44970703125,82.0478515625,59.08203125C84.8251953125,57.8525390625,87.4150390625,56.201171875,90.58203125,54.2265625C94.6923828125,46.44921875,91.408203125,43.63427734375,85.3515625,39.16357421875C85.078125,38.6162109375,84.8046875,38.0693359375,84.3740234375,37.25634765625C85.0849609375,36.36962890625,85.9521484375,35.74853515625,87.2919921875,35.3720703125C89.0458984375,37.11962890625,90.265625,38.681640625,91.62109375,40.1142578125C96.62109375,45.3994140625,96.62890625,51.6650390625,91.8642578125,57.2978515625C90.67578125,58.7021484375,90.2041015625,60.712890625,89.40234375,62.4453125C86.54296875,62.2919921875,83.6689453125,61.76123046875,83.650390625,66.32763671875C83.646484375,67.1826171875,80.8056640625,68.42333984375,79.1298828125,68.75537109375C77.6201171875,69.0546875,75.9111328125,68.3515625,73.615234375,67.91748046875C68.5810546875,68.3076171875,63.9501953125,68.18212890625,61.0576171875,72.4482421875C59.03515625,72.611328125,57.013671875,72.7744140625,54.3212890625,72.7275390625C49.0029296875,71.3994140625,44.380859375,70.138671875,39.6923828125,69.2197265625C36.955078125,68.68310546875,35.1337890625,69.8076171875,35.50390625,73.02001953125C33.158203125,73.0361328125,30.8125,73.052734375,28.0341796875,73.0390625C27.6015625,73.0087890625,27.5625,73.017578125,27.4453125,72.8251953125C27.1279296875,72.3544921875,26.857421875,72.21826171875,26.5146484375,72.2236328125C23.8916015625,71.40625,21.2685546875,70.5888671875,18.375,69.5126953125Z" style="fill: rgb(201, 232, 198); fill-opacity: 1;"/></g></g><g id="shape-9196dd89-f9b0-80a4-8008-65fb719ef3be"><g class="fills" id="fills-9196dd89-f9b0-80a4-8008-65fb719ef3be"><path d="M85.05078125,39.31201171875C91.408203125,43.63427734375,94.6923828125,46.44921875,90.7646484375,53.9375C82.943359375,54.1396484375,75.365234375,53.5078125,67.9462890625,54.32177734375C63.0693359375,54.8564453125,58.4208984375,57.4775390625,53.5537109375,59.2060546875C52.80078125,52.9619140625,51.666015625,52.57666015625,45.78515625,53.763671875C39.748046875,54.98291015625,33.544921875,55.38037109375,27.0087890625,55.7314453125C25.87109375,52.9580078125,25.138671875,50.58984375,24.4052734375,48.22216796875C29.08984375,47.865234375,33.771484375,47.447265625,38.4599609375,47.166015625C45.4130859375,46.748046875,52.373046875,46.44921875,59.3271484375,46.03515625C60.1103515625,45.98828125,61.1630859375,45.7587890625,61.5927734375,45.21826171875C64.4072265625,41.6767578125,67.4189453125,43.5185546875,70.8720703125,44.0341796875C74.0927734375,44.5146484375,77.693359375,42.876953125,81.0400390625,41.8779296875C82.3955078125,41.47265625,83.51953125,40.2900390625,85.05078125,39.31201171875Z" style="fill: rgb(31, 111, 87); fill-opacity: 1;"/></g></g><g id="shape-9196dd89-f9b0-80a4-8008-65fb719ef3bf"><g class="fills" id="fills-9196dd89-f9b0-80a4-8008-65fb719ef3bf"><path d="M35.74609375,26.3193359375C37.177734375,21.4150390625,38.8720703125,16.76171875,40.904296875,12.37109375C40.6630859375,15.0458984375,39.4658203125,17.5166015625,39.6904296875,19.8505859375C39.8857421875,21.890625,41.26171875,24.9638671875,42.84375,25.5224609375C49.173828125,27.7578125,55.7392578125,29.42529296875,62.326171875,30.77294921875C64.1943359375,31.1552734375,66.4296875,29.740234375,68.685546875,29.00927734375C69.1103515625,28.66015625,69.3056640625,28.41748046875,69.4833984375,27.8994140625C69.5087890625,27.65869140625,69.5615234375,27.177734375,69.9013671875,27.0361328125C69.919921875,23.435546875,69.82421875,19.9345703125,69.1982421875,16.53125C68.7763671875,14.2373046875,67.60546875,12.0810546875,66.76953125,9.86328125C69.541015625,14.6025390625,72.55078125,19.2294921875,74.896484375,24.1708984375C75.404296875,25.240234375,73.8505859375,27.740234375,72.6640625,29.05419921875C70.841796875,31.0703125,68.513671875,32.6298828125,66.28125,34.71533203125C62.5576171875,34.0458984375,58.9501953125,33.05517578125,55.3486328125,32.041015625C48.900390625,30.224609375,42.455078125,28.39501953125,35.74609375,26.3193359375Z" style="fill: rgb(110, 194, 136); fill-opacity: 1;"/></g></g><g id="shape-9196dd89-f9b0-80a4-8008-65fb719ef3c0"><g class="fills" id="fills-9196dd89-f9b0-80a4-8008-65fb719ef3c0"><path d="M24.072265625,48.0908203125C25.138671875,50.58984375,25.87109375,52.9580078125,26.615234375,55.74169921875C20.869140625,60.89404296875,16.822265625,59.72607421875,15.4189453125,52.54296875C16.966796875,48.35546875,19.5224609375,46.50390625,24.072265625,48.0908203125Z" style="fill: rgb(10, 37, 64); fill-opacity: 1;"/></g></g><g id="shape-9196dd89-f9b0-80a4-8008-65fb719ef3c1"><g class="fills" id="fills-9196dd89-f9b0-80a4-8008-65fb719ef3c1"><path d="M70.51171875,35.1865234375C76.18359375,30.3779296875,79.8447265625,30.8115234375,82.4326171875,36.70947265625C78.3291015625,38.52490234375,74.3583984375,38.4091796875,70.51171875,35.1865234375Z" style="fill: rgb(110, 194, 136); fill-opacity: 1;"/></g></g><g id="shape-9196dd89-f9b0-80a4-8008-65fb719ef3c2"><g class="fills" id="fills-9196dd89-f9b0-80a4-8008-65fb719ef3c2"><path d="M110.03515625,44.11328125C111.4921875,46.56689453125,112.8359375,49.09619140625,114.4296875,51.4560546875C117.0830078125,55.3857421875,120.8173828125,58.859375,122.4375,63.150390625C125.162109375,70.36474609375,119.3447265625,76.4365234375,111.9453125,74.376953125C107.71875,73.2001953125,103.8740234375,70.6474609375,99.9453125,68.232421875C100.9541015625,64.3857421875,103.0244140625,60.8505859375,102.556640625,57.6904296875C101.544921875,50.84521484375,103.5908203125,46.10498046875,110.03515625,44.11328125Z" style="fill: rgb(110, 194, 136); fill-opacity: 1;"/></g></g><g id="shape-9196dd89-f9b0-80a4-8008-65fb719ef3c3"><g class="fills" id="fills-9196dd89-f9b0-80a4-8008-65fb719ef3c3"><path d="M94.22265625,27.873046875C98.1640625,23.98583984375,101.5966796875,19.2861328125,106.1767578125,16.41650390625C111.927734375,12.81298828125,118,16.64501953125,118.5390625,23.49072265625C119.111328125,30.7373046875,115.888671875,36.6337890625,110.734375,41.85986328125C110.01953125,40.767578125,109.8134765625,39.70703125,109.8193359375,39.73974609375C105.244140625,37.8818359375,101.0908203125,36.8095703125,97.7041015625,34.57421875C95.8681640625,33.36328125,95.33984375,30.17138671875,94.22265625,27.873046875Z" style="fill: rgb(110, 194, 136); fill-opacity: 1;"/></g></g><g id="shape-9196dd89-f9b0-80a4-8008-65fb719ef3c4"><g class="fills" id="fills-9196dd89-f9b0-80a4-8008-65fb719ef3c4"><path d="M93.9326171875,28.044921875C95.33984375,30.17138671875,95.8681640625,33.36328125,97.7041015625,34.57421875C101.0908203125,36.8095703125,105.244140625,37.8818359375,109.8193359375,39.73974609375C109.8134765625,39.70703125,110.01953125,40.767578125,110.44921875,42.03369140625C110.5576171875,42.66455078125,110.4423828125,43.08984375,110.181640625,43.814453125C103.5908203125,46.10498046875,101.544921875,50.84521484375,102.556640625,57.6904296875C103.0244140625,60.8505859375,100.9541015625,64.3857421875,99.73046875,67.9677734375C96.259765625,66.3974609375,93.0927734375,64.611328125,89.6640625,62.634765625C90.2041015625,60.712890625,90.67578125,58.7021484375,91.8642578125,57.2978515625C96.62890625,51.6650390625,96.62109375,45.3994140625,91.62109375,40.1142578125C90.265625,38.681640625,89.0458984375,37.11962890625,87.61328125,35.30859375C89.5224609375,32.7392578125,91.5830078125,30.478515625,93.9326171875,28.044921875Z" style="fill: rgb(201, 232, 198); fill-opacity: 1;"/></g></g><g id="shape-9196dd89-f9b0-80a4-8008-65fb719ef3c5"><g class="fills" id="fills-9196dd89-f9b0-80a4-8008-65fb719ef3c5"><path d="M66.7392578125,9.861328125C67.60546875,12.0810546875,68.7763671875,14.2373046875,69.1982421875,16.53125C69.82421875,19.9345703125,69.919921875,23.435546875,69.490234375,27.021484375C66.82421875,26.41943359375,64.0947265625,26.248046875,63.1474609375,24.859375C60.013671875,20.2705078125,55.8046875,18.37109375,50.5380859375,18.12060546875C47.5673828125,17.97900390625,46.640625,16.3984375,46.7490234375,13.51806640625C46.8046875,12.05859375,45.8681640625,10.56201171875,45.3896484375,8.6611328125C45.3408203125,7.390625,45.2822265625,6.5419921875,45.2236328125,5.69287109375C45.6728515625,4.8603515625,46.123046875,4.02783203125,47.2373046875,3.1337890625C51.7802734375,3.0595703125,55.6591796875,3.0478515625,59.5380859375,3.03564453125C59.5380859375,3.03564453125,59.5166015625,3.11279296875,59.640625,3.28515625C59.986328125,3.71875,60.2587890625,3.9052734375,60.58203125,4.0185546875C60.58203125,4.0185546875,60.580078125,3.931640625,60.609375,4.2841796875C61.287109375,7.94580078125,62.73046875,10.34228515625,66.6591796875,9.8916015625C66.6591796875,9.8916015625,66.7099609375,9.85986328125,66.7392578125,9.861328125Z" style="fill: rgb(110, 194, 136); fill-opacity: 1;"/></g></g><g id="shape-9196dd89-f9b0-80a4-8008-65fb719ef3c6"><g class="fills" id="fills-9196dd89-f9b0-80a4-8008-65fb719ef3c6"><path d="M45.3798828125,9.08203125C45.8681640625,10.56201171875,46.8046875,12.05859375,46.7490234375,13.51806640625C46.640625,16.3984375,47.5673828125,17.97900390625,50.5380859375,18.12060546875C55.8046875,18.37109375,60.013671875,20.2705078125,63.1474609375,24.859375C64.0947265625,26.248046875,66.82421875,26.41943359375,69.1494140625,27.1630859375C69.5615234375,27.177734375,69.5087890625,27.65869140625,69.2890625,28.03369140625C68.8251953125,28.61376953125,68.634765625,28.861328125,68.4970703125,29.1494140625C66.4296875,29.740234375,64.1943359375,31.1552734375,62.326171875,30.77294921875C55.7392578125,29.42529296875,49.173828125,27.7578125,42.84375,25.5224609375C41.26171875,24.9638671875,39.8857421875,21.890625,39.6904296875,19.8505859375C39.4658203125,17.5166015625,40.6630859375,15.0458984375,41.224609375,12.216796875C41.20703125,11.798828125,41.291015625,11.4541015625,41.6865234375,11.220703125C43.181640625,10.3525390625,44.2802734375,9.7177734375,45.3798828125,9.08203125Z" style="fill: rgb(201, 232, 198); fill-opacity: 1;"/></g></g><g id="shape-9196dd89-f9b0-80a4-8008-65fb719ef3c7"><g class="fills" id="fills-9196dd89-f9b0-80a4-8008-65fb719ef3c7"><path d="M35.7177734375,73.28564453125C35.1337890625,69.8076171875,36.955078125,68.68310546875,39.6923828125,69.2197265625C44.380859375,70.138671875,49.0029296875,71.3994140625,53.9365234375,72.685546875C55.7646484375,74.32421875,57.45703125,75.669921875,58.82421875,77.2900390625C62.171875,81.2568359375,60.51953125,86.048828125,55.484375,87.15771484375C50.349609375,88.2890625,45.8828125,87.2041015625,42.603515625,82.8388671875C40.314453125,79.7919921875,38.1513671875,76.650390625,35.7177734375,73.28564453125M57.1650390625,82.21435546875C56.20703125,75.138671875,47.490234375,71.3203125,40.9677734375,75.2568359375C42.330078125,77.44921875,43.509765625,79.7890625,45.09765625,81.8076171875C48,85.4990234375,53.6318359375,85.90625,57.1650390625,82.21435546875Z" style="fill: rgb(110, 194, 136); fill-opacity: 1;"/></g></g><g id="shape-9196dd89-f9b0-80a4-8008-65fb719ef3c8"><g class="fills" id="fills-9196dd89-f9b0-80a4-8008-65fb719ef3c8"><path d="M75.53515625,76.28173828125C71.7919921875,79.103515625,67.955078125,79.0126953125,63.9619140625,76.1357421875C64.6318359375,74.22705078125,65.0498046875,72.0908203125,66.1904296875,71.5849609375C70.9306640625,69.4833984375,74.4658203125,71.43798828125,75.53515625,76.28173828125Z" style="fill: rgb(110, 194, 136); fill-opacity: 1;"/></g></g><g id="shape-9196dd89-f9b0-80a4-8008-65fb719ef3c9"><g class="fills" id="fills-9196dd89-f9b0-80a4-8008-65fb719ef3c9"><path d="M75.8056640625,76.07568359375C74.4658203125,71.43798828125,70.9306640625,69.4833984375,66.1904296875,71.5849609375C65.0498046875,72.0908203125,64.6318359375,74.22705078125,63.7158203125,75.859375C62.7724609375,75.10009765625,61.99609375,74.09521484375,61.138671875,72.76953125C63.9501953125,68.18212890625,68.5810546875,68.3076171875,73.21484375,67.93212890625C74.17578125,70.76171875,79.5166015625,71.85107421875,75.8056640625,76.07568359375Z" style="fill: rgb(110, 194, 136); fill-opacity: 1;"/></g></g><g id="shape-9196dd89-f9b0-80a4-8008-65fb719ef3ca"><g class="fills" id="fills-9196dd89-f9b0-80a4-8008-65fb719ef3ca"><path d="M59.3408203125,2.7294921875C55.6591796875,3.0478515625,51.7802734375,3.0595703125,47.513671875,3.03125C50.345703125,-0.876953125,53.7255859375,-1.0361328125,59.3408203125,2.7294921875Z" style="fill: rgb(110, 194, 136); fill-opacity: 1;"/></g></g><g id="shape-9196dd89-f9b0-80a4-8008-65fb719ef3cb"><g class="fills" id="fills-9196dd89-f9b0-80a4-8008-65fb719ef3cb"><path d="M66.58203125,9.5703125C62.73046875,10.34228515625,61.287109375,7.94580078125,60.6533203125,4.2822265625C62.6123046875,5.701171875,64.55859375,7.47509765625,66.58203125,9.5703125Z" style="fill: rgb(110, 194, 136); fill-opacity: 1;"/></g></g><g id="shape-9196dd89-f9b0-80a4-8008-65fb719ef3cc"><g class="fills" id="fills-9196dd89-f9b0-80a4-8008-65fb719ef3cc"><path d="M45.3896484375,8.6611328125C44.2802734375,9.7177734375,43.181640625,10.3525390625,41.7705078125,11.064453125C42.5068359375,9.42626953125,43.5556640625,7.7119140625,44.9130859375,5.8447265625C45.2822265625,6.5419921875,45.3408203125,7.390625,45.3896484375,8.6611328125Z" style="fill: rgb(110, 194, 136); fill-opacity: 1;"/></g></g><g id="shape-9196dd89-f9b0-80a4-8008-65fb719ef3cd"><g class="fills" id="fills-9196dd89-f9b0-80a4-8008-65fb719ef3cd"><path d="M60.48828125,3.7744140625C60.2587890625,3.9052734375,59.986328125,3.71875,59.6298828125,3.2470703125C59.794921875,3.201171875,60.0947265625,3.3662109375,60.48828125,3.7744140625Z" style="fill: rgb(110, 194, 136); fill-opacity: 1;"/></g></g><g id="shape-9196dd89-f9b0-80a4-8008-65fb719ef3ce"><g class="fills" id="fills-9196dd89-f9b0-80a4-8008-65fb719ef3ce"><path d="M68.685546875,29.00927734375C68.634765625,28.861328125,68.8251953125,28.61376953125,69.263671875,28.2744140625C69.3056640625,28.41748046875,69.1103515625,28.66015625,68.685546875,29.00927734375Z" style="fill: rgb(110, 194, 136); fill-opacity: 1;"/></g></g><g id="shape-9196dd89-f9b0-80a4-8008-65fb719ef3cf"><g class="fills" id="fills-9196dd89-f9b0-80a4-8008-65fb719ef3cf"><path d="M57.0205078125,82.54638671875C53.6318359375,85.90625,48,85.4990234375,45.09765625,81.8076171875C43.509765625,79.7890625,42.330078125,77.44921875,40.9677734375,75.2568359375C47.490234375,71.3203125,56.20703125,75.138671875,57.0205078125,82.54638671875Z" style="fill: rgb(110, 194, 136); fill-opacity: 1;"/></g></g></g></svg>