<svg width="127.023" xmlns="http://www.w3.org/2000/svg" height="88.536" id="screenshot-9196dd89-f9b0-80a4-8008-65fc105e15e5" viewBox="0 0 127.023 88.536" xmlns:xlink="http://www.w3.org/1999/xlink" fill="none" version="1.1"><g id="shape-9196dd89-f9b0-80a4-8008-65fc105e15e5" rx="0" ry="0"><g id="shape-9196dd89-f9b0-80a4-8008-65fc0c77ae76"><g class="fills" id="fills-9196dd89-f9b0-80a4-8008-65fc0c77ae76"><path d="M39.181640625,73.84130859375C39.181640625,73.84130859375,38.904296875,73.8134765625,38.8857421875,73.291015625C40.123046875,71.466796875,41.224609375,69.947265625,42.67578125,68.923828125C44.1875,67.8564453125,47.5263671875,67.19140625,47.490234375,66.4833984375C47.2919921875,62.63427734375,50.484375,58.05859375,45.9541015625,55.03125C44.548828125,54.0927734375,42.1337890625,53.544921875,40.6552734375,54.0947265625C38.357421875,54.94921875,36.466796875,56.896484375,33.8017578125,58.8125C33.4609375,57.0859375,33.4765625,55.2685546875,32.71484375,53.8779296875C32.0361328125,52.640625,30.4951171875,51.8759765625,29.31640625,50.7890625C29.298828125,50.6748046875,29.4658203125,50.51513671875,29.4892578125,50.15771484375C28.552734375,49.3232421875,27.59375,48.845703125,26.244140625,48.3603515625C22.763671875,48.2197265625,19.9755859375,48.5283203125,19.068359375,52.2666015625C18.322265625,55.3359375,18.169921875,58.083984375,21.85546875,59.75439453125C21.822265625,64.064453125,26.9658203125,66.58984375,24.85546875,71.09375C20.861328125,69.60546875,16.8681640625,68.1171875,12.6328125,66.5390625C12.5556640625,67.5966796875,12.4521484375,69.0009765625,12.349609375,70.40576171875C12.08203125,70.427734375,11.814453125,70.44970703125,11.546875,70.4716796875C11.1728515625,68.802734375,10.798828125,67.1337890625,10.185546875,64.40283203125C9.0595703125,67.45654296875,8.2412109375,69.67578125,7.4228515625,71.89453125C7.0205078125,71.80517578125,6.619140625,71.7158203125,6.216796875,71.62646484375C6.7744140625,68.7275390625,7.3310546875,65.8291015625,8.0419921875,62.1328125C5.5634765625,63.92822265625,3.646484375,65.31640625,1.7294921875,66.7041015625C1.486328125,66.416015625,1.2431640625,66.1279296875,1,65.8388671875C1.912109375,64.85107421875,2.8486328125,63.8837890625,3.732421875,62.87109375C5.7138671875,60.6005859375,7.052734375,58.49462890625,6.26953125,54.9306640625C4.97265625,49.02685546875,8.4990234375,44.359375,12.1650390625,40.2021484375C18.681640625,32.810546875,26.8349609375,28.38671875,37.408203125,28C40.6318359375,29.9248046875,44.0029296875,30.91015625,45.7255859375,33.15869140625C51.26171875,40.3828125,58.947265625,40.09228515625,66.5986328125,39.9931640625C70.294921875,39.9453125,73.9912109375,39.19189453125,77.666015625,38.62255859375C78.44921875,38.5009765625,79.140625,37.79296875,80.2861328125,37.3203125C82.34375,37.30810546875,83.9912109375,37.330078125,85.6376953125,37.3515625C86.138671875,37.3935546875,86.640625,37.43505859375,87.755859375,37.59423828125C89.2255859375,37.6220703125,90.08203125,37.53271484375,91.1494140625,37.40576171875C91.3603515625,37.36865234375,91.7734375,37.255859375,91.7685546875,37.51611328125C91.7744140625,37.94921875,91.7861328125,38.12255859375,91.9609375,38.5888671875C100.234375,47.18359375,100.7255859375,50.384765625,94.857421875,58.4384765625C93.7412109375,59.970703125,92.13671875,61.1474609375,90.7578125,62.48876953125C89.7177734375,63.02734375,88.6767578125,63.56640625,86.9052734375,64.1669921875C83.7431640625,63.26708984375,81.1962890625,62.5224609375,78.9052734375,61.29833984375C74.0078125,58.6796875,70.185546875,59.71875,67.6591796875,64.5791015625C67.25,65.36669921875,66.5634765625,66.009765625,66.837890625,65.6611328125C63.1044921875,64.3583984375,60.23828125,62.8466796875,57.2568359375,62.5634765625C56.021484375,62.4462890625,53.8232421875,64.740234375,53.3330078125,66.3291015625C52.5869140625,68.7451171875,52.947265625,71.501953125,52.38671875,74.1533203125C47.6845703125,74.0751953125,43.4326171875,73.9580078125,39.181640625,73.84130859375Z" style="fill: rgb(201, 232, 198); fill-opacity: 1;"/></g></g><g id="shape-9196dd89-f9b0-80a4-8008-65fc0c77ae77"><g class="fills" id="fills-9196dd89-f9b0-80a4-8008-65fc0c77ae77"><path d="M91.181640625,63.2236328125C92.228515625,61.6806640625,93.8330078125,60.50341796875,94.94921875,58.970703125C100.8173828125,50.91796875,100.326171875,47.716796875,92.173828125,39.0068359375C92.296875,38.2626953125,92.2080078125,37.99267578125,91.865234375,37.78857421875C91.865234375,37.78857421875,91.4521484375,37.9013671875,91.224609375,37.59814453125C90.9970703125,36.84423828125,90.998046875,36.3935546875,91,35.94287109375C95.478515625,30.828125,99.87109375,25.6328125,104.4638671875,20.6220703125C108.4443359375,16.279296875,114.1376953125,14.853515625,117.8486328125,16.9580078125C121.814453125,19.2080078125,123.8291015625,24.5302734375,121.9228515625,30.1689453125C120.572265625,34.1640625,118.3408203125,37.9501953125,116,41.4990234375C112.83203125,46.3037109375,113.0048828125,48.19287109375,117.2373046875,52.1259765625C120.11328125,54.79931640625,123.0458984375,57.6357421875,125.078125,60.93798828125C127.5478515625,64.953125,128.0078125,69.7373046875,124.4267578125,73.43505859375C120.8818359375,77.0966796875,116.236328125,76.73828125,111.908203125,74.744140625C108.763671875,73.294921875,105.880859375,71.28369140625,102.84375,69.591796875C99.087890625,67.4990234375,95.2919921875,65.4775390625,91.181640625,63.2236328125Z" style="fill: rgb(31, 111, 87); fill-opacity: 1;"/></g></g><g id="shape-9196dd89-f9b0-80a4-8008-65fc0c77ae78"><g class="fills" id="fills-9196dd89-f9b0-80a4-8008-65fc0c77ae78"><path d="M38.9990234375,26.927734375C42.484375,19.3173828125,45.56640625,11.484375,49.603515625,4.1787109375C52.099609375,-0.3408203125,56.2822265625,-1.041015625,60.8056640625,1.33984375C69.8212890625,6.083984375,74.9140625,14.1962890625,78.1787109375,23.42333984375C78.76171875,25.0732421875,77.1845703125,27.9599609375,75.8466796875,29.6884765625C74.3974609375,31.5615234375,72.060546875,32.74755859375,69.7685546875,34.59423828125C64.9287109375,33.3642578125,60.513671875,31.453125,55.9111328125,30.265625C50.3564453125,28.83203125,44.6435546875,28.0126953125,38.9990234375,26.927734375Z" style="fill: rgb(44, 138, 94); fill-opacity: 1;"/></g></g><g id="shape-9196dd89-f9b0-80a4-8008-65fc0c77ae79"><g class="fills" id="fills-9196dd89-f9b0-80a4-8008-65fc0c77ae79"><path d="M25.9599609375,71.3701171875C27.7197265625,66.6865234375,22.576171875,64.1611328125,23.02734375,59.818359375C30.3115234375,59.240234375,31.994140625,57.111328125,30.0888671875,51C31.2490234375,51.97265625,32.7900390625,52.7373046875,33.46875,53.974609375C34.23046875,55.365234375,34.21484375,57.1826171875,34.5556640625,58.9091796875C37.220703125,56.9931640625,39.111328125,55.04638671875,41.4091796875,54.19140625C42.8876953125,53.64208984375,45.302734375,54.189453125,46.7080078125,55.12841796875C51.23828125,58.1552734375,48.0458984375,62.7314453125,48.244140625,66.58056640625C48.2802734375,67.28857421875,44.94140625,67.95361328125,43.4296875,69.0205078125C41.978515625,70.04443359375,40.876953125,71.56396484375,39.6005859375,73.2548828125C35.15625,72.9453125,30.7333984375,72.24755859375,25.9599609375,71.3701171875Z" style="fill: rgb(110, 194, 136); fill-opacity: 1;"/></g></g><g id="shape-9196dd89-f9b0-80a4-8008-65fc0c77ae7a"><g class="fills" id="fills-9196dd89-f9b0-80a4-8008-65fc0c77ae7a"><path d="M53,74.21484375C53.109375,71.6025390625,52.7490234375,68.84521484375,53.4951171875,66.42919921875C53.9853515625,64.84033203125,56.18359375,62.546875,57.4189453125,62.6640625C60.400390625,62.94677734375,63.2666015625,64.458984375,67,65.76171875C66.7255859375,66.1103515625,67.412109375,65.466796875,67.8212890625,64.6796875C70.34765625,59.81884765625,74.169921875,58.7802734375,79.0673828125,61.3984375C81.3583984375,62.623046875,83.9052734375,63.3671875,86.7255859375,64.3583984375C87.953125,68.5625,86.759765625,69.90625,82.6474609375,69.30908203125C81.3935546875,69.126953125,80.169921875,68.7373046875,78.150390625,68.45166015625C72.947265625,69.96484375,68.5263671875,71.46923828125,64.10546875,72.97314453125C62.630859375,73.07421875,61.15625,73.17578125,58.89453125,73.2099609375C57.0751953125,73.53955078125,56.04296875,73.9365234375,54.67578125,74.32568359375C53.892578125,74.283203125,53.4462890625,74.2490234375,53,74.21484375Z" style="fill: rgb(110, 194, 136); fill-opacity: 1;"/></g></g><g id="shape-9196dd89-f9b0-80a4-8008-65fc0c77ae7b"><g class="fills" id="fills-9196dd89-f9b0-80a4-8008-65fc0c77ae7b"><path d="M52.9638671875,74.12158203125C53.861328125,74.1171875,54.3076171875,74.1513671875,55.2529296875,74.4541015625C56.998046875,74.8779296875,58.2451171875,75.0341796875,59.4921875,75.189453125C64.6611328125,78.5751953125,66.0849609375,82.1376953125,63.6513671875,85.59326171875C61.0693359375,89.26025390625,52.5029296875,89.697265625,48.7958984375,85.78125C45.541015625,82.34130859375,43.0634765625,78.1650390625,40,74.0625C44.009765625,73.9267578125,48.26171875,74.04345703125,52.9638671875,74.12158203125Z" style="fill: rgb(110, 194, 136); fill-opacity: 1;"/></g></g><g id="shape-9196dd89-f9b0-80a4-8008-65fc0c77ae7c"><g class="fills" id="fills-9196dd89-f9b0-80a4-8008-65fc0c77ae7c"><path d="M38.6826171875,27C44.5283203125,28.06298828125,50.2412109375,28.88232421875,55.7958984375,30.3154296875C60.3984375,31.5029296875,64.8134765625,33.4150390625,69.6875,35.0029296875C71.1318359375,35.111328125,72.2001953125,35.2236328125,73.837890625,35.52978515625C76.2841796875,36.2001953125,78.162109375,36.6767578125,80.0400390625,37.1533203125C79.3056640625,37.59130859375,78.6142578125,38.2998046875,77.8310546875,38.4208984375C74.15625,38.990234375,70.4599609375,39.744140625,66.763671875,39.7919921875C59.1123046875,39.890625,51.4267578125,40.18115234375,45.890625,32.95703125C44.16796875,30.708984375,40.796875,29.7236328125,38.0029296875,27.8076171875C37.9697265625,27.1982421875,38.1875,27.0537109375,38.6826171875,27Z" style="fill: rgb(110, 194, 136); fill-opacity: 1;"/></g></g><g id="shape-9196dd89-f9b0-80a4-8008-65fc0c77ae7d"><g class="fills" id="fills-9196dd89-f9b0-80a4-8008-65fc0c77ae7d"><path d="M65,72.82763671875C69.24609375,71.0146484375,73.6669921875,69.51025390625,78.478515625,68C78.8251953125,68.48388671875,78.5546875,69.22265625,78.7744140625,69.4248046875C80.5888671875,71.08642578125,83.51171875,72.86376953125,80.9443359375,75.3671875C79.087890625,77.177734375,75.6455078125,78.828125,73.3544921875,78.3623046875C70.396484375,77.76171875,67.880859375,74.9794921875,65,72.82763671875Z" style="fill: rgb(44, 138, 94); fill-opacity: 1;"/></g></g><g id="shape-9196dd89-f9b0-80a4-8008-65fc0c77ae7e"><g class="fills" id="fills-9196dd89-f9b0-80a4-8008-65fc0c77ae7e"><path d="M81.2099609375,36.92431640625C78.9208984375,36.482421875,77.04296875,36.005859375,74.9990234375,35.3056640625C80.2587890625,30.5244140625,84.1748046875,30.91015625,86.51171875,36.591796875C84.9150390625,36.93359375,83.267578125,36.912109375,81.2099609375,36.92431640625Z" style="fill: rgb(44, 138, 94); fill-opacity: 1;"/></g></g><g id="shape-9196dd89-f9b0-80a4-8008-65fc0c77ae7f"><g class="fills" id="fills-9196dd89-f9b0-80a4-8008-65fc0c77ae7f"><path d="M59.67578125,74.8046875C58.65625,74.96875,57.4091796875,74.81298828125,56,74.3974609375C56.869140625,73.73974609375,57.9013671875,73.3427734375,59.2763671875,73C59.5625,73.53125,59.5048828125,74.0087890625,59.67578125,74.8046875Z" style="fill: rgb(44, 138, 94); fill-opacity: 1;"/></g></g><g id="shape-9196dd89-f9b0-80a4-8008-65fc0c77ae80"><g class="fills" id="fills-9196dd89-f9b0-80a4-8008-65fc0c77ae80"><path d="M91.482421875,36C91.7705078125,36.3544921875,91.76953125,36.8046875,91.7861328125,37.595703125C90.9462890625,38.0263671875,90.08984375,38.11572265625,88.9990234375,38.05517578125C89.5751953125,37.3017578125,90.384765625,36.69921875,91.482421875,36Z" style="fill: rgb(44, 138, 94); fill-opacity: 1;"/></g></g><g id="shape-9196dd89-f9b0-80a4-8008-65fc0c77ae81"><g class="fills" id="fills-9196dd89-f9b0-80a4-8008-65fc0c77ae81"><path d="M0.6494140625,67.0078125C0.599609375,67.291015625,0.2998046875,67.32421875,0,67.35791015625C0.1328125,67.15771484375,0.2666015625,66.9580078125,0.6494140625,67.0078125Z" style="fill: rgb(201, 232, 198); fill-opacity: 1;"/></g></g><g id="shape-9196dd89-f9b0-80a4-8008-65fc0c77ae82"><g class="fills" id="fills-9196dd89-f9b0-80a4-8008-65fc0c77ae82"><path d="M29.662109375,51.3056640625C31.5859375,57.53125,29.9033203125,59.66015625,22.6123046875,59.8681640625C18.515625,58.6005859375,18.66796875,55.8525390625,19.4140625,52.783203125C20.3212890625,49.044921875,23.109375,48.736328125,26.771484375,49.13037109375C28.1669921875,49.9375,28.9892578125,50.48486328125,29.8115234375,51.0322265625C29.8115234375,51.0322265625,29.64453125,51.19140625,29.662109375,51.3056640625Z" style="fill: rgb(10, 37, 64); fill-opacity: 1;"/></g></g><g id="shape-9196dd89-f9b0-80a4-8008-65fc0c77ae83"><g class="fills" id="fills-9196dd89-f9b0-80a4-8008-65fc0c77ae83"><path d="M29.6728515625,50.53662109375C28.8271484375,50.3466796875,28.0048828125,49.7998046875,27,49C27.77734375,49.224609375,28.736328125,49.7021484375,29.6728515625,50.53662109375Z" style="fill: rgb(110, 194, 136); fill-opacity: 1;"/></g></g><g id="shape-9196dd89-f9b0-80a4-8008-65fc0c77ae84"><g class="fills" id="fills-9196dd89-f9b0-80a4-8008-65fc0c77ae84"><path d="M92,38.00732421875C92.34765625,37.951171875,92.4365234375,38.22119140625,92.1494140625,38.671875C92.017578125,38.61376953125,92.005859375,38.4404296875,92,38.00732421875Z" style="fill: rgb(44, 138, 94); fill-opacity: 1;"/></g></g></g></svg>