{
	"asset":{
		"generator":"Khronos glTF Blender I/O v4.0.44",
		"version":"2.0"
	},
	"scene":0,
	"scenes":[
		{
			"name":"Scene",
			"nodes":[
				0,
				1,
				2,
				3,
				4,
				5,
				6,
				7,
				8,
				9,
				10
			]
		}
	],
	"nodes":[
		{
			"mesh":0,
			"name":"path6240",
			"rotation":[
				0.5054325461387634,
				0.49453994631767273,
				-0.503686785697937,
				0.49625393748283386
			],
			"scale":[
				7.808154582977295,
				7.808154582977295,
				7.808154582977295
			],
			"translation":[
				0.019950859248638153,
				0.004592170938849449,
				0.040609944611787796
			]
		},
		{
			"mesh":1,
			"name":"path6242",
			"rotation":[
				0.5054325461387634,
				0.49453994631767273,
				-0.503686785697937,
				0.49625393748283386
			],
			"scale":[
				7.808154582977295,
				7.808154582977295,
				7.808154582977295
			],
			"translation":[
				0.019950859248638153,
				0.004592170938849449,
				0.040609944611787796
			]
		},
		{
			"mesh":2,
			"name":"path6244",
			"rotation":[
				0.5054325461387634,
				0.49453994631767273,
				-0.503686785697937,
				0.49625393748283386
			],
			"scale":[
				7.808154582977295,
				7.808154582977295,
				7.808154582977295
			],
			"translation":[
				0.019950859248638153,
				0.004592170938849449,
				0.040609944611787796
			]
		},
		{
			"mesh":3,
			"name":"path6246",
			"rotation":[
				0.5054325461387634,
				0.49453994631767273,
				-0.503686785697937,
				0.49625393748283386
			],
			"scale":[
				7.808154582977295,
				7.808154582977295,
				7.808154582977295
			],
			"translation":[
				0.019950859248638153,
				0.004592170938849449,
				0.040609944611787796
			]
		},
		{
			"mesh":4,
			"name":"path6248",
			"rotation":[
				0.5054325461387634,
				0.49453994631767273,
				-0.503686785697937,
				0.49625393748283386
			],
			"scale":[
				7.808154582977295,
				7.808154582977295,
				7.808154582977295
			],
			"translation":[
				0.019950859248638153,
				0.004592170938849449,
				0.040609944611787796
			]
		},
		{
			"mesh":5,
			"name":"path6250",
			"rotation":[
				0.5054325461387634,
				0.49453994631767273,
				-0.503686785697937,
				0.49625393748283386
			],
			"scale":[
				7.808154582977295,
				7.808154582977295,
				7.808154582977295
			],
			"translation":[
				0.019950859248638153,
				0.004592170938849449,
				0.040609944611787796
			]
		},
		{
			"mesh":6,
			"name":"path6252",
			"rotation":[
				0.5054325461387634,
				0.49453994631767273,
				-0.503686785697937,
				0.49625393748283386
			],
			"scale":[
				7.808154582977295,
				7.808154582977295,
				7.808154582977295
			],
			"translation":[
				0.019950859248638153,
				0.004592170938849449,
				0.040609944611787796
			]
		},
		{
			"mesh":7,
			"name":"path6254",
			"rotation":[
				0.5054325461387634,
				0.49453994631767273,
				-0.503686785697937,
				0.49625393748283386
			],
			"scale":[
				7.808154582977295,
				7.808154582977295,
				7.808154582977295
			],
			"translation":[
				0.019950859248638153,
				0.004592170938849449,
				0.040609944611787796
			]
		},
		{
			"mesh":8,
			"name":"path6256",
			"rotation":[
				0.5054325461387634,
				0.49453994631767273,
				-0.503686785697937,
				0.49625393748283386
			],
			"scale":[
				7.808154582977295,
				7.808154582977295,
				7.808154582977295
			],
			"translation":[
				0.019950859248638153,
				0.004592170938849449,
				0.040609944611787796
			]
		},
		{
			"mesh":9,
			"name":"path6258",
			"rotation":[
				0.5054325461387634,
				0.49453994631767273,
				-0.503686785697937,
				0.49625393748283386
			],
			"scale":[
				7.808154582977295,
				7.808154582977295,
				7.808154582977295
			],
			"translation":[
				0.019950859248638153,
				0.004592170938849449,
				0.040609944611787796
			]
		},
		{
			"mesh":10,
			"name":"ellipse6260",
			"rotation":[
				0.5054325461387634,
				0.49453994631767273,
				-0.503686785697937,
				0.49625393748283386
			],
			"scale":[
				7.808154582977295,
				7.808154582977295,
				7.808154582977295
			],
			"translation":[
				0.019950859248638153,
				0.004592170938849449,
				0.040609944611787796
			]
		}
	],
	"materials":[
		{
			"doubleSided":true,
			"name":"SVGMat.013",
			"pbrMetallicRoughness":{
				"baseColorFactor":[
					0,
					0.007498699706047773,
					0.02217227593064308,
					1
				],
				"metallicFactor":0,
				"roughnessFactor":0.4000000059604645
			}
		},
		{
			"doubleSided":true,
			"name":"SVGMat.014",
			"pbrMetallicRoughness":{
				"baseColorFactor":[
					0,
					0.007498699706047773,
					0.02217227593064308,
					1
				],
				"metallicFactor":0,
				"roughnessFactor":0.4000000059604645
			}
		},
		{
			"doubleSided":true,
			"name":"SVGMat.015",
			"pbrMetallicRoughness":{
				"baseColorFactor":[
					0,
					0.007498699706047773,
					0.02217227593064308,
					1
				],
				"metallicFactor":0,
				"roughnessFactor":0.4000000059604645
			}
		},
		{
			"doubleSided":true,
			"name":"SVGMat.016",
			"pbrMetallicRoughness":{
				"baseColorFactor":[
					0,
					0.007498699706047773,
					0.02217227593064308,
					1
				],
				"metallicFactor":0,
				"roughnessFactor":0.4000000059604645
			}
		},
		{
			"doubleSided":true,
			"name":"SVGMat.017",
			"pbrMetallicRoughness":{
				"baseColorFactor":[
					0.7759538888931274,
					0.008022738620638847,
					0.011611427180469036,
					1
				],
				"metallicFactor":0,
				"roughnessFactor":0.4000000059604645
			}
		},
		{
			"doubleSided":true,
			"name":"SVGMat.018",
			"pbrMetallicRoughness":{
				"baseColorFactor":[
					0.7759538888931274,
					0.008022738620638847,
					0.011611427180469036,
					1
				],
				"metallicFactor":0,
				"roughnessFactor":0.4000000059604645
			}
		},
		{
			"doubleSided":true,
			"name":"SVGMat.019",
			"pbrMetallicRoughness":{
				"baseColorFactor":[
					0.7759538888931274,
					0.008022738620638847,
					0.011611427180469036,
					1
				],
				"metallicFactor":0,
				"roughnessFactor":0.4000000059604645
			}
		},
		{
			"doubleSided":true,
			"name":"SVGMat.020",
			"pbrMetallicRoughness":{
				"baseColorFactor":[
					0.7759538888931274,
					0.008022738620638847,
					0.011611427180469036,
					1
				],
				"metallicFactor":0,
				"roughnessFactor":0.4000000059604645
			}
		},
		{
			"doubleSided":true,
			"name":"SVGMat.021",
			"pbrMetallicRoughness":{
				"baseColorFactor":[
					0,
					0.007498699706047773,
					0.02217227593064308,
					1
				],
				"metallicFactor":0,
				"roughnessFactor":0.4000000059604645
			}
		},
		{
			"doubleSided":true,
			"name":"SVGMat.022",
			"pbrMetallicRoughness":{
				"baseColorFactor":[
					0.7759538888931274,
					0.008022738620638847,
					0.011611427180469036,
					1
				],
				"metallicFactor":0,
				"roughnessFactor":0.4000000059604645
			}
		},
		{
			"doubleSided":true,
			"name":"SVGMat.023",
			"pbrMetallicRoughness":{
				"baseColorFactor":[
					0.003346469718962908,
					0.004024714231491089,
					0.006048708222806454,
					1
				],
				"metallicFactor":0,
				"roughnessFactor":0.4000000059604645
			}
		}
	],
	"meshes":[
		{
			"name":"path6240",
			"primitives":[
				{
					"attributes":{
						"POSITION":0,
						"NORMAL":1,
						"TEXCOORD_0":2
					},
					"indices":3,
					"material":0
				}
			]
		},
		{
			"name":"path6242",
			"primitives":[
				{
					"attributes":{
						"POSITION":4,
						"NORMAL":5,
						"TEXCOORD_0":6
					},
					"indices":3,
					"material":1
				}
			]
		},
		{
			"name":"path6244",
			"primitives":[
				{
					"attributes":{
						"POSITION":7,
						"NORMAL":8,
						"TEXCOORD_0":9
					},
					"indices":3,
					"material":2
				}
			]
		},
		{
			"name":"path6246",
			"primitives":[
				{
					"attributes":{
						"POSITION":10,
						"NORMAL":11,
						"TEXCOORD_0":12
					},
					"indices":13,
					"material":3
				}
			]
		},
		{
			"name":"path6248",
			"primitives":[
				{
					"attributes":{
						"POSITION":14,
						"NORMAL":15,
						"TEXCOORD_0":16
					},
					"indices":17,
					"material":4
				}
			]
		},
		{
			"name":"path6250",
			"primitives":[
				{
					"attributes":{
						"POSITION":18,
						"NORMAL":19,
						"TEXCOORD_0":20
					},
					"indices":21,
					"material":5
				}
			]
		},
		{
			"name":"path6252",
			"primitives":[
				{
					"attributes":{
						"POSITION":22,
						"NORMAL":23,
						"TEXCOORD_0":24
					},
					"indices":25,
					"material":6
				}
			]
		},
		{
			"name":"path6254",
			"primitives":[
				{
					"attributes":{
						"POSITION":26,
						"NORMAL":27,
						"TEXCOORD_0":28
					},
					"indices":29,
					"material":7
				}
			]
		},
		{
			"name":"path6256",
			"primitives":[
				{
					"attributes":{
						"POSITION":30,
						"NORMAL":31,
						"TEXCOORD_0":32
					},
					"indices":13,
					"material":8
				}
			]
		},
		{
			"name":"path6258",
			"primitives":[
				{
					"attributes":{
						"POSITION":33,
						"NORMAL":34,
						"TEXCOORD_0":35
					},
					"indices":36,
					"material":9
				}
			]
		},
		{
			"name":"ellipse6260",
			"primitives":[
				{
					"attributes":{
						"POSITION":37,
						"NORMAL":38,
						"TEXCOORD_0":39
					},
					"indices":40,
					"material":10
				}
			]
		}
	],
	"accessors":[
		{
			"bufferView":0,
			"componentType":5126,
			"count":14,
			"max":[
				0.01577112078666687,
				0.001500000013038516,
				-0.014927281066775322
			],
			"min":[
				0.007062462158501148,
				-0.001500000013038516,
				-0.02600104548037052
			],
			"type":"VEC3"
		},
		{
			"bufferView":1,
			"componentType":5126,
			"count":14,
			"type":"VEC3"
		},
		{
			"bufferView":2,
			"componentType":5126,
			"count":14,
			"type":"VEC2"
		},
		{
			"bufferView":3,
			"componentType":5123,
			"count":24,
			"type":"SCALAR"
		},
		{
			"bufferView":4,
			"componentType":5126,
			"count":14,
			"max":[
				0.023980000987648964,
				0.001500000013038516,
				-0.01433098129928112
			],
			"min":[
				0.01564725488424301,
				-0.001500000013038516,
				-0.027319258078932762
			],
			"type":"VEC3"
		},
		{
			"bufferView":5,
			"componentType":5126,
			"count":14,
			"type":"VEC3"
		},
		{
			"bufferView":6,
			"componentType":5126,
			"count":14,
			"type":"VEC2"
		},
		{
			"bufferView":7,
			"componentType":5126,
			"count":14,
			"max":[
				0.02676328644156456,
				0.001500000013038516,
				-0.01258392445743084
			],
			"min":[
				0.01646185666322708,
				-0.001500000013038516,
				-0.022122561931610107
			],
			"type":"VEC3"
		},
		{
			"bufferView":8,
			"componentType":5126,
			"count":14,
			"type":"VEC3"
		},
		{
			"bufferView":9,
			"componentType":5126,
			"count":14,
			"type":"VEC2"
		},
		{
			"bufferView":10,
			"componentType":5126,
			"count":14,
			"max":[
				0.012498598545789719,
				0.001500000013038516,
				-0.014407403767108917
			],
			"min":[
				3.4924596548080444e-10,
				-0.001500000013038516,
				-0.023256871849298477
			],
			"type":"VEC3"
		},
		{
			"bufferView":11,
			"componentType":5126,
			"count":14,
			"type":"VEC3"
		},
		{
			"bufferView":12,
			"componentType":5126,
			"count":14,
			"type":"VEC2"
		},
		{
			"bufferView":13,
			"componentType":5123,
			"count":24,
			"type":"SCALAR"
		},
		{
			"bufferView":14,
			"componentType":5126,
			"count":146,
			"max":[
				0.020920466631650925,
				0.001500000013038516,
				-0.0029822508804500103
			],
			"min":[
				0.01632750779390335,
				-0.001500000013038516,
				-0.007772471290081739
			],
			"type":"VEC3"
		},
		{
			"bufferView":15,
			"componentType":5126,
			"count":146,
			"type":"VEC3"
		},
		{
			"bufferView":16,
			"componentType":5126,
			"count":146,
			"type":"VEC2"
		},
		{
			"bufferView":17,
			"componentType":5123,
			"count":420,
			"type":"SCALAR"
		},
		{
			"bufferView":18,
			"componentType":5126,
			"count":102,
			"max":[
				0.009924144484102726,
				0.001500000013038516,
				-0.0028667428996413946
			],
			"min":[
				0.005167816299945116,
				-0.001500000013038516,
				-0.007689008489251137
			],
			"type":"VEC3"
		},
		{
			"bufferView":19,
			"componentType":5126,
			"count":102,
			"type":"VEC3"
		},
		{
			"bufferView":20,
			"componentType":5126,
			"count":102,
			"type":"VEC2"
		},
		{
			"bufferView":21,
			"componentType":5123,
			"count":288,
			"type":"SCALAR"
		},
		{
			"bufferView":22,
			"componentType":5126,
			"count":154,
			"max":[
				0.013429663144052029,
				0.001500000013038516,
				-0.002525573130697012
			],
			"min":[
				0.009426448494195938,
				-0.001500000013038516,
				-0.00982855074107647
			],
			"type":"VEC3"
		},
		{
			"bufferView":23,
			"componentType":5126,
			"count":154,
			"type":"VEC3"
		},
		{
			"bufferView":24,
			"componentType":5126,
			"count":154,
			"type":"VEC2"
		},
		{
			"bufferView":25,
			"componentType":5123,
			"count":444,
			"type":"SCALAR"
		},
		{
			"bufferView":26,
			"componentType":5126,
			"count":110,
			"max":[
				0.016819406300783157,
				0.001500000013038516,
				-0.002498198300600052
			],
			"min":[
				0.012545734643936157,
				-0.001500000013038516,
				-0.009952797554433346
			],
			"type":"VEC3"
		},
		{
			"bufferView":27,
			"componentType":5126,
			"count":110,
			"type":"VEC3"
		},
		{
			"bufferView":28,
			"componentType":5126,
			"count":110,
			"type":"VEC2"
		},
		{
			"bufferView":29,
			"componentType":5123,
			"count":312,
			"type":"SCALAR"
		},
		{
			"bufferView":30,
			"componentType":5126,
			"count":14,
			"max":[
				0.013854799792170525,
				0.001500000013038516,
				-0.004081676714122295
			],
			"min":[
				0.0006965389475226402,
				-0.001500000013038516,
				-0.01568993553519249
			],
			"type":"VEC3"
		},
		{
			"bufferView":31,
			"componentType":5126,
			"count":14,
			"type":"VEC3"
		},
		{
			"bufferView":32,
			"componentType":5126,
			"count":14,
			"type":"VEC2"
		},
		{
			"bufferView":33,
			"componentType":5126,
			"count":194,
			"max":[
				0.026422077789902687,
				0.001500000013038516,
				-0.007233443669974804
			],
			"min":[
				0.01636732928454876,
				-0.001500000013038516,
				-0.011418301612138748
			],
			"type":"VEC3"
		},
		{
			"bufferView":34,
			"componentType":5126,
			"count":194,
			"type":"VEC3"
		},
		{
			"bufferView":35,
			"componentType":5126,
			"count":194,
			"type":"VEC2"
		},
		{
			"bufferView":36,
			"componentType":5123,
			"count":564,
			"type":"SCALAR"
		},
		{
			"bufferView":37,
			"componentType":5126,
			"count":194,
			"max":[
				0.015496420674026012,
				0.001500000013038516,
				-0.010716869495809078
			],
			"min":[
				0.01212173979729414,
				-0.001500000013038516,
				-0.01419175323098898
			],
			"type":"VEC3"
		},
		{
			"bufferView":38,
			"componentType":5126,
			"count":194,
			"type":"VEC3"
		},
		{
			"bufferView":39,
			"componentType":5126,
			"count":194,
			"type":"VEC2"
		},
		{
			"bufferView":40,
			"componentType":5123,
			"count":564,
			"type":"SCALAR"
		}
	],
	"bufferViews":[
		{
			"buffer":0,
			"byteLength":168,
			"byteOffset":0,
			"target":34962
		},
		{
			"buffer":0,
			"byteLength":168,
			"byteOffset":168,
			"target":34962
		},
		{
			"buffer":0,
			"byteLength":112,
			"byteOffset":336,
			"target":34962
		},
		{
			"buffer":0,
			"byteLength":48,
			"byteOffset":448,
			"target":34963
		},
		{
			"buffer":0,
			"byteLength":168,
			"byteOffset":496,
			"target":34962
		},
		{
			"buffer":0,
			"byteLength":168,
			"byteOffset":664,
			"target":34962
		},
		{
			"buffer":0,
			"byteLength":112,
			"byteOffset":832,
			"target":34962
		},
		{
			"buffer":0,
			"byteLength":168,
			"byteOffset":944,
			"target":34962
		},
		{
			"buffer":0,
			"byteLength":168,
			"byteOffset":1112,
			"target":34962
		},
		{
			"buffer":0,
			"byteLength":112,
			"byteOffset":1280,
			"target":34962
		},
		{
			"buffer":0,
			"byteLength":168,
			"byteOffset":1392,
			"target":34962
		},
		{
			"buffer":0,
			"byteLength":168,
			"byteOffset":1560,
			"target":34962
		},
		{
			"buffer":0,
			"byteLength":112,
			"byteOffset":1728,
			"target":34962
		},
		{
			"buffer":0,
			"byteLength":48,
			"byteOffset":1840,
			"target":34963
		},
		{
			"buffer":0,
			"byteLength":1752,
			"byteOffset":1888,
			"target":34962
		},
		{
			"buffer":0,
			"byteLength":1752,
			"byteOffset":3640,
			"target":34962
		},
		{
			"buffer":0,
			"byteLength":1168,
			"byteOffset":5392,
			"target":34962
		},
		{
			"buffer":0,
			"byteLength":840,
			"byteOffset":6560,
			"target":34963
		},
		{
			"buffer":0,
			"byteLength":1224,
			"byteOffset":7400,
			"target":34962
		},
		{
			"buffer":0,
			"byteLength":1224,
			"byteOffset":8624,
			"target":34962
		},
		{
			"buffer":0,
			"byteLength":816,
			"byteOffset":9848,
			"target":34962
		},
		{
			"buffer":0,
			"byteLength":576,
			"byteOffset":10664,
			"target":34963
		},
		{
			"buffer":0,
			"byteLength":1848,
			"byteOffset":11240,
			"target":34962
		},
		{
			"buffer":0,
			"byteLength":1848,
			"byteOffset":13088,
			"target":34962
		},
		{
			"buffer":0,
			"byteLength":1232,
			"byteOffset":14936,
			"target":34962
		},
		{
			"buffer":0,
			"byteLength":888,
			"byteOffset":16168,
			"target":34963
		},
		{
			"buffer":0,
			"byteLength":1320,
			"byteOffset":17056,
			"target":34962
		},
		{
			"buffer":0,
			"byteLength":1320,
			"byteOffset":18376,
			"target":34962
		},
		{
			"buffer":0,
			"byteLength":880,
			"byteOffset":19696,
			"target":34962
		},
		{
			"buffer":0,
			"byteLength":624,
			"byteOffset":20576,
			"target":34963
		},
		{
			"buffer":0,
			"byteLength":168,
			"byteOffset":21200,
			"target":34962
		},
		{
			"buffer":0,
			"byteLength":168,
			"byteOffset":21368,
			"target":34962
		},
		{
			"buffer":0,
			"byteLength":112,
			"byteOffset":21536,
			"target":34962
		},
		{
			"buffer":0,
			"byteLength":2328,
			"byteOffset":21648,
			"target":34962
		},
		{
			"buffer":0,
			"byteLength":2328,
			"byteOffset":23976,
			"target":34962
		},
		{
			"buffer":0,
			"byteLength":1552,
			"byteOffset":26304,
			"target":34962
		},
		{
			"buffer":0,
			"byteLength":1128,
			"byteOffset":27856,
			"target":34963
		},
		{
			"buffer":0,
			"byteLength":2328,
			"byteOffset":28984,
			"target":34962
		},
		{
			"buffer":0,
			"byteLength":2328,
			"byteOffset":31312,
			"target":34962
		},
		{
			"buffer":0,
			"byteLength":1552,
			"byteOffset":33640,
			"target":34962
		},
		{
			"buffer":0,
			"byteLength":1128,
			"byteOffset":35192,
			"target":34963
		}
	],
	"buffers":[
		{
			"byteLength":36320,
			"uri":"scene.bin"
		}
	]
}
