{
  "accessors": [
    {
      "bufferView": 2,
      "componentType": 5126,
      "count": 222,
      "max": [
        0.4704590141773224,
        0.5,
        -0.41810500621795654
      ],
      "min": [
        -0.5,
        -0.5,
        -0.5
      ],
      "type": "VEC3"
    },
    {
      "bufferView": 2,
      "byteOffset": 2664,
      "componentType": 5126,
      "count": 222,
      "max": [
        0.9961581826210022,
        1.0,
        0.9999998211860657
      ],
      "min": [
        -0.9857775568962097,
        -1.0,
        -0.9999542832374573
      ],
      "type": "VEC3"
    },
    {
      "bufferView": 1,
      "componentType": 5126,
      "count": 222,
      "max": [
        0.9909470081329346,
        0.9966260194778442
      ],
      "min": [
        0.0037610530853271484,
        0.009109674952924252
      ],
      "type": "VEC2"
    },
    {
      "bufferView": 0,
      "componentType": 5125,
      "count": 348,
      "type": "SCALAR"
    },
    {
      "bufferView": 2,
      "byteOffset": 5328,
      "componentType": 5126,
      "count": 254,
      "max": [
        0.5,
        0.4982300102710724,
        0.5
      ],
      "min": [
        0.4330889880657196,
        -0.4983980059623718,
        -0.451445996761322
      ],
      "type": "VEC3"
    },
    {
      "bufferView": 2,
      "byteOffset": 8376,
      "componentType": 5126,
      "count": 254,
      "max": [
        0.9999957084655762,
        1.0,
        0.9911434650421143
      ],
      "min": [
        -0.9999998211860657,
        -1.0,
        -0.9953488111495972
      ],
      "type": "VEC3"
    },
    {
      "bufferView": 1,
      "byteOffset": 1776,
      "componentType": 5126,
      "count": 254,
      "max": [
        0.9993990063667297,
        0.9954559803009033
      ],
      "min": [
        0.011246380396187305,
        0.004543482791632414
      ],
      "type": "VEC2"
    },
    {
      "bufferView": 0,
      "byteOffset": 1392,
      "componentType": 5125,
      "count": 483,
      "type": "SCALAR"
    }
  ],
  "asset": {
    "extras": {
      "author": "𝕽𝖊𝖆𝖑 𝕾𝖑𝖎𝖒 𝕾𝖍𝖆𝖉𝖞 (https://sketchfab.com/real_slimshady)",
      "license": "CC-BY-4.0 (http://creativecommons.org/licenses/by/4.0/)",
      "source": "https://sketchfab.com/3d-models/laptop-3d-model-ba56c75ff9f4430da10cd3d283da7358",
      "title": "Laptop 3D Model"
    },
    "generator": "Sketchfab-15.87.0",
    "version": "2.0"
  },
  "bufferViews": [
    {
      "buffer": 0,
      "byteLength": 3324,
      "name": "floatBufferViews",
      "target": 34963
    },
    {
      "buffer": 0,
      "byteLength": 3808,
      "byteOffset": 3324,
      "byteStride": 8,
      "name": "floatBufferViews",
      "target": 34962
    },
    {
      "buffer": 0,
      "byteLength": 11424,
      "byteOffset": 7132,
      "byteStride": 12,
      "name": "floatBufferViews",
      "target": 34962
    }
  ],
  "buffers": [
    {
      "byteLength": 18556,
      "uri": "scene.bin"
    }
  ],
  "images": [
    {
      "uri": "textures/Material19-material_baseColor.png"
    },
    {
      "uri": "textures/Material20-material_baseColor.png"
    }
  ],
  "materials": [
    {
      "doubleSided": true,
      "emissiveFactor": [
        1.0,
        1.0,
        1.0
      ],
      "emissiveTexture": {
        "index": 0
      },
      "name": "Material19-material",
      "pbrMetallicRoughness": {
        "baseColorTexture": {
          "index": 0
        },
        "metallicFactor": 0.0,
        "roughnessFactor": 0.6
      }
    },
    {
      "doubleSided": true,
      "emissiveFactor": [
        1.0,
        1.0,
        1.0
      ],
      "emissiveTexture": {
        "index": 1
      },
      "name": "Material20-material",
      "pbrMetallicRoughness": {
        "baseColorTexture": {
          "index": 1
        },
        "metallicFactor": 0.0,
        "roughnessFactor": 0.6
      }
    }
  ],
  "meshes": [
    {
      "name": "Material19-material-material",
      "primitives": [
        {
          "attributes": {
            "NORMAL": 1,
            "POSITION": 0,
            "TEXCOORD_0": 2
          },
          "indices": 3,
          "material": 0,
          "mode": 4
        }
      ]
    },
    {
      "name": "Material20-material-material",
      "primitives": [
        {
          "attributes": {
            "NORMAL": 5,
            "POSITION": 4,
            "TEXCOORD_0": 6
          },
          "indices": 7,
          "material": 1,
          "mode": 4
        }
      ]
    }
  ],
  "nodes": [
    {
      "children": [
        1
      ],
      "matrix": [
        1.0,
        0.0,
        0.0,
        0.0,
        0.0,
        2.220446049250313e-16,
        -1.0,
        0.0,
        0.0,
        1.0,
        2.220446049250313e-16,
        0.0,
        0.0,
        0.0,
        0.0,
        1.0
      ],
      "name": "Sketchfab_model"
    },
    {
      "children": [
        2
      ],
      "name": "Collada visual scene group"
    },
    {
      "children": [
        3,
        4
      ],
      "matrix": [
        -0.288435,
        -2.52158e-08,
        0.0,
        0.0,
        3.60528e-08,
        -0.412396,
        0.0,
        0.0,
        0.0,
        0.0,
        0.295287,
        0.0,
        -0.004968315,
        0.0440979,
        0.1496322,
        1.0
      ],
      "name": "prim13"
    },
    {
      "mesh": 0,
      "name": "Material19-material-material"
    },
    {
      "mesh": 1,
      "name": "Material20-material-material"
    }
  ],
  "samplers": [
    {
      "magFilter": 9729,
      "minFilter": 9987,
      "wrapS": 10497,
      "wrapT": 10497
    }
  ],
  "scene": 0,
  "scenes": [
    {
      "name": "Sketchfab_Scene",
      "nodes": [
        0
      ]
    }
  ],
  "textures": [
    {
      "sampler": 0,
      "source": 0
    },
    {
      "sampler": 0,
      "source": 1
    }
  ]
}
