{
	"asset":{
		"generator":"Khronos glTF Blender I/O v4.0.44",
		"version":"2.0"
	},
	"scene":0,
	"scenes":[
		{
			"name":"Scene",
			"nodes":[
				0,
				1,
				2,
				3,
				4,
				5,
				6,
				7,
				8,
				9,
				10,
				11,
				12,
				13
			]
		}
	],
	"nodes":[
		{
			"mesh":0,
			"name":"Curve",
			"scale":[
				31.483083724975586,
				31.483083724975586,
				31.483083724975586
			],
			"translation":[
				0,
				-0.03904309496283531,
				0
			]
		},
		{
			"name":"Curve.001",
			"scale":[
				31.483083724975586,
				31.483083724975586,
				31.483083724975586
			],
			"translation":[
				0,
				0.0035322352778166533,
				0
			]
		},
		{
			"mesh":1,
			"name":"Curve.002",
			"scale":[
				31.483083724975586,
				31.483083724975586,
				31.483083724975586
			],
			"translation":[
				0,
				0.0035322352778166533,
				0
			]
		},
		{
			"mesh":2,
			"name":"Curve.003",
			"scale":[
				31.483083724975586,
				31.483083724975586,
				31.483083724975586
			],
			"translation":[
				0,
				0.0035322352778166533,
				0
			]
		},
		{
			"mesh":3,
			"name":"Curve.004",
			"scale":[
				31.483083724975586,
				31.483083724975586,
				31.483083724975586
			],
			"translation":[
				0,
				0.0035322352778166533,
				0
			]
		},
		{
			"name":"Curve.005",
			"scale":[
				31.483083724975586,
				31.483083724975586,
				31.483083724975586
			],
			"translation":[
				0,
				0.0035322352778166533,
				0
			]
		},
		{
			"mesh":4,
			"name":"Curve.006",
			"scale":[
				31.483083724975586,
				31.483083724975586,
				31.483083724975586
			],
			"translation":[
				0,
				0.0035322352778166533,
				0
			]
		},
		{
			"mesh":5,
			"name":"Curve.007",
			"scale":[
				31.483083724975586,
				31.483083724975586,
				31.483083724975586
			],
			"translation":[
				0,
				0.0035322352778166533,
				0
			]
		},
		{
			"mesh":6,
			"name":"Curve.008",
			"scale":[
				31.483083724975586,
				31.483083724975586,
				31.483083724975586
			],
			"translation":[
				0,
				0.0035322352778166533,
				0
			]
		},
		{
			"mesh":7,
			"name":"Curve.009",
			"scale":[
				31.483083724975586,
				31.483083724975586,
				31.483083724975586
			],
			"translation":[
				0,
				0.0035322352778166533,
				0
			]
		},
		{
			"mesh":8,
			"name":"Curve.010",
			"scale":[
				31.483083724975586,
				31.483083724975586,
				31.483083724975586
			],
			"translation":[
				0,
				0.0035322352778166533,
				0
			]
		},
		{
			"mesh":9,
			"name":"Curve.011",
			"scale":[
				31.483083724975586,
				31.483083724975586,
				31.483083724975586
			],
			"translation":[
				0,
				-0.004965977743268013,
				0
			]
		},
		{
			"mesh":10,
			"name":"Curve.012",
			"scale":[
				31.483083724975586,
				31.483083724975586,
				31.483083724975586
			],
			"translation":[
				0,
				0.0035322352778166533,
				0
			]
		},
		{
			"mesh":11,
			"name":"Curve.013",
			"scale":[
				31.483083724975586,
				31.483083724975586,
				31.483083724975586
			],
			"translation":[
				0,
				0.0035322352778166533,
				0
			]
		}
	],
	"materials":[
		{
			"doubleSided":true,
			"name":"SVGMat",
			"pbrMetallicRoughness":{
				"baseColorFactor":[
					1,
					1,
					1,
					1
				],
				"metallicFactor":0,
				"roughnessFactor":0.4000000059604645
			}
		},
		{
			"doubleSided":true,
			"name":"SVGMat.001",
			"pbrMetallicRoughness":{
				"baseColorFactor":[
					0.008568125776946545,
					0.024157632142305374,
					0.07421357184648514,
					1
				],
				"metallicFactor":0,
				"roughnessFactor":0.4000000059604645
			}
		},
		{
			"doubleSided":true,
			"name":"SVGMat.002",
			"pbrMetallicRoughness":{
				"baseColorFactor":[
					0.008568125776946545,
					0.024157632142305374,
					0.07421357184648514,
					1
				],
				"metallicFactor":0,
				"roughnessFactor":0.4000000059604645
			}
		},
		{
			"doubleSided":true,
			"name":"SVGMat.003",
			"pbrMetallicRoughness":{
				"baseColorFactor":[
					0.26635560393333435,
					0.31398871541023254,
					0.40724021196365356,
					1
				],
				"metallicFactor":0,
				"roughnessFactor":0.4000000059604645
			}
		},
		{
			"doubleSided":true,
			"name":"SVGMat.004",
			"pbrMetallicRoughness":{
				"baseColorFactor":[
					0.26635560393333435,
					0.31398871541023254,
					0.40724021196365356,
					1
				],
				"metallicFactor":0,
				"roughnessFactor":0.4000000059604645
			}
		},
		{
			"doubleSided":true,
			"name":"SVGMat.005",
			"pbrMetallicRoughness":{
				"baseColorFactor":[
					0.0027317428030073643,
					0.012983032502233982,
					0.05448027700185776,
					1
				],
				"metallicFactor":0,
				"roughnessFactor":0.4000000059604645
			}
		},
		{
			"doubleSided":true,
			"name":"SVGMat.006",
			"pbrMetallicRoughness":{
				"baseColorFactor":[
					0.0036765073891729116,
					0.13286831974983215,
					0.7758222222328186,
					1
				],
				"metallicFactor":0,
				"roughnessFactor":0.4000000059604645
			}
		},
		{
			"doubleSided":true,
			"name":"SVGMat.007",
			"pbrMetallicRoughness":{
				"baseColorFactor":[
					0.26635560393333435,
					0.31398871541023254,
					0.40724021196365356,
					1
				],
				"metallicFactor":0,
				"roughnessFactor":0.4000000059604645
			}
		},
		{
			"doubleSided":true,
			"name":"SVGMat.008",
			"pbrMetallicRoughness":{
				"baseColorFactor":[
					0.0036765073891729116,
					0.13286831974983215,
					0.7758222222328186,
					1
				],
				"metallicFactor":0,
				"roughnessFactor":0.4000000059604645
			}
		},
		{
			"doubleSided":true,
			"name":"SVGMat.009",
			"pbrMetallicRoughness":{
				"baseColorFactor":[
					0.0027317428030073643,
					0.012983032502233982,
					0.05448027700185776,
					1
				],
				"metallicFactor":0,
				"roughnessFactor":0.4000000059604645
			}
		}
	],
	"meshes":[
		{
			"name":"Curve",
			"primitives":[
				{
					"attributes":{
						"POSITION":0,
						"NORMAL":1,
						"TEXCOORD_0":2
					},
					"indices":3,
					"material":0
				}
			]
		},
		{
			"name":"Curve.002",
			"primitives":[
				{
					"attributes":{
						"POSITION":4,
						"NORMAL":5,
						"TEXCOORD_0":6
					},
					"indices":7,
					"material":1
				}
			]
		},
		{
			"name":"Curve.003",
			"primitives":[
				{
					"attributes":{
						"POSITION":8,
						"NORMAL":9,
						"TEXCOORD_0":10
					},
					"indices":11,
					"material":2
				}
			]
		},
		{
			"name":"Curve.004",
			"primitives":[
				{
					"attributes":{
						"POSITION":12,
						"NORMAL":13,
						"TEXCOORD_0":14
					},
					"indices":3,
					"material":0
				}
			]
		},
		{
			"name":"Curve.006",
			"primitives":[
				{
					"attributes":{
						"POSITION":15,
						"NORMAL":16,
						"TEXCOORD_0":17
					},
					"indices":18,
					"material":3
				}
			]
		},
		{
			"name":"Curve.007",
			"primitives":[
				{
					"attributes":{
						"POSITION":19,
						"NORMAL":20,
						"TEXCOORD_0":21
					},
					"indices":18,
					"material":4
				}
			]
		},
		{
			"name":"Curve.008",
			"primitives":[
				{
					"attributes":{
						"POSITION":22,
						"NORMAL":23,
						"TEXCOORD_0":24
					},
					"indices":25,
					"material":5
				}
			]
		},
		{
			"name":"Curve.009",
			"primitives":[
				{
					"attributes":{
						"POSITION":26,
						"NORMAL":27,
						"TEXCOORD_0":28
					},
					"indices":29,
					"material":6
				}
			]
		},
		{
			"name":"Curve.010",
			"primitives":[
				{
					"attributes":{
						"POSITION":30,
						"NORMAL":31,
						"TEXCOORD_0":32
					},
					"indices":18,
					"material":7
				}
			]
		},
		{
			"name":"Curve.011",
			"primitives":[
				{
					"attributes":{
						"POSITION":33,
						"NORMAL":34,
						"TEXCOORD_0":35
					},
					"indices":3,
					"material":8
				}
			]
		},
		{
			"name":"Curve.012",
			"primitives":[
				{
					"attributes":{
						"POSITION":36,
						"NORMAL":37,
						"TEXCOORD_0":38
					},
					"indices":3,
					"material":9
				}
			]
		},
		{
			"name":"Curve.013",
			"primitives":[
				{
					"attributes":{
						"POSITION":39,
						"NORMAL":40,
						"TEXCOORD_0":41
					},
					"indices":42,
					"material":0
				}
			]
		}
	],
	"accessors":[
		{
			"bufferView":0,
			"componentType":5126,
			"count":210,
			"max":[
				0.02257823944091797,
				0.0010000000474974513,
				0
			],
			"min":[
				0,
				-0.0010000000474974513,
				-0.013544082641601562
			],
			"type":"VEC3"
		},
		{
			"bufferView":1,
			"componentType":5126,
			"count":210,
			"type":"VEC3"
		},
		{
			"bufferView":2,
			"componentType":5126,
			"count":210,
			"type":"VEC2"
		},
		{
			"bufferView":3,
			"componentType":5123,
			"count":612,
			"type":"SCALAR"
		},
		{
			"bufferView":4,
			"componentType":5126,
			"count":298,
			"max":[
				0.018627047538757324,
				0.001500000013038516,
				-0.006772041320800781
			],
			"min":[
				0.012700259685516357,
				-0.001500000013038516,
				-0.00733637809753418
			],
			"type":"VEC3"
		},
		{
			"bufferView":5,
			"componentType":5126,
			"count":298,
			"type":"VEC3"
		},
		{
			"bufferView":6,
			"componentType":5126,
			"count":298,
			"type":"VEC2"
		},
		{
			"bufferView":7,
			"componentType":5123,
			"count":852,
			"type":"SCALAR"
		},
		{
			"bufferView":8,
			"componentType":5126,
			"count":290,
			"max":[
				0.018627047538757324,
				0.001500000013038516,
				-0.004796862602233887
			],
			"min":[
				0.018062591552734375,
				-0.001500000013038516,
				-0.00733637809753418
			],
			"type":"VEC3"
		},
		{
			"bufferView":9,
			"componentType":5126,
			"count":290,
			"type":"VEC3"
		},
		{
			"bufferView":10,
			"componentType":5126,
			"count":290,
			"type":"VEC2"
		},
		{
			"bufferView":11,
			"componentType":5123,
			"count":852,
			"type":"SCALAR"
		},
		{
			"bufferView":12,
			"componentType":5126,
			"count":210,
			"max":[
				0.014393627643585205,
				0.0012000000569969416,
				-0.002539515495300293
			],
			"min":[
				0.0031045079231262207,
				-0.0012000000569969416,
				-0.011568903923034668
			],
			"type":"VEC3"
		},
		{
			"bufferView":13,
			"componentType":5126,
			"count":210,
			"type":"VEC3"
		},
		{
			"bufferView":14,
			"componentType":5126,
			"count":210,
			"type":"VEC2"
		},
		{
			"bufferView":15,
			"componentType":5126,
			"count":202,
			"max":[
				0.012982487678527832,
				0.001500000013038516,
				-0.00733637809753418
			],
			"min":[
				0.010724663734436035,
				-0.001500000013038516,
				-0.007900714874267578
			],
			"type":"VEC3"
		},
		{
			"bufferView":16,
			"componentType":5126,
			"count":202,
			"type":"VEC3"
		},
		{
			"bufferView":17,
			"componentType":5126,
			"count":202,
			"type":"VEC2"
		},
		{
			"bufferView":18,
			"componentType":5123,
			"count":588,
			"type":"SCALAR"
		},
		{
			"bufferView":19,
			"componentType":5126,
			"count":202,
			"max":[
				0.012700259685516357,
				0.001500000013038516,
				-0.004232525825500488
			],
			"min":[
				0.004515647888183594,
				-0.001500000013038516,
				-0.004796862602233887
			],
			"type":"VEC3"
		},
		{
			"bufferView":20,
			"componentType":5126,
			"count":202,
			"type":"VEC3"
		},
		{
			"bufferView":21,
			"componentType":5126,
			"count":202,
			"type":"VEC2"
		},
		{
			"bufferView":22,
			"componentType":5126,
			"count":210,
			"max":[
				0.009008962661027908,
				0.001500000013038516,
				-0.006512244697660208
			],
			"min":[
				0.006037657614797354,
				-0.001500000013038516,
				-0.009482922032475471
			],
			"type":"VEC3"
		},
		{
			"bufferView":23,
			"componentType":5126,
			"count":210,
			"type":"VEC3"
		},
		{
			"bufferView":24,
			"componentType":5126,
			"count":210,
			"type":"VEC2"
		},
		{
			"bufferView":25,
			"componentType":5123,
			"count":612,
			"type":"SCALAR"
		},
		{
			"bufferView":26,
			"componentType":5126,
			"count":210,
			"max":[
				0.007597823161631823,
				0.001500000013038516,
				-0.0070765819400548935
			],
			"min":[
				0.004626518115401268,
				-0.001500000013038516,
				-0.010047259740531445
			],
			"type":"VEC3"
		},
		{
			"bufferView":27,
			"componentType":5126,
			"count":210,
			"type":"VEC3"
		},
		{
			"bufferView":28,
			"componentType":5126,
			"count":210,
			"type":"VEC2"
		},
		{
			"bufferView":29,
			"componentType":5123,
			"count":612,
			"type":"SCALAR"
		},
		{
			"bufferView":30,
			"componentType":5126,
			"count":202,
			"max":[
				0.012700259685516357,
				0.001500000013038516,
				-0.005361199378967285
			],
			"min":[
				0.004515647888183594,
				-0.001500000013038516,
				-0.005925536155700684
			],
			"type":"VEC3"
		},
		{
			"bufferView":31,
			"componentType":5126,
			"count":202,
			"type":"VEC3"
		},
		{
			"bufferView":32,
			"componentType":5126,
			"count":202,
			"type":"VEC2"
		},
		{
			"bufferView":33,
			"componentType":5126,
			"count":210,
			"max":[
				0.020038187503814697,
				0.001500000013038516,
				-0.003950357437133789
			],
			"min":[
				0.0177803635597229,
				-0.001500000013038516,
				-0.006207704544067383
			],
			"type":"VEC3"
		},
		{
			"bufferView":34,
			"componentType":5126,
			"count":210,
			"type":"VEC3"
		},
		{
			"bufferView":35,
			"componentType":5126,
			"count":210,
			"type":"VEC2"
		},
		{
			"bufferView":36,
			"componentType":5126,
			"count":210,
			"max":[
				0.0189092755317688,
				0.001500000013038516,
				-0.002821683883666992
			],
			"min":[
				0.016651451587677002,
				-0.001500000013038516,
				-0.005079030990600586
			],
			"type":"VEC3"
		},
		{
			"bufferView":37,
			"componentType":5126,
			"count":210,
			"type":"VEC3"
		},
		{
			"bufferView":38,
			"componentType":5126,
			"count":210,
			"type":"VEC2"
		},
		{
			"bufferView":39,
			"componentType":5126,
			"count":48,
			"max":[
				0.0063924640417099,
				0,
				-0.008844088762998581
			],
			"min":[
				0.005828008055686951,
				0,
				-0.00940842553973198
			],
			"type":"VEC3"
		},
		{
			"bufferView":40,
			"componentType":5126,
			"count":48,
			"type":"VEC3"
		},
		{
			"bufferView":41,
			"componentType":5126,
			"count":48,
			"type":"VEC2"
		},
		{
			"bufferView":42,
			"componentType":5123,
			"count":138,
			"type":"SCALAR"
		}
	],
	"bufferViews":[
		{
			"buffer":0,
			"byteLength":2520,
			"byteOffset":0,
			"target":34962
		},
		{
			"buffer":0,
			"byteLength":2520,
			"byteOffset":2520,
			"target":34962
		},
		{
			"buffer":0,
			"byteLength":1680,
			"byteOffset":5040,
			"target":34962
		},
		{
			"buffer":0,
			"byteLength":1224,
			"byteOffset":6720,
			"target":34963
		},
		{
			"buffer":0,
			"byteLength":3576,
			"byteOffset":7944,
			"target":34962
		},
		{
			"buffer":0,
			"byteLength":3576,
			"byteOffset":11520,
			"target":34962
		},
		{
			"buffer":0,
			"byteLength":2384,
			"byteOffset":15096,
			"target":34962
		},
		{
			"buffer":0,
			"byteLength":1704,
			"byteOffset":17480,
			"target":34963
		},
		{
			"buffer":0,
			"byteLength":3480,
			"byteOffset":19184,
			"target":34962
		},
		{
			"buffer":0,
			"byteLength":3480,
			"byteOffset":22664,
			"target":34962
		},
		{
			"buffer":0,
			"byteLength":2320,
			"byteOffset":26144,
			"target":34962
		},
		{
			"buffer":0,
			"byteLength":1704,
			"byteOffset":28464,
			"target":34963
		},
		{
			"buffer":0,
			"byteLength":2520,
			"byteOffset":30168,
			"target":34962
		},
		{
			"buffer":0,
			"byteLength":2520,
			"byteOffset":32688,
			"target":34962
		},
		{
			"buffer":0,
			"byteLength":1680,
			"byteOffset":35208,
			"target":34962
		},
		{
			"buffer":0,
			"byteLength":2424,
			"byteOffset":36888,
			"target":34962
		},
		{
			"buffer":0,
			"byteLength":2424,
			"byteOffset":39312,
			"target":34962
		},
		{
			"buffer":0,
			"byteLength":1616,
			"byteOffset":41736,
			"target":34962
		},
		{
			"buffer":0,
			"byteLength":1176,
			"byteOffset":43352,
			"target":34963
		},
		{
			"buffer":0,
			"byteLength":2424,
			"byteOffset":44528,
			"target":34962
		},
		{
			"buffer":0,
			"byteLength":2424,
			"byteOffset":46952,
			"target":34962
		},
		{
			"buffer":0,
			"byteLength":1616,
			"byteOffset":49376,
			"target":34962
		},
		{
			"buffer":0,
			"byteLength":2520,
			"byteOffset":50992,
			"target":34962
		},
		{
			"buffer":0,
			"byteLength":2520,
			"byteOffset":53512,
			"target":34962
		},
		{
			"buffer":0,
			"byteLength":1680,
			"byteOffset":56032,
			"target":34962
		},
		{
			"buffer":0,
			"byteLength":1224,
			"byteOffset":57712,
			"target":34963
		},
		{
			"buffer":0,
			"byteLength":2520,
			"byteOffset":58936,
			"target":34962
		},
		{
			"buffer":0,
			"byteLength":2520,
			"byteOffset":61456,
			"target":34962
		},
		{
			"buffer":0,
			"byteLength":1680,
			"byteOffset":63976,
			"target":34962
		},
		{
			"buffer":0,
			"byteLength":1224,
			"byteOffset":65656,
			"target":34963
		},
		{
			"buffer":0,
			"byteLength":2424,
			"byteOffset":66880,
			"target":34962
		},
		{
			"buffer":0,
			"byteLength":2424,
			"byteOffset":69304,
			"target":34962
		},
		{
			"buffer":0,
			"byteLength":1616,
			"byteOffset":71728,
			"target":34962
		},
		{
			"buffer":0,
			"byteLength":2520,
			"byteOffset":73344,
			"target":34962
		},
		{
			"buffer":0,
			"byteLength":2520,
			"byteOffset":75864,
			"target":34962
		},
		{
			"buffer":0,
			"byteLength":1680,
			"byteOffset":78384,
			"target":34962
		},
		{
			"buffer":0,
			"byteLength":2520,
			"byteOffset":80064,
			"target":34962
		},
		{
			"buffer":0,
			"byteLength":2520,
			"byteOffset":82584,
			"target":34962
		},
		{
			"buffer":0,
			"byteLength":1680,
			"byteOffset":85104,
			"target":34962
		},
		{
			"buffer":0,
			"byteLength":576,
			"byteOffset":86784,
			"target":34962
		},
		{
			"buffer":0,
			"byteLength":576,
			"byteOffset":87360,
			"target":34962
		},
		{
			"buffer":0,
			"byteLength":384,
			"byteOffset":87936,
			"target":34962
		},
		{
			"buffer":0,
			"byteLength":276,
			"byteOffset":88320,
			"target":34963
		}
	],
	"buffers":[
		{
			"byteLength":88596,
			"uri":"sin_nombre.bin"
		}
	]
}
