<svg xmlns="http://www.w3.org/2000/svg" fill="none" viewBox="0 0 698 701"><ellipse cx="348.5" cy="350.5" fill="#0a2540" rx="348.5" ry="350.5"/><path fill="#0f3257" d="M517.5 662.2a439 439 0 0 0 29-14.6L291.99 350 489 674.08a479 479 0 0 0 28.5-11.88"/><path fill="#0a2540" d="M649.02 551A444 444 0 0 0 667 518c6.09-13.7 11-26.03 14.95-38L292 350z"/><path fill="#0f3257" d="M295.5 695.42a618 618 0 0 0 31.99 4.58 449 449 0 0 0 35.51.89L291.99 350z"/><path fill="#0a2540" d="M136 628.96c8.2 5.77 15.99 10.8 24 15.48a336 336 0 0 0 24 12.66L291.99 350zM48.99 531l243-181L24.77 479.5a276 276 0 0 0 9.74 23.5c4.07 8.7 8.8 17.79 14.48 28m243-181-287-19c-.81 8.06-1.39 15.4-1.7 22.36-.38 8.2-.4 15.9 0 23.64z"/><path fill="#0a2540" d="M291.99 350 3.29 377c.4 8.21 1.27 16.48 2.62 25.5A482 482 0 0 0 11 430c2.02 8.95 3.97 17 6 24.5 2.41 8.95 4.93 17.1 7.79 25zm0 0-243 181c4.87 7.94 9.36 15 13.72 21.5A328 328 0 0 0 79.94 576a315 315 0 0 0 14.33 16.5c5.85 6.3 12.3 12.82 19.72 20A545 545 0 0 0 136 628.96zM184 657.1c8.7 4.18 18.18 8.37 28.99 12.9A536 536 0 0 0 240 680.7a323 323 0 0 0 28 8.78c8.9 2.34 17.86 4.25 27.5 5.93L291.99 350zm179 43.79c10.92-.2 21-.92 31-2.16 9.7-1.2 19.31-2.88 29.5-5.06a721 721 0 0 0 33.49-8.17A868 868 0 0 0 489 674.08L291.99 350zm183.5-53.29a725 725 0 0 0 32.49-19.1c11.96-9.98 22.13-19.02 31.14-28A256 256 0 0 0 631.9 576a264 264 0 0 0 17.12-25L292 350z"/><path fill="#0a2540" d="M681.94 480a270 270 0 0 0 9.55-37.5 348 348 0 0 0 4.2-33c.84-9.96 1.4-20.68 1.8-32.5-.3-11.43-.7-21.8-1.24-31.5L291.99 350z"/><path fill="#0a2540" d="m679.99 238-388 112 404.26-4.5a573 573 0 0 0-3-35 520 520 0 0 0-4.18-28.5 852 852 0 0 0-9.08-44"/><circle cx="310.5" cy="378.5" r="132.5" fill="#0a2540" style="mix-blend-mode:plus-darker"/><circle cx="311" cy="379" r="237" fill="#0a2540" opacity=".6" style="mix-blend-mode:hard-light"/><path fill="#1f6f57" fill-rule="evenodd" d="M342.42 494.73q.05-.99-.04-1.56c-.05-.4-.15-.54-.16-.56-.75-.82-2.13-1.23-4.44-1.51-2.18-.27-5.1-.43-8.22-1-6.96-1.26-11.15-1.06-14.18-.37-1.52.34-2.78.82-4 1.33-1.18.5-2.4 1.07-3.71 1.53-2.11.74-4.18 2.02-6.47 3.64q-1.54 1.1-3.2 2.35l-.37.28a165 165 0 0 1-4 2.9c-3.37 2.36-5.76 5.76-7.83 8.13-1 1.14-2.07 2.28-3.13 3.4v.01q-1.6 1.7-3.08 3.36c-3.1 3.55-7.97 9.19-11.06 13.03a18 18 0 0 0-2.54 4.36c-.58 1.35-1.12 2.77-2.04 4.06a28 28 0 0 0-2.41 4.39c-.8 1.66-1.65 3.52-2.8 5.5-2.2 3.74-4.17 6.72-6.25 9.66-1.47 2.07-2.7 4.07-4.11 6l-.62.81-.14.18-.2.1c-1.4.7-2.74 1.32-3.78 1.84q-.93.45-1.64.86c3.14-.02 8.1-.06 14.55-.17 11.96-.2 19.7-1.67 24.53-3.06 4.03-1.15 10.35-3.41 15.25-6.55a64 64 0 0 0 10.56-8.76c2.99-2.98 5.65-5.93 8.03-7.97 6.06-5.21 11.51-12.16 15.27-17.05a81 81 0 0 0 7.09-10.62c3.28-5.73 3.83-9.24 4.48-13.4l.01-.07c.32-2.04.58-3.76.65-5.07m118.78 141c.2-2.63-.1-5.56-2.26-12.37-1.75-5.52-4.79-10.23-6.27-12.42a47 47 0 0 0-2.56-3.34c-.9-1.1-1.84-2.24-2.69-3.4-1.93-2.68-4.8-5.69-7.18-8.39-2.1-2.4-3.83-4.95-5.68-7.4-2.14-2.8-3.65-5.18-5.72-7.1-2.62-2.44-5.4-4.86-8.16-7.32-2.44-2.17-6.52-4.67-11.03-6.7-2.34-1.05-4.9-1.76-7.4-2.51-2.43-.74-4.84-1.53-6.66-2.74-1.35-.9-2.49-1.76-3.6-2.35-1.08-.57-1.75-.64-2.21-.42l-.03.06q-.06.12-.04.23c.09.48.25.95.44 1.62.18.63.37 1.37.42 2.25.3 4.62.37 13.55 1.13 20.45.48 4.34.9 8.08 1.76 11.52.48 1.9 1.29 5.35 2.3 8.88 1.02 3.56 2.22 7.09 3.43 9.2 1.7 2.93 3.2 5.67 6.25 8.07 1.56 1.24 3 2.51 4.33 3.62a27 27 0 0 0 4 2.87c1.2.68 2.4 1.53 3.55 2.26 1.18.75 2.43 1.46 3.93 2 6.25 2.28 9.04 3.49 13.71 3.6 5.87.15 9.94.31 12.81.44 2.9.13 4.55.22 5.64.22a1 1 0 0 1 .76.35l.38-.05c.55-.08 1.01-.15 1.62-.2h.05c1.41-.05 2.6-.12 3.52-.32.77-.16 1.2-.38 1.45-.61m8.01 29.99-.4-.92q-.4-.74-.98-1.59l-.02-.02-.01-.03a327 327 0 0 1-5.1-9.06c-.68-1.27-1.26-2.48-1.96-3.6a10 10 0 0 0-2.36-2.74c-1.18-.87-2.09-1.66-3.17-2.4a8 8 0 0 0-3.07-1.36 49 49 0 0 0-6.97-.58c-2.48-.03-4.74.14-6.12.56-2.94.88-8 1.86-13.3 4.45a34 34 0 0 0-9.6 6.76c-3.25 3.36-5.56 5.37-7.44 8.81-.43.78-.94 1.54-1.44 2.26q-.77 1.08-1.44 2.1c-.86 1.34-1.36 2.48-1.33 3.58l.32.2q.66.3 2.1.57c1.9.33 4.63.45 7.9.15 2.52-.24 4.87-.57 7.1-.87s4.34-.56 6.3-.64a75 75 0 0 0 8.89-.87c2.32-.35 4.24-.71 5.74-.82 3.97-.29 9.64-.62 16.44-1.87 3.42-.63 7.75-1.35 10.13-1.58zm44.05-6.99c-.29-15.75-.85-19.45-1.58-22.9-.3-1.4-.38-3.03-.5-4.58a20 20 0 0 0-.79-4.62c-1.11-3.44-2.22-6.03-3.17-8.29a43 43 0 0 0-1.5-3.1l-.1-.2a46 46 0 0 1-1.79-3.76c-.95-2.33-1.76-4.6-2.5-6.56a39 39 0 0 0-2.05-4.8 89 89 0 0 1-4.48-9.9c-.55-1.43-1.4-3.3-2.43-5.6l-.04-.08c-1.02-2.26-2.2-4.9-3.44-7.84-1.24-2.95-2.4-5.88-3.56-8.43a50 50 0 0 0-3.99-6.82c-.8-1.14-1.53-2-2.06-2.42-.84 2.62-1.22 5.04-1.75 7.45l-.81 3.63q-.45 1.95-.88 3.92a51 51 0 0 0-1.1 6.5c-.57 9.4-.3 23.51.28 27.86a76 76 0 0 0 5.76 19.85c4.44 9.9 6.36 14.47 8.48 17.7a66 66 0 0 0 5.31 6.94c1.73 2.03 3.46 4.02 5.2 6.58a67 67 0 0 0 4.13 5.4c1.24 1.48 2.4 2.79 3.35 4.03a1 1 0 0 1 .2.74l.3.01.77.14.5.08h.06l.12-.24.17-.45q.09-.26.22-.55l.02-.04.02-.05c1.52-2.74 3.72-4.94 3.63-9.6M534.1 499.6s-.02-.08-.14-.23c-.1-.13-.26-.25-.54-.48-.25-.2-.61-.48-.9-.87-1.54-2.1-3.49-4.36-4.64-7.5-.5-1.36-1.11-2.65-1.73-4.05a33 33 0 0 1-1.68-4.48c-.85-3.04-1.73-6.03-2.93-8.25a21 21 0 0 1-.9-2q-.38-.92-.77-1.73c-.57-1.13-1.23-1.96-2.26-2.4l-.16-.07c-2.57-1.1-6.16-2.64-13.48-2.77-5.57-.09-15.77-.3-22.08.1-8.75.56-13.85 1.24-19.3 2.7-2.7.72-5.23 1.38-7.29 1.87l.92.73.95.74.02.02.01.01c1.07.98 2.84 2.37 4.69 4.87 2.2 2.12 4.47 4.5 6.57 6.3 1.24 1.04 2.63 2.3 4.12 3.61 1.49 1.32 3.08 2.72 4.71 4.09 2.31 1.93 4.17 3.68 6.83 5.7 1.16.89 3.11 2.25 5.24 3.75 2.11 1.48 4.38 3.1 6.14 4.44 2.6 2 4.54 4.79 10.26 4.87 12.9.18 15.32-.44 17.48-1.75.81-.5 1.72-.96 2.64-1.43q1.42-.7 2.85-1.5a19 19 0 0 0 5.25-4.1l.12-.17zm9.58 115.15c.34-3.64.32-9.29-.82-18.55-.65-5.26-1.24-7.08-1.57-8.28a19 19 0 0 0-1.43-3.56c-.55-1.1-1.23-2.31-1.8-3.52-1.6-3.38-4.54-8.43-6.53-10.67a72 72 0 0 0-4.62-4.66c-1.64-1.55-3.45-3.21-5.5-5.27-3.42-3.42-5.6-6.11-10.65-8.64a182 182 0 0 0-5.25-2.5q.7.64 1.31 1.35l.07.08.05.1a53 53 0 0 0 2.04 3.32v.02h.01a53 53 0 0 1 2.09 3.42c.57 1.06 1.45 2.5 2.17 3.99.74 1.52 1.4 3.24 1.6 5.03.19 1.62.57 3.15.97 4.77.4 1.6.8 3.29 1.01 5.11.66 5.9 1.45 11.13 2.15 15.07.48 2.65.87 5.32 1.24 7.77s.71 4.67 1.1 6.48c.33 1.45.86 2.95 1.4 4.74.53 1.75 1.05 3.7 1.26 5.9.13 1.42.54 3.1 1.07 5.03.52 1.9 1.17 4.04 1.72 6.2.89 3.43 1.28 6.43 2.62 10.27.42 1.23.75 2.78 1.04 4.32.3 1.57.55 3.13.85 4.5a10 10 0 0 0 1.03 3q.04 0 .09-.06a9 9 0 0 0 2.6-4.4c.72-2.45 1.71-5.44 2.6-8.16a84 84 0 0 0 1.99-6.64c.39-1.8.92-3.34 1.42-4.75.5-1.43.98-2.71 1.31-4.1.35-1.48 1.03-3.08 1.36-6.72m3.97-178.45c.07-1.3-.16-2.55-.5-3.82q-.27-.95-.59-1.92-.3-.97-.58-1.96a3.6 3.6 0 0 0-2.2-2.33c-.82-.32-1.77-.04-3.02.84s-2.4 2.08-3.67 3.2c-.93.8-1.64 1.82-2.36 3.05-.69 1.16-1.46 2.65-2.35 4.06-.7 1.1-1.03 2.6-1.3 4.66-.25 2-.44 4.58-.91 7.46-1.2 7.35-.76 12.04.3 15.24a25 25 0 0 1 2.89 2c1.03.81 2 1.6 3.03 2.28h.02l.01.02c.59.41 1.22 1 2.09 1.87q.18-.38.48-1.2.48-1.31 1.21-3.68c.98-3.16 2.3-7.72 3.99-13.88 2.11-7.7 3.17-10.96 3.45-15.9M610 422.72c1.97-10.25.3-16.62-1.65-22.63a14 14 0 0 0-2.41-4.34q-.75-.93-1.59-1.9l-.06-.06a55 55 0 0 1-1.78-2.15c-5.18-6.63-8.86-8.41-11.38-10.25a1 1 0 0 0-.28-.13h-.06l-.13.09a8.6 8.6 0 0 0-2.62 3.88q-.38 1.08-.71 2.18c-.23.72-.48 1.47-.83 2.16a25 25 0 0 0-1.74 5.52c-.49 2.22-.89 4.7-1.27 7.15-.73 4.7-1.3 8-1.3 18.34-.01 5.97 2.1 8.99 4.3 13.6 2.08 4.34 4.03 6.48 5.6 8.82 2.4 2.21 4.25 4.07 6.02 5.92.13.1.3.2.65.36l.78.34q.61-.8 1.85-2.96c.91-1.58 2.03-3.64 3.35-6.08 2.66-4.94 3.75-8.28 4.29-10.9.27-1.32.4-2.48.52-3.6.12-1.1.23-2.21.45-3.36m55.47 86.4q.01-.01-.1-.14-.33-.35-1.46-.86l-1.18-.51q-.64-.27-1.31-.58c-.88-.41-1.8-.9-2.59-1.55-.88-.73-1.7-1.58-2.48-2.44l-1.54-1.7a26 26 0 0 0-2.38-2.36 8.4 8.4 0 0 0-4.3-1.85c-2.38-.36-4.25.1-5.6.97a24 24 0 0 0-6 5.4l-.03.04-.74.85q-.7.83-1.57 1.51c-1.82 2-3.55 2.99-4.62 3.57-.24.21-.52.58-.85 1.56a1 1 0 0 1-.28.43c.61.34 1.63.8 3.32 1.43 2.4.89 6.01 2.08 11.4 3.72 6.71 2.05 13.1.29 15.85-.72a10.5 10.5 0 0 0 3.54-2.63 17 17 0 0 0 2.92-4.14" clip-rule="evenodd"/><path fill="#1f6f57" d="M357.54 548.37c-.2-.58-.36-1.08-.6-1.57-.23-.44-.43-.7-.86-.87-1.96-.24-4.3-.1-7.66 1.27-1.3.53-2.83 1.08-4.42 1.66a92 92 0 0 0-4.87 1.9c-.79.35-1.7.58-2.58.8q-1.35.31-2.62.7c-1.69.57-3 1.36-3.68 2.89-1.78 4.03-2.38 7.27-3.35 12.58l-.06.3c-1.36 7.38-2.17 12.23-2.96 15.48-.8 3.25-1.64 5.16-3.2 6.5-3.33 2.83-6.64 5.2-9.72 6.28-.87.31-2.12.47-3.36.58l-1.96.15-1.89.15q-1.31.12-2.07.28a33 33 0 0 0 6.41 4.53c1.27.66 2.62 1.28 3.94 1.89l.24.1c1.38.64 2.73 1.27 3.84 1.88q1.58.9 3.23 1.97a59 59 0 0 0 3.63 2.17c3.57 1.93 5.89 3.59 10.06 3.54 8.49-.1 13.84-1.42 17.4-5.33 1.54-1.69 2.98-3.1 4.17-5.4 1.18-2.26 2.12-5.44 2.43-10.58.47-7.84 1.07-22.35 1.31-30.27.28-9.24-.8-12.85-.8-13.58"/><path fill="#1f6f57" fill-rule="evenodd" d="M356.93 546.8c.25.5.42.99.61 1.57 0 .73 1.08 4.34.8 13.58-.24 7.92-.84 22.43-1.31 30.27-.31 5.13-1.25 8.31-2.43 10.59s-2.63 3.7-4.17 5.39c-3.56 3.9-8.91 5.23-17.4 5.33-4.17.05-6.49-1.61-10.06-3.54a59 59 0 0 1-3.63-2.17q-1.64-1.07-3.23-1.97a63 63 0 0 0-3.84-1.87l-.24-.11a96 96 0 0 1-3.94-1.89 33 33 0 0 1-6.4-4.53q.75-.15 2.06-.28l1.89-.14 1.96-.16a15 15 0 0 0 3.36-.58c3.08-1.09 6.4-3.45 9.72-6.28 1.56-1.34 2.4-3.25 3.2-6.5s1.6-8.1 2.96-15.47l.06-.31c.97-5.3 1.57-8.55 3.35-12.58.68-1.53 2-2.32 3.68-2.88q1.26-.4 2.62-.71a17 17 0 0 0 2.58-.8 92 92 0 0 1 4.87-1.9c1.59-.58 3.13-1.13 4.42-1.66 3.37-1.38 5.7-1.51 7.66-1.27.43.16.63.43.85.87" clip-rule="evenodd"/><path fill="#1f6f57" d="M342.42 494.73q.05-.99-.04-1.56c-.05-.4-.15-.54-.16-.56-.75-.82-2.13-1.23-4.44-1.51-2.18-.27-5.1-.43-8.22-1-6.96-1.26-11.15-1.06-14.18-.37-1.52.34-2.78.82-4 1.33-1.18.5-2.4 1.07-3.71 1.53-2.11.74-4.18 2.02-6.47 3.64q-1.54 1.1-3.2 2.35l-.37.28a165 165 0 0 1-4 2.9c-3.37 2.36-5.76 5.76-7.83 8.13-1 1.14-2.07 2.28-3.13 3.4v.01q-1.6 1.7-3.08 3.36c-3.1 3.55-7.97 9.19-11.06 13.03a18 18 0 0 0-2.54 4.36c-.58 1.35-1.12 2.77-2.04 4.06a28 28 0 0 0-2.41 4.39c-.8 1.66-1.65 3.52-2.8 5.5-2.2 3.74-4.17 6.72-6.25 9.66-1.47 2.07-2.7 4.07-4.11 6l-.62.81-.14.18-.2.1c-1.4.7-2.74 1.32-3.78 1.84q-.93.45-1.64.86c3.14-.02 8.1-.06 14.55-.17 11.96-.2 19.7-1.67 24.53-3.06 4.03-1.15 10.35-3.41 15.25-6.55a64 64 0 0 0 10.56-8.76c2.99-2.98 5.65-5.93 8.03-7.97 6.06-5.21 11.51-12.16 15.27-17.05a81 81 0 0 0 7.09-10.62c3.28-5.73 3.83-9.24 4.48-13.4l.01-.07c.32-2.04.58-3.76.65-5.07m118.78 141c.2-2.63-.1-5.56-2.26-12.37-1.75-5.52-4.79-10.23-6.27-12.42a47 47 0 0 0-2.56-3.34c-.9-1.1-1.84-2.24-2.69-3.4-1.93-2.68-4.8-5.69-7.18-8.39-2.1-2.4-3.83-4.95-5.68-7.4-2.14-2.8-3.65-5.18-5.72-7.1-2.62-2.44-5.4-4.86-8.16-7.32-2.44-2.17-6.52-4.67-11.03-6.7-2.34-1.05-4.9-1.76-7.4-2.51-2.43-.74-4.84-1.53-6.66-2.74-1.35-.9-2.49-1.76-3.6-2.35-1.08-.57-1.75-.64-2.21-.42l-.03.06q-.06.12-.04.23c.09.48.25.95.44 1.62.18.63.37 1.37.42 2.25.3 4.62.37 13.55 1.13 20.45.48 4.34.9 8.08 1.76 11.52.48 1.9 1.29 5.35 2.3 8.88 1.02 3.56 2.22 7.09 3.43 9.2 1.7 2.93 3.2 5.67 6.25 8.07 1.56 1.24 3 2.51 4.33 3.62a27 27 0 0 0 4 2.87c1.2.68 2.4 1.53 3.55 2.26 1.18.75 2.43 1.46 3.93 2 6.25 2.28 9.04 3.49 13.71 3.6 5.87.15 9.94.31 12.81.44 2.9.13 4.55.22 5.64.22a1 1 0 0 1 .76.35l.38-.05c.55-.08 1.01-.15 1.62-.2h.05c1.41-.05 2.6-.12 3.52-.32.77-.16 1.2-.38 1.45-.61m8.01 29.99-.4-.92q-.4-.74-.98-1.59l-.02-.02-.01-.03a327 327 0 0 1-5.1-9.06c-.68-1.27-1.26-2.48-1.96-3.6a10 10 0 0 0-2.36-2.74c-1.18-.87-2.09-1.66-3.17-2.4a8 8 0 0 0-3.07-1.36 49 49 0 0 0-6.97-.58c-2.48-.03-4.74.14-6.12.56-2.94.88-8 1.86-13.3 4.45a34 34 0 0 0-9.6 6.76c-3.25 3.36-5.56 5.37-7.44 8.81-.43.78-.94 1.54-1.44 2.26q-.77 1.08-1.44 2.1c-.86 1.34-1.36 2.48-1.33 3.58l.32.2q.66.3 2.1.57c1.9.33 4.63.45 7.9.15 2.52-.24 4.87-.57 7.1-.87s4.34-.56 6.3-.64a75 75 0 0 0 8.89-.87c2.32-.35 4.24-.71 5.74-.82 3.97-.29 9.64-.62 16.44-1.87 3.42-.63 7.75-1.35 10.13-1.58zm44.05-6.99c-.29-15.75-.85-19.45-1.58-22.9-.3-1.4-.38-3.03-.5-4.58a20 20 0 0 0-.79-4.62c-1.11-3.44-2.22-6.03-3.17-8.29a43 43 0 0 0-1.5-3.1l-.1-.2a46 46 0 0 1-1.79-3.76c-.95-2.33-1.76-4.6-2.5-6.56a39 39 0 0 0-2.05-4.8 89 89 0 0 1-4.48-9.9c-.55-1.43-1.4-3.3-2.43-5.6l-.04-.08c-1.02-2.26-2.2-4.9-3.44-7.84-1.24-2.95-2.4-5.88-3.56-8.43a50 50 0 0 0-3.99-6.82c-.8-1.14-1.53-2-2.06-2.42-.84 2.62-1.22 5.04-1.75 7.45q-.34 1.58-.76 3.41l-.05.22q-.45 1.95-.88 3.92a51 51 0 0 0-1.1 6.5c-.57 9.4-.3 23.51.28 27.86a76 76 0 0 0 5.76 19.85c4.44 9.9 6.36 14.47 8.48 17.7a66 66 0 0 0 5.31 6.94c1.73 2.03 3.46 4.02 5.2 6.58a67 67 0 0 0 4.13 5.4c1.24 1.48 2.4 2.79 3.35 4.03a1 1 0 0 1 .2.74l.3.01.77.14.5.08h.06l.12-.24.17-.45q.09-.26.22-.55l.02-.04.02-.05c1.52-2.74 3.72-4.94 3.63-9.6m30.43-43.98c.34-3.64.32-9.29-.82-18.55-.65-5.26-1.24-7.08-1.57-8.28a19 19 0 0 0-1.43-3.56c-.55-1.1-1.23-2.31-1.8-3.52-1.6-3.38-4.54-8.43-6.53-10.67a72 72 0 0 0-4.62-4.66c-1.64-1.55-3.45-3.21-5.5-5.27-3.42-3.42-5.6-6.11-10.65-8.64a182 182 0 0 0-5.25-2.5q.7.64 1.31 1.35l.07.08.05.1a53 53 0 0 0 2.04 3.32v.02h.01a53 53 0 0 1 2.09 3.42c.57 1.06 1.45 2.5 2.17 3.99.74 1.52 1.4 3.24 1.6 5.03.19 1.62.57 3.15.97 4.77.4 1.6.8 3.29 1.01 5.11.66 5.9 1.45 11.13 2.15 15.07.48 2.65.87 5.32 1.24 7.77s.71 4.67 1.1 6.48c.33 1.45.86 2.95 1.4 4.74.53 1.75 1.05 3.7 1.26 5.9.13 1.42.54 3.1 1.07 5.03.52 1.9 1.17 4.04 1.72 6.2.89 3.43 1.28 6.43 2.62 10.27.42 1.23.75 2.78 1.04 4.32.3 1.57.55 3.13.85 4.5a10 10 0 0 0 1.03 3q.04 0 .09-.06a9 9 0 0 0 2.6-4.4c.72-2.45 1.71-5.44 2.6-8.16a84 84 0 0 0 1.99-6.64c.39-1.8.92-3.34 1.42-4.75.5-1.43.98-2.71 1.31-4.1.35-1.48 1.03-3.08 1.36-6.72M534.1 499.6s-.02-.08-.14-.23c-.1-.13-.26-.25-.54-.48-.25-.2-.61-.48-.9-.87-1.54-2.1-3.49-4.36-4.64-7.5-.5-1.36-1.11-2.65-1.73-4.05a33 33 0 0 1-1.68-4.48c-.85-3.04-1.73-6.03-2.93-8.25a21 21 0 0 1-.87-1.92l-.03-.08q-.38-.92-.77-1.73c-.57-1.13-1.23-1.96-2.26-2.4l-.16-.07c-2.57-1.1-6.16-2.64-13.48-2.77-5.57-.09-15.77-.3-22.08.1-8.75.56-13.85 1.24-19.3 2.7-2.7.72-5.23 1.38-7.29 1.87l.92.73.95.74.02.02.01.01c1.07.98 2.84 2.37 4.69 4.87 2.2 2.12 4.47 4.5 6.57 6.3 1.24 1.04 2.63 2.3 4.12 3.61 1.49 1.32 3.08 2.72 4.71 4.09 2.31 1.93 4.17 3.68 6.83 5.7 1.16.89 3.11 2.25 5.24 3.75 2.11 1.48 4.38 3.1 6.14 4.44 2.6 2 4.54 4.79 10.26 4.87 12.9.18 15.32-.44 17.48-1.75.81-.5 1.72-.96 2.64-1.43q1.42-.7 2.85-1.5a19 19 0 0 0 5.25-4.1l.12-.17zm13.55-63.31c.07-1.3-.16-2.55-.5-3.82q-.27-.95-.59-1.92-.3-.97-.58-1.96a3.6 3.6 0 0 0-2.2-2.33c-.82-.32-1.77-.04-3.02.84s-2.4 2.08-3.67 3.2c-.93.8-1.64 1.82-2.36 3.05-.69 1.16-1.46 2.65-2.35 4.06-.7 1.1-1.03 2.6-1.3 4.66-.25 2-.44 4.58-.91 7.46-1.2 7.35-.76 12.04.3 15.24a25 25 0 0 1 2.89 2c1.03.81 2 1.6 3.03 2.28h.02l.01.02c.59.41 1.22 1 2.09 1.87q.18-.38.48-1.2.48-1.31 1.21-3.68c.98-3.16 2.3-7.72 3.99-13.88 2.11-7.7 3.17-10.96 3.45-15.9"/><path fill="#0f3257" d="M610 422.72c1.97-10.25.3-16.62-1.65-22.63a14 14 0 0 0-2.41-4.34q-.75-.93-1.59-1.9l-.06-.06a55 55 0 0 1-1.78-2.15c-5.18-6.63-8.86-8.41-11.38-10.25a1 1 0 0 0-.28-.13h-.06l-.13.09a8.6 8.6 0 0 0-2.62 3.88q-.38 1.08-.71 2.18c-.23.72-.48 1.47-.83 2.16a25 25 0 0 0-1.74 5.52c-.49 2.22-.89 4.7-1.27 7.15-.73 4.7-1.3 8-1.3 18.34-.01 5.97 2.1 8.99 4.3 13.6 2.08 4.34 4.03 6.48 5.6 8.82 2.4 2.21 4.25 4.07 6.02 5.92.13.1.3.2.65.36l.78.34q.61-.8 1.85-2.96c.91-1.58 2.03-3.64 3.35-6.08 2.66-4.94 3.75-8.28 4.29-10.9.27-1.32.4-2.48.52-3.6.12-1.1.23-2.21.45-3.36m37.28 54.21-1.6 1.52q-1.06 1-1.9 1.7c-.53.43-1.07.84-1.5 1.02a37 37 0 0 1-8.79 2.7c-.62.1-1.4.1-1.97-.43-.57-.56-.54-1.33-.45-1.83.1-.54.35-1.15.65-1.74q.46-.91 1.1-1.93c.84-1.33 1.86-2.77 2.74-4.04a29 29 0 0 0 1.93-3 27 27 0 0 0 1.48-4.26c.46-1.61.9-3.39 1.39-4.91.91-2.94.94-6.72.87-9.9-.74 1.85-1.5 4.08-1.89 5.15-1.1 3.08-3.12 5.34-5.5 8.45-1.9 2.49-3.29 5.1-5.07 8.76a18 18 0 0 1-6.16 6.98c-3.35 2.27-7.87 5.03-10.82 6.21-1.46.6-3.13.84-4.73 1.02-1.64.2-3.2.32-4.63.63-3.15.7-5.4.31-7.66-.23-2.24-.54-4.45-1.2-7.79-1.25a6.6 6.6 0 0 0-3.71 1.19q-.86.55-1.7 1.21c-.56.43-1.15.89-1.75 1.28-2.23 1.5-4.33 2.9-6.48 6.28a35 35 0 0 0-3.75 7.97c-.49 1.44-.79 3.65-1.02 6.37s-.39 5.77-.63 8.97c-.42 5.64-.3 9.26.05 11.8.35 2.5.92 3.97 1.48 5.36.88 2.22 3.02 4.06 5.36 5.66 1.19.8 2.83 1.19 4.75 1.38q1.41.13 2.9.18c.96.04 1.95.08 2.87.15 3.39.27 9 1.63 12.93 2.56 1.76.42 3.75.6 5.8.81 2.02.21 4.11.44 5.92 1 2.04.6 4.25 1.9 6.62 3.32q-.63-.76-1.13-1.3a532 532 0 0 0-10.33-10.8h-.01l-.29-.29-.27-.3a2 2 0 0 1-.27-.5c-.08-.25-.1-.6.1-.94.17-.3.42-.45.58-.53.32-.14.72-.21 1.1-.26 4.98-.6 8.23-.43 10.62.1 2.38.54 3.88 1.42 5.18 2.05 3.2 1.54 6.97 3.62 9.42 5.68 1.88 1.58 3.92 3.16 5.62 4.46q-.3-.8-.73-1.78c-1.23-2.95-2.98-6.89-3.75-9.6a51 51 0 0 0-4.42-10.31c-1.23-2.12-3.26-3.62-5.4-5.38a41 41 0 0 0-6.57-4.29c-1.07-.44-2.16-.8-3.27-1.18a4 4 0 0 1-1.68-.92 88 88 0 0 1-7.4.44c-3.1.03-6.23-.17-8.29-.95-5.33-2.01-8.51-4.36-10.44-5.41a1 1 0 0 1 .95-1.76c2.2 1.2 5.03 3.35 10.2 5.3 1.67.63 4.46.85 7.56.82a85 85 0 0 0 7.15-.42 1 1 0 0 1 .95-.1l.62-.07a12 12 0 0 0 6.31-3.03c1.87-1.68 3.3-3.82 4.8-6.09l.02-.02a42 42 0 0 1 3.94-4.6c1.61-1.72 3.33-3.5 4.69-5.09 1.97-2.3 4.59-5.25 7.13-8.35a118 118 0 0 0 7.97-10.69"/><path fill="#6ec288" d="M665.47 509.12q.01-.01-.1-.14-.33-.35-1.46-.86l-1.18-.51q-.64-.27-1.31-.58c-.88-.41-1.8-.9-2.59-1.55-.88-.73-1.7-1.58-2.48-2.44l-1.54-1.7a26 26 0 0 0-2.38-2.36 8.4 8.4 0 0 0-4.3-1.85c-2.38-.36-4.25.1-5.6.97a24 24 0 0 0-6 5.4l-.03.04-.74.85q-.7.83-1.57 1.51c-1.82 2-3.55 2.99-4.62 3.57-.24.21-.52.58-.85 1.56a1 1 0 0 1-.28.43c.61.34 1.63.8 3.32 1.43 2.4.89 6.01 2.08 11.4 3.72 6.71 2.05 13.1.29 15.85-.72a10.5 10.5 0 0 0 3.54-2.63 17 17 0 0 0 2.92-4.14m19.96-62.77c.24-4.24.3-9.2.1-13.29-.23-4.92-.71-8.1-1.25-10.33-.54-2.22-1.15-3.54-1.68-4.81q-.91-2.19-1.75-4.15l-.1-.24-1.44-3.41c-.91-2.19-2.39-4.23-3.8-6.66a18 18 0 0 0-5.95-5.84 35 35 0 0 0-8.76-3.84c-1.54-.38-3-.88-4.4-1.3a27 27 0 0 0-4.33-1.03c-1.72-.23-3.7-.6-5.52-.91-1.85-.33-3.53-.6-4.75-.68-2.16-.14-5.04-.42-8.08-.7-3.06-.3-6.3-.59-9.22-.75-2.94-.16-5.5-.19-7.23.03q-1.09.15-1.52.34l.27.16c.43.23 1.1.56 1.68 1.05 2.25 1.87 4.35 3.56 6.34 5.39a59 59 0 0 1 6.7 7.17 35 35 0 0 0 3.29 3.59c1.05 1.02 2.09 2.01 3 3.18a44 44 0 0 1 4.8 7.4l.05.1c1.86 3.64 4.12 8.07 4.85 12.81.93 6.17 1.8 15.89 2.17 21.45.37.1.67.4.73.8l.27 1.36c.08.42.16.83.21 1.36v.05c.05 1 .32 2.17.72 3.68.38 1.47.86 3.21 1.24 5.26.85 3.15 2 6.99 3.11 10.67s2.14 7.23 2.72 9.74c.27 1.18.52 2.5.77 3.8l.04.22c.26 1.38.51 2.72.8 3.86q.4 1.77.83 2.51l.03.06q.1-.09.22-.24.28-.37.69-1.01c.54-.84 1.25-2 2.29-3.32.92-1.2 1.8-2.47 2.66-3.72l.12-.17a50 50 0 0 1 2.6-3.56c.9-1.1 1.69-2.22 2.5-3.38a60 60 0 0 1 2.56-3.56c2.78-3.52 5-7.21 6.46-10.25 1.49-3.08 2.87-7.47 3.91-10.18q.3-.74.59-3.13c.18-1.54.34-3.47.46-5.58m-108.54-89.5c.48 3.06.66 9.11.37 12.44-.46 5.23-.43 9.19-1.23 13.7-.93 5.2-1.72 10.23-3.17 13.57-1.18 2.7-3.67 11.7-13.7 18.87-3.75 2.67-21.7 2-28.08 2 4.07-1.5 8.9-3.7 11.07-6 2.18-2.3 10.52-7.76 12.85-13.85s4.47-17.25 6.41-23.2c1.77-5.4 2.78-8.57 4.01-10.95.68-1.31 1.66-3.4 2.92-5.3 1.25-1.88 2.9-3.77 5.05-4.57.37-.13 1.29-.47 2.14.17q.57.46.87 1.2t.49 1.92"/><path fill="#6ec288" d="M556.78 364.76c.28-3.18.1-9.06-.36-11.96q-.17-1.03-.36-1.45-.14-.3-.2-.35-.05 0-.26.08c-1.53.57-2.9 2.01-4.08 3.8-1.19 1.78-2.08 3.7-2.81 5.12-1.14 2.19-2.1 5.15-3.89 10.65-1.96 6-3.64 11.58-4.1 14.97-.2 1.42-.62 2.88-1.06 4.24-.45 1.4-.9 2.68-1.22 3.88-.75 2.8-2.47 5.72-3.96 8.24a29 29 0 0 0-2.08 4.76c-.62 1.72-1.23 3.64-1.8 5.14-.63 1.68-.32 3.31-.32 3.31 1.92-1.15 5.98-3.36 9.88-6.14 9.47-6.76 11.09-14.68 12.37-17.64 1.33-3.07 2.09-7.79 3.04-13.12.78-4.42.73-8.07 1.21-13.53"/><path fill="#1f6f57" d="M421.91 544.08c0-.01-.01-.08-.14-.23-.1-.13-.25-.25-.54-.48-.25-.2-.6-.49-.9-.87-1.54-2.1-3.48-4.36-4.64-7.5-.5-1.37-1.1-2.65-1.72-4.05a33 33 0 0 1-1.69-4.48c-.85-3.04-1.72-6.04-2.92-8.26-.33-.61-.61-1.28-.87-1.9l-.04-.1q-.37-.9-.76-1.72c-.57-1.13-1.23-1.97-2.27-2.4l-.16-.08c-2.56-1.1-6.16-2.64-13.47-2.76-5.58-.1-15.78-.3-22.08.1-8.76.56-13.85 1.23-19.3 2.7-2.7.72-5.24 1.37-7.3 1.87q.55.44.93.72l.95.75.01.01.02.02c1.07.98 2.84 2.36 4.68 4.87 2.2 2.11 4.47 4.5 6.57 6.3 1.24 1.04 2.64 2.3 4.13 3.6a212 212 0 0 0 4.7 4.1c2.31 1.93 4.17 3.68 6.83 5.7 1.16.88 3.12 2.25 5.24 3.74s4.4 3.1 6.14 4.44c2.61 2 4.55 4.8 10.26 4.87 12.91.18 15.32-.43 17.48-1.74q1.24-.74 2.65-1.43 1.41-.7 2.85-1.5a19 19 0 0 0 5.25-4.1l.11-.17z"/><path fill="#1f6f57" fill-rule="evenodd" d="M517.73 395.23a8 8 0 0 0-1.56.04c-.4.06-.54.15-.56.17-.82.74-1.23 2.12-1.51 4.43-.27 2.18-.43 5.1-1 8.23-1.26 6.95-1.06 11.14-.37 14.17.34 1.52.82 2.78 1.33 4 .5 1.18 1.07 2.4 1.53 3.71.74 2.11 2.02 4.18 3.64 6.47q1.1 1.54 2.35 3.2l.28.38a165 165 0 0 1 2.9 4c2.36 3.36 5.76 5.76 8.13 7.82 1.14 1 2.28 2.07 3.4 3.13h.01q1.7 1.6 3.36 3.08c3.55 3.1 9.19 7.98 13.03 11.06a18 18 0 0 0 4.36 2.54c1.35.58 2.77 1.12 4.06 2.04 1.26.9 2.71 1.62 4.39 2.42 1.66.78 3.52 1.64 5.5 2.8a129 129 0 0 1 9.66 6.25c2.07 1.46 4.07 2.68 6 4.1l.81.63.18.13.1.2c.7 1.4 1.32 2.74 1.84 3.78q.45.94.86 1.64c-.02-3.14-.06-8.09-.17-14.55-.2-11.96-1.67-19.7-3.06-24.53-1.15-4.03-3.41-10.35-6.55-15.25a64 64 0 0 0-8.76-10.56c-2.98-2.98-5.93-5.65-7.97-8.02-5.21-6.07-12.16-11.52-17.05-15.28a81 81 0 0 0-10.62-7.09c-5.74-3.28-9.24-3.83-13.4-4.48l-.08-.01a56 56 0 0 0-5.06-.65m141-118.77c-2.63-.21-5.56.08-12.37 2.25-5.52 1.75-10.23 4.79-12.42 6.27a47 47 0 0 0-3.34 2.56c-1.1.9-2.24 1.84-3.4 2.69-2.68 1.93-5.69 4.8-8.39 7.18-2.4 2.1-4.95 3.83-7.4 5.69-2.8 2.13-5.18 3.64-7.1 5.71-2.44 2.62-4.86 5.4-7.32 8.16-2.17 2.44-4.67 6.52-6.7 11.04-1.05 2.33-1.76 4.9-2.51 7.38-.74 2.44-1.53 4.86-2.74 6.67-.9 1.35-1.76 2.49-2.35 3.6-.57 1.08-.64 1.75-.42 2.21l.06.03q.12.06.23.04c.48-.08.95-.24 1.62-.44.63-.18 1.37-.37 2.25-.42 4.62-.3 13.55-.37 20.45-1.13 4.34-.47 8.08-.9 11.52-1.76 1.9-.48 5.35-1.29 8.88-2.3 3.56-1.02 7.09-2.21 9.2-3.43 2.93-1.7 5.67-3.2 8.07-6.25 1.24-1.56 2.51-3 3.62-4.32a27 27 0 0 0 2.87-4c.68-1.2 1.53-2.4 2.26-3.56a20 20 0 0 0 2-3.93c2.28-6.25 3.49-9.03 3.6-13.71.15-5.87.31-9.93.44-12.81.13-2.9.22-4.55.22-5.64a1 1 0 0 1 .35-.76l-.05-.38c-.08-.55-.15-1.01-.2-1.62v-.05c-.05-1.41-.12-2.6-.32-3.52a3 3 0 0 0-.61-1.45m29.99-8.01-.92.4q-.73.4-1.59.98l-.02.02-.03.01a327 327 0 0 1-9.06 5.1c-1.27.68-2.48 1.26-3.6 1.96a10 10 0 0 0-2.74 2.36c-.87 1.18-1.66 2.09-2.4 3.17a8 8 0 0 0-1.36 3.07 49 49 0 0 0-.58 6.97c-.03 2.48.14 4.74.56 6.13.88 2.93 1.86 8 4.45 13.3a34 34 0 0 0 6.76 9.58c3.36 3.26 5.37 5.57 8.81 7.45.78.43 1.54.94 2.26 1.44q1.08.77 2.1 1.45c1.34.85 2.48 1.36 3.58 1.32l.2-.32q.3-.66.57-2.1c.33-1.9.45-4.63.15-7.9-.24-2.52-.57-4.87-.87-7.1s-.56-4.34-.64-6.3a75 75 0 0 0-.87-8.88c-.35-2.33-.71-4.25-.82-5.75-.29-3.97-.62-9.64-1.87-16.44a149 149 0 0 1-1.58-10.12zm-6.99-44.05c-15.75.29-19.45.85-22.9 1.58-1.4.3-3.03.38-4.58.5-1.6.14-3.16.32-4.62.79-3.44 1.11-6.03 2.22-8.29 3.17-1.02.42-2.01.94-3.1 1.5l-.2.1c-1.16.6-2.39 1.23-3.76 1.79-2.33.95-4.6 1.76-6.56 2.5a39 39 0 0 0-4.8 2.05 89 89 0 0 1-9.9 4.48c-1.43.55-3.3 1.4-5.6 2.43l-.08.04c-2.26 1.02-4.9 2.2-7.84 3.44-2.95 1.24-5.88 2.4-8.43 3.56a51 51 0 0 0-6.82 3.99c-1.14.8-2 1.53-2.42 2.07 2.62.84 5.04 1.22 7.45 1.74q1.58.34 3.41.76l.22.05q1.95.46 3.92.88c2.61.57 5 1.02 6.5 1.1 9.4.57 23.51.3 27.86-.28 6.2-.83 13.46-2.9 19.85-5.76 9.9-4.43 14.47-6.36 17.7-8.47a66 66 0 0 0 6.94-5.32c2.03-1.73 4.02-3.46 6.58-5.2a67 67 0 0 0 5.4-4.12c1.48-1.24 2.79-2.4 4.03-3.36a1 1 0 0 1 .74-.2l.01-.3.14-.77.08-.5v-.06l-.24-.11-.45-.18q-.26-.09-.55-.22l-.04-.01-.05-.03c-2.74-1.52-4.94-3.72-9.6-3.63M522.6 203.55q0-.02-.23.14c-.13.1-.25.26-.48.55-.2.25-.48.6-.87.89-2.1 1.55-4.36 3.49-7.5 4.64-1.36.5-2.65 1.11-4.05 1.73a33 33 0 0 1-4.48 1.68c-3.04.85-6.03 1.73-8.25 2.93-.62.33-1.29.61-1.92.87l-.08.03q-.92.38-1.73.77c-1.13.57-1.96 1.23-2.4 2.26l-.07.16c-1.1 2.57-2.64 6.17-2.77 13.48-.09 5.57-.3 15.77.1 22.08.56 8.76 1.24 13.85 2.7 19.3.72 2.7 1.38 5.23 1.87 7.3l.73-.93.74-.95.02-.02.01-.01c.98-1.07 2.37-2.84 4.87-4.69 2.12-2.2 4.5-4.46 6.3-6.57 1.04-1.23 2.3-2.63 3.61-4.12 1.32-1.49 2.72-3.08 4.09-4.71 1.93-2.3 3.68-4.17 5.7-6.83.89-1.15 2.25-3.1 3.75-5.24 1.48-2.11 3.1-4.38 4.44-6.14 2-2.6 4.79-4.54 4.87-10.26.18-12.9-.44-15.32-1.75-17.47q-.74-1.25-1.43-2.65-.7-1.42-1.5-2.85a19 19 0 0 0-4.1-5.25l-.17-.11zm115.15-9.58c-3.64-.34-9.29-.32-18.55.82-5.26.65-7.08 1.24-8.28 1.57-1.27.35-2.42.86-3.56 1.43-1.1.56-2.31 1.24-3.52 1.8-3.38 1.6-8.43 4.54-10.67 6.53a72 72 0 0 0-4.66 4.62c-1.55 1.64-3.21 3.45-5.27 5.5-3.42 3.42-6.11 5.6-8.64 10.65-.75 1.5-1.63 3.34-2.5 5.25q.64-.7 1.35-1.31l.08-.07.1-.05c1.08-.59 2.18-1.3 3.32-2.03l.02-.02a53 53 0 0 1 3.42-2.09c1.06-.57 2.5-1.44 3.99-2.17 1.52-.74 3.24-1.4 5.03-1.6 1.62-.19 3.15-.56 4.77-.97 1.6-.4 3.29-.8 5.11-1.01 5.9-.66 11.13-1.45 15.07-2.15 2.65-.48 5.32-.87 7.77-1.24s4.67-.71 6.48-1.1c1.45-.33 2.95-.86 4.74-1.4 1.75-.53 3.7-1.05 5.9-1.26 1.42-.13 3.1-.54 5.03-1.07 1.9-.52 4.04-1.17 6.2-1.72 3.43-.88 6.43-1.28 10.27-2.61 1.23-.43 2.78-.76 4.32-1.05 1.57-.3 3.13-.55 4.5-.85q2.12-.46 2.89-.94l.12-.1-.07-.08a9 9 0 0 0-4.4-2.6c-2.45-.72-5.44-1.71-8.16-2.6a84 84 0 0 0-6.64-1.99 36 36 0 0 1-4.75-1.42c-1.43-.5-2.71-.98-4.1-1.3-1.48-.36-3.08-1.03-6.72-1.37M459.29 190c-1.3-.07-2.55.16-3.82.51q-.95.27-1.92.58t-1.96.58a3.6 3.6 0 0 0-2.33 2.2c-.32.82-.04 1.77.84 3.02s2.08 2.4 3.2 3.68c.8.92 1.82 1.63 3.05 2.35 1.16.69 2.65 1.46 4.06 2.35 1.1.7 2.6 1.03 4.66 1.3 2 .25 4.58.44 7.46.91 7.35 1.2 12.04.76 15.24-.3a25 25 0 0 1 2-2.89c.81-1.03 1.6-2 2.28-3.03v-.02l.02-.01c.41-.59 1-1.22 1.87-2.08q-.38-.18-1.2-.48-1.31-.49-3.68-1.22c-3.16-.98-7.72-2.3-13.88-3.98-7.7-2.12-10.96-3.18-15.9-3.46m-13.56-62.36c-10.25-1.97-16.62-.3-22.63 1.65a14 14 0 0 0-4.34 2.41q-.93.75-1.9 1.59l-.06.06q-1 .87-2.15 1.79c-6.63 5.17-8.41 8.85-10.25 11.37q-.14.2-.13.28v.06l.09.13a8.6 8.6 0 0 0 3.88 2.62c.73.27 1.44.48 2.18.71.72.23 1.47.49 2.16.83 1.36.68 3.28 1.25 5.52 1.74 2.22.49 4.7.89 7.15 1.27 4.7.73 8 1.3 18.34 1.3 5.97.01 8.99-2.1 13.6-4.3 4.34-2.08 6.48-4.03 8.82-5.6 2.21-2.4 4.07-4.25 5.92-6.02.1-.13.2-.3.36-.65l.34-.78q-.8-.61-2.96-1.85c-1.58-.9-3.64-2.03-6.08-3.35-4.94-2.66-8.28-3.75-10.9-4.29a36 36 0 0 0-3.6-.52c-1.1-.12-2.21-.23-3.36-.45m86.4-55.47q-.01-.01-.14.1-.35.33-.86 1.46l-.51 1.18q-.27.64-.58 1.31c-.41.88-.9 1.81-1.55 2.59a25 25 0 0 1-2.44 2.48l-1.7 1.55q-1.28 1.14-2.36 2.37a8.4 8.4 0 0 0-1.85 4.3c-.36 2.38.1 4.25.97 5.6a24 24 0 0 0 5.4 6l.03.04q.45.36.86.73.83.7 1.51 1.57c2 1.82 2.99 3.55 3.57 4.62.21.24.58.52 1.56.85a1 1 0 0 1 .43.28c.34-.6.8-1.63 1.43-3.32.89-2.4 2.08-6.01 3.72-11.4 2.05-6.71.29-13.1-.72-15.85a10.5 10.5 0 0 0-2.63-3.54 17 17 0 0 0-4.14-2.92" clip-rule="evenodd"/><path fill="#1f6f57" d="M571.37 380.11c-.58.2-1.08.36-1.57.6-.44.23-.7.43-.87.86-.24 1.97-.1 4.3 1.27 7.66.53 1.3 1.08 2.83 1.66 4.42a98 98 0 0 0 1.9 4.87c.35.8.58 1.7.8 2.58q.31 1.35.7 2.63c.57 1.68 1.36 3 2.89 3.67 4.03 1.78 7.27 2.38 12.58 3.36l.3.05c7.38 1.36 12.23 2.17 15.48 2.97s5.16 1.63 6.5 3.2c2.83 3.32 5.2 6.63 6.28 9.71.31.87.47 2.13.58 3.37l.15 1.95.15 1.9q.12 1.3.28 2.06a33 33 0 0 0 4.53-6.41 97 97 0 0 0 1.89-3.94l.1-.24a63 63 0 0 1 1.88-3.84q.9-1.58 1.97-3.23c.7-1.1 1.44-2.28 2.17-3.63 1.93-3.57 3.59-5.88 3.54-10.06-.1-8.49-1.42-13.83-5.33-17.4-1.69-1.53-3.1-2.98-5.4-4.17-2.26-1.18-5.44-2.12-10.58-2.43-7.84-.47-22.35-1.07-30.27-1.3-9.24-.29-12.85.8-13.58.8"/><path fill="#1f6f57" fill-rule="evenodd" d="M569.8 380.72c.5-.25.99-.42 1.57-.6.73 0 4.34-1.09 13.58-.8 7.92.23 22.43.83 30.27 1.3 5.13.31 8.31 1.25 10.59 2.43s3.7 2.64 5.39 4.17c3.9 3.56 5.23 8.91 5.33 17.4.05 4.18-1.61 6.49-3.54 10.06a60 60 0 0 1-2.17 3.63q-1.07 1.64-1.97 3.23a63 63 0 0 0-1.87 3.84l-.11.24a97 97 0 0 1-1.89 3.94 33 33 0 0 1-4.53 6.4q-.15-.75-.28-2.06l-.14-1.89-.16-1.95a15 15 0 0 0-.58-3.37c-1.09-3.07-3.45-6.4-6.28-9.71-1.34-1.57-3.25-2.4-6.5-3.2s-8.1-1.61-15.47-2.97l-.31-.06c-5.3-.97-8.55-1.57-12.58-3.35-1.53-.67-2.32-2-2.88-3.67q-.4-1.28-.71-2.63c-.22-.88-.45-1.79-.8-2.58a98 98 0 0 1-1.9-4.87c-.58-1.59-1.13-3.13-1.66-4.42-1.38-3.37-1.51-5.7-1.27-7.66.16-.43.43-.63.87-.85" clip-rule="evenodd"/><path fill="#1f6f57" d="M517.73 395.23a8 8 0 0 0-1.56.04c-.4.06-.54.15-.56.17-.82.74-1.23 2.12-1.51 4.43-.27 2.18-.43 5.1-1 8.23-1.26 6.95-1.06 11.14-.37 14.17.34 1.52.82 2.78 1.33 4 .5 1.18 1.07 2.4 1.53 3.71.74 2.11 2.02 4.18 3.64 6.47q1.1 1.54 2.35 3.2l.28.38a165 165 0 0 1 2.9 4c2.36 3.36 5.76 5.76 8.13 7.82 1.14 1 2.28 2.07 3.4 3.13h.01q1.7 1.6 3.36 3.08c3.55 3.1 9.19 7.98 13.03 11.06a18 18 0 0 0 4.36 2.54c1.35.58 2.77 1.12 4.06 2.04 1.26.9 2.71 1.62 4.39 2.42 1.66.78 3.52 1.64 5.5 2.8a129 129 0 0 1 9.66 6.25c2.07 1.46 4.07 2.68 6 4.1l.81.63.18.13.1.2c.7 1.4 1.32 2.74 1.84 3.78q.45.94.86 1.64c-.02-3.14-.06-8.09-.17-14.55-.2-11.96-1.67-19.7-3.06-24.53-1.15-4.03-3.41-10.35-6.55-15.25a64 64 0 0 0-8.76-10.56c-2.98-2.98-5.93-5.65-7.97-8.02-5.21-6.07-12.16-11.52-17.05-15.28a81 81 0 0 0-10.62-7.09c-5.74-3.28-9.24-3.83-13.4-4.48l-.08-.01a56 56 0 0 0-5.06-.65m141-118.77c-2.63-.21-5.56.08-12.37 2.25-5.52 1.75-10.23 4.79-12.42 6.27a47 47 0 0 0-3.34 2.56c-1.1.9-2.24 1.84-3.4 2.69-2.68 1.93-5.69 4.8-8.39 7.18-2.4 2.1-4.95 3.83-7.4 5.69-2.8 2.13-5.18 3.64-7.1 5.71-2.44 2.62-4.86 5.4-7.32 8.16-2.17 2.44-4.67 6.52-6.7 11.04-1.05 2.33-1.76 4.9-2.51 7.38-.74 2.44-1.53 4.86-2.74 6.67-.9 1.35-1.76 2.49-2.35 3.6-.57 1.08-.64 1.75-.42 2.21l.06.03q.12.06.23.04c.48-.08.95-.24 1.62-.44.63-.18 1.37-.37 2.25-.42 4.62-.3 13.55-.37 20.45-1.13 4.34-.47 8.08-.9 11.52-1.76 1.9-.48 5.35-1.29 8.88-2.3 3.56-1.02 7.09-2.21 9.2-3.43 2.93-1.7 5.67-3.2 8.07-6.25 1.24-1.56 2.51-3 3.62-4.32a27 27 0 0 0 2.87-4c.68-1.2 1.53-2.4 2.26-3.56a20 20 0 0 0 2-3.93c2.28-6.25 3.49-9.03 3.6-13.71.15-5.87.31-9.93.44-12.81.13-2.9.22-4.55.22-5.64a1 1 0 0 1 .35-.76l-.05-.38c-.08-.55-.15-1.01-.2-1.62v-.05c-.05-1.41-.12-2.6-.32-3.52a3 3 0 0 0-.61-1.45m29.99-8.01-.92.4q-.73.4-1.59.98l-.02.02-.03.01a327 327 0 0 1-9.06 5.1c-1.27.68-2.48 1.26-3.6 1.96a10 10 0 0 0-2.74 2.36c-.87 1.18-1.66 2.09-2.4 3.17a8 8 0 0 0-1.36 3.07 49 49 0 0 0-.58 6.97c-.03 2.48.14 4.74.56 6.13.88 2.93 1.86 8 4.45 13.3a34 34 0 0 0 6.76 9.58c3.36 3.26 5.37 5.57 8.81 7.45.78.43 1.54.94 2.26 1.44q1.08.77 2.1 1.45c1.34.85 2.48 1.36 3.58 1.32l.2-.32q.3-.66.57-2.1c.33-1.9.45-4.63.15-7.9-.24-2.52-.57-4.87-.87-7.1s-.56-4.34-.64-6.3a75 75 0 0 0-.87-8.88c-.35-2.33-.71-4.25-.82-5.75-.29-3.97-.62-9.64-1.87-16.44a149 149 0 0 1-1.58-10.12zm-6.99-44.05c-15.75.29-19.45.85-22.9 1.58-1.4.3-3.03.38-4.58.5-1.6.14-3.16.32-4.62.79-3.44 1.11-6.03 2.22-8.29 3.17-1.02.42-2.01.94-3.1 1.5l-.2.1c-1.16.6-2.39 1.23-3.76 1.79-2.33.95-4.6 1.76-6.56 2.5a39 39 0 0 0-4.8 2.05 89 89 0 0 1-9.9 4.48c-1.43.55-3.3 1.4-5.6 2.43l-.08.04c-2.26 1.02-4.9 2.2-7.84 3.44-2.95 1.24-5.88 2.4-8.43 3.56a51 51 0 0 0-6.82 3.99c-1.14.8-2 1.53-2.42 2.07 2.62.84 5.04 1.22 7.45 1.74q1.58.34 3.41.76l.22.05q1.95.46 3.92.88c2.61.57 5 1.02 6.5 1.1 9.4.57 23.51.3 27.86-.28 6.2-.83 13.46-2.9 19.85-5.76 9.9-4.43 14.47-6.36 17.7-8.47a66 66 0 0 0 6.94-5.32c2.03-1.73 4.02-3.46 6.58-5.2a67 67 0 0 0 5.4-4.12c1.48-1.24 2.79-2.4 4.03-3.36a1 1 0 0 1 .74-.2l.01-.3.14-.77.08-.5v-.06l-.24-.11-.45-.18q-.26-.09-.55-.22l-.04-.01-.05-.03c-2.74-1.52-4.94-3.72-9.6-3.63m-43.98-30.43c-3.64-.34-9.29-.32-18.55.82-5.26.65-7.08 1.24-8.28 1.57-1.27.35-2.42.86-3.56 1.43-1.1.56-2.31 1.24-3.52 1.8-3.38 1.6-8.43 4.54-10.67 6.53a72 72 0 0 0-4.66 4.62c-1.55 1.64-3.21 3.45-5.27 5.5-3.42 3.42-6.11 5.6-8.64 10.65-.75 1.5-1.63 3.34-2.5 5.25q.64-.7 1.35-1.31l.08-.07.1-.05c1.08-.59 2.18-1.3 3.32-2.03l.02-.02a53 53 0 0 1 3.42-2.09c1.06-.57 2.5-1.44 3.99-2.17 1.52-.74 3.24-1.4 5.03-1.6 1.62-.19 3.15-.56 4.77-.97 1.6-.4 3.29-.8 5.11-1.01 5.9-.66 11.13-1.45 15.07-2.15 2.65-.48 5.32-.87 7.77-1.24s4.67-.71 6.48-1.1c1.45-.33 2.95-.86 4.74-1.4 1.75-.53 3.7-1.05 5.9-1.26 1.42-.13 3.1-.54 5.03-1.07 1.9-.52 4.04-1.17 6.2-1.72 3.43-.88 6.43-1.28 10.27-2.61 1.23-.43 2.78-.76 4.32-1.05 1.57-.3 3.13-.55 4.5-.85q2.12-.46 2.89-.94l.12-.1-.07-.08a9 9 0 0 0-4.4-2.6c-2.45-.72-5.44-1.71-8.16-2.6a84 84 0 0 0-6.64-1.99 36 36 0 0 1-4.75-1.42c-1.43-.5-2.71-.98-4.1-1.3-1.48-.36-3.08-1.03-6.72-1.37m-115.14 9.58q0-.02-.23.14c-.13.1-.25.26-.48.55-.2.25-.48.6-.87.89-2.1 1.55-4.36 3.49-7.5 4.64-1.36.5-2.65 1.11-4.05 1.73a33 33 0 0 1-4.48 1.68c-3.04.85-6.03 1.73-8.25 2.93-.62.33-1.29.61-1.92.87l-.08.03q-.92.38-1.73.77c-1.13.57-1.96 1.23-2.4 2.26l-.07.16c-1.1 2.57-2.64 6.17-2.77 13.48-.09 5.57-.3 15.77.1 22.08.56 8.76 1.24 13.85 2.7 19.3.72 2.7 1.38 5.23 1.87 7.3l.73-.93.74-.95.02-.02.01-.01c.98-1.07 2.37-2.84 4.87-4.69 2.12-2.2 4.5-4.46 6.3-6.57 1.04-1.23 2.3-2.63 3.61-4.12 1.32-1.49 2.72-3.08 4.09-4.71 1.93-2.3 3.68-4.17 5.7-6.83.89-1.15 2.25-3.1 3.75-5.24 1.48-2.11 3.1-4.38 4.44-6.14 2-2.6 4.79-4.54 4.87-10.26.18-12.9-.44-15.32-1.75-17.47q-.74-1.25-1.43-2.65-.7-1.42-1.5-2.85a19 19 0 0 0-4.1-5.25l-.17-.11zM459.29 190c-1.3-.07-2.55.16-3.82.51q-.95.27-1.92.58t-1.96.58a3.6 3.6 0 0 0-2.33 2.2c-.32.82-.04 1.77.84 3.02s2.08 2.4 3.2 3.68c.8.92 1.82 1.63 3.05 2.35 1.16.69 2.65 1.46 4.06 2.35 1.1.7 2.6 1.03 4.66 1.3 2 .25 4.58.44 7.46.91 7.35 1.2 12.04.76 15.24-.3a25 25 0 0 1 2-2.89c.81-1.03 1.6-2 2.28-3.03v-.02l.02-.01c.41-.59 1-1.22 1.87-2.08q-.38-.18-1.2-.48-1.31-.49-3.68-1.22c-3.16-.98-7.72-2.3-13.88-3.98-7.7-2.12-10.96-3.18-15.9-3.46"/><path fill="#0f3257" d="M445.72 127.65c-10.25-1.97-16.62-.3-22.63 1.65a14 14 0 0 0-4.34 2.41q-.93.75-1.9 1.59l-.06.06q-1 .87-2.15 1.79c-6.63 5.17-8.41 8.85-10.25 11.37q-.14.2-.13.28v.06l.09.13a8.6 8.6 0 0 0 3.88 2.62c.73.27 1.44.48 2.18.71.72.23 1.47.49 2.16.83 1.36.68 3.28 1.25 5.52 1.74 2.22.49 4.7.89 7.15 1.27 4.7.73 8 1.3 18.34 1.3 5.97.01 8.99-2.1 13.6-4.3 4.34-2.08 6.48-4.03 8.82-5.6 2.21-2.4 4.07-4.25 5.92-6.02.1-.13.2-.3.36-.65l.34-.78q-.8-.61-2.96-1.85c-1.58-.9-3.64-2.03-6.08-3.35-4.94-2.66-8.28-3.75-10.9-4.29a36 36 0 0 0-3.6-.52c-1.1-.12-2.21-.23-3.36-.45m54.21-37.27q.8.81 1.52 1.6 1 1.05 1.7 1.9c.43.52.84 1.06 1.02 1.5a37 37 0 0 1 2.7 8.78c.1.62.1 1.4-.43 1.97-.56.58-1.33.55-1.83.45a7 7 0 0 1-1.74-.65q-.91-.46-1.93-1.1c-1.33-.84-2.77-1.86-4.04-2.74a30 30 0 0 0-3-1.93 28 28 0 0 0-4.26-1.48c-1.61-.46-3.39-.9-4.91-1.38-2.94-.92-6.72-.95-9.9-.88 1.85.74 4.08 1.5 5.15 1.89 3.08 1.1 5.34 3.12 8.45 5.5 2.49 1.9 5.1 3.29 8.76 5.07a18 18 0 0 1 6.98 6.16c2.27 3.35 5.03 7.87 6.21 10.82a19 19 0 0 1 1.02 4.73c.2 1.64.32 3.2.63 4.63.7 3.16.31 5.4-.23 7.66-.54 2.24-1.2 4.45-1.25 7.79a6.6 6.6 0 0 0 1.19 3.72q.55.84 1.21 1.7c.43.55.89 1.14 1.28 1.74 1.5 2.23 2.9 4.33 6.28 6.48a35 35 0 0 0 7.97 3.75c1.44.49 3.65.79 6.37 1.02 2.72.24 5.77.4 8.97.63 5.64.42 9.26.3 11.8-.05 2.5-.35 3.97-.92 5.36-1.47 2.22-.88 4.06-3.03 5.66-5.37.8-1.19 1.19-2.83 1.38-4.75q.13-1.41.18-2.9.05-1.46.15-2.86c.27-3.4 1.63-9.02 2.56-12.94.42-1.76.6-3.75.81-5.8.21-2.02.44-4.11 1-5.92.6-2.04 1.9-4.25 3.32-6.62q-.76.63-1.3 1.13a532 532 0 0 0-10.8 10.33v.01l-.29.29q-.13.14-.3.27c-.1.08-.27.2-.5.27-.25.08-.6.1-.94-.1a1.3 1.3 0 0 1-.53-.58 4 4 0 0 1-.26-1.1c-.6-4.98-.43-8.23.1-10.62.54-2.38 1.42-3.88 2.05-5.18 1.54-3.2 3.62-6.97 5.68-9.42 1.58-1.88 3.16-3.92 4.46-5.62l-1.78.73c-2.95 1.23-6.89 2.98-9.6 3.75a51 51 0 0 0-10.31 4.42c-2.12 1.23-3.62 3.27-5.38 5.4a41 41 0 0 0-4.29 6.57c-.44 1.07-.8 2.16-1.18 3.27a4 4 0 0 1-.92 1.68c.22 2.23.41 4.87.44 7.4.03 3.11-.17 6.23-.95 8.29-2.01 5.34-4.36 8.52-5.41 10.44a1 1 0 1 1-1.76-.95c1.2-2.2 3.35-5.03 5.3-10.2.63-1.67.85-4.45.82-7.55a88 88 0 0 0-.42-7.16 1 1 0 0 1-.1-.95l-.07-.62a12 12 0 0 0-3.03-6.31c-1.68-1.87-3.82-3.29-6.09-4.8l-.02-.02a42 42 0 0 1-4.6-3.94c-1.72-1.61-3.5-3.33-5.09-4.69-2.3-1.97-5.25-4.59-8.35-7.13a118 118 0 0 0-10.69-7.96"/><path fill="#6ec288" d="M532.12 72.18q-.01-.01-.14.1-.35.33-.86 1.46l-.51 1.18q-.27.64-.58 1.31c-.41.88-.9 1.81-1.55 2.59a25 25 0 0 1-2.44 2.48l-1.7 1.55q-1.28 1.14-2.36 2.37a8.4 8.4 0 0 0-1.85 4.3c-.36 2.38.1 4.25.97 5.6a24 24 0 0 0 5.4 6l.03.04q.45.36.86.73.83.7 1.51 1.57c2 1.82 2.99 3.55 3.57 4.62.21.24.58.52 1.56.85a1 1 0 0 1 .43.28c.34-.6.8-1.63 1.43-3.32.89-2.4 2.08-6.01 3.72-11.4 2.05-6.71.29-13.1-.72-15.85a10.5 10.5 0 0 0-2.63-3.54 17 17 0 0 0-4.14-2.92m-62.77-19.96c-4.24-.23-9.2-.3-13.29-.1-4.92.23-8.1.71-10.33 1.26-2.22.54-3.54 1.14-4.81 1.67l-4.15 1.75-.24.1-3.41 1.44c-2.19.91-4.23 2.4-6.66 3.8a18 18 0 0 0-5.84 5.95 35 35 0 0 0-3.84 8.76c-.38 1.54-.88 3-1.3 4.4a27 27 0 0 0-1.03 4.33c-.23 1.72-.6 3.7-.91 5.52-.33 1.85-.6 3.53-.68 4.75-.14 2.16-.42 5.04-.7 8.08-.3 3.06-.59 6.3-.75 9.22-.16 2.94-.19 5.5.03 7.23q.15 1.09.34 1.52l.16-.27c.23-.43.56-1.1 1.05-1.68 1.87-2.25 3.56-4.35 5.39-6.34a59 59 0 0 1 7.17-6.7 35 35 0 0 0 3.59-3.29c1.02-1.04 2.01-2.09 3.18-3a44 44 0 0 1 7.4-4.8l.1-.05c3.64-1.86 8.07-4.12 12.81-4.84a301 301 0 0 1 21.45-2.18 1 1 0 0 1 .8-.73l1.36-.27c.42-.08.83-.16 1.36-.21h.05c1-.05 2.17-.32 3.68-.72 1.47-.38 3.21-.86 5.26-1.24 3.15-.85 6.99-2 10.67-3.1a181 181 0 0 1 9.74-2.73c1.18-.27 2.5-.52 3.8-.77l.22-.04c1.38-.26 2.72-.51 3.86-.79a11 11 0 0 0 2.51-.84l.06-.03-.24-.22q-.37-.28-1.01-.69c-.84-.54-2-1.25-3.32-2.28a76 76 0 0 0-3.72-2.67l-.17-.12a50 50 0 0 1-3.56-2.6c-1.1-.9-2.22-1.69-3.38-2.5-1.16-.79-2.36-1.6-3.56-2.56a57 57 0 0 0-10.25-6.46c-3.08-1.48-7.47-2.87-10.18-3.91q-.74-.3-3.13-.59a90 90 0 0 0-5.58-.46m-89.5 108.54c3.06-.47 9.11-.66 12.44-.37 5.23.46 9.19.43 13.7 1.23 5.2.93 10.23 1.73 13.57 3.17 2.7 1.18 11.7 3.68 18.87 13.71 2.67 3.74 2 21.68 2 28.07-1.5-4.07-3.7-8.89-6-11.07s-7.76-10.52-13.85-12.85-17.25-4.46-23.2-6.41c-5.4-1.77-8.57-2.78-10.95-4-1.31-.7-3.4-1.67-5.3-2.93-1.88-1.25-3.77-2.9-4.57-5.05-.13-.37-.47-1.29.17-2.14q.46-.56 1.2-.86.74-.31 1.92-.5"/><path fill="#6ec288" d="M387.76 180.87a65 65 0 0 0-11.96.36 7 7 0 0 0-1.45.37q-.3.13-.35.19 0 .06.08.26c.57 1.54 2.01 2.9 3.8 4.09 1.78 1.18 3.7 2.08 5.12 2.8 2.19 1.14 5.15 2.1 10.65 3.89 6 1.96 11.58 3.64 14.97 4.1 1.42.2 2.88.62 4.24 1.06 1.4.45 2.68.9 3.88 1.22 2.8.75 5.72 2.47 8.24 3.96 1.29.76 2.97 1.44 4.76 2.08 1.72.62 3.64 1.23 5.14 1.8 1.68.63 3.31.32 3.31.32-1.15-1.91-3.36-5.98-6.14-9.88-6.76-9.47-14.68-11.08-17.64-12.37-3.07-1.33-7.79-2.09-13.12-3.04-4.42-.78-8.07-.73-13.53-1.2"/><path fill="#1f6f57" d="M567.08 315.74c-.01 0-.08.01-.23.14-.13.1-.25.25-.48.54-.2.25-.49.6-.87.9-2.1 1.54-4.36 3.48-7.5 4.64-1.37.5-2.65 1.1-4.05 1.73a33 33 0 0 1-4.48 1.68c-3.04.85-6.04 1.72-8.26 2.92-.61.33-1.28.61-1.9.87l-.1.04q-.9.36-1.72.76c-1.13.58-1.97 1.24-2.4 2.27l-.08.16c-1.1 2.57-2.64 6.16-2.76 13.47-.1 5.58-.3 15.78.1 22.08.56 8.76 1.23 13.85 2.7 19.3a364 364 0 0 1 1.87 7.3q.44-.54.72-.92l.75-.95.01-.02.02-.02c.98-1.07 2.36-2.84 4.87-4.68 2.11-2.2 4.5-4.47 6.3-6.57 1.04-1.24 2.3-2.64 3.6-4.12a212 212 0 0 0 4.1-4.72c1.93-2.3 3.68-4.16 5.7-6.82.88-1.16 2.25-3.11 3.74-5.24 1.5-2.12 3.1-4.39 4.44-6.14 2-2.61 4.8-4.54 4.87-10.26.18-12.91-.43-15.32-1.74-17.48a41 41 0 0 1-1.43-2.65q-.7-1.4-1.5-2.85a19 19 0 0 0-4.1-5.25l-.17-.1z"/><path fill="#f4f1e6" fill-rule="evenodd" d="M546.5 199q.42 0 .7.3a149 149 0 0 1 14.11 16.6c12.06 16.54 20.33 34.83 25.68 54.03q13.74-5.55 27.4-11.4a202 202 0 0 0-23.35-39.88 206 206 0 0 0-12.79-15.47 1 1 0 0 1 .06-1.41 1 1 0 0 1 1.4.04c4.71 4.96 9.06 10 13.24 15.39a200 200 0 0 1 24.35 40.1l6.24-2.7q.37-.16.75-.03a1 1 0 0 1 .62 1.24q-.13.39-.48.58-3.01 1.68-6.04 3.31c16.26 36.6 22.32 77.83 19.65 117.7-2.7 39.32-12.4 78.46-29.17 114.17a1 1 0 0 1-.15 1.1l-.8.93a281 281 0 0 1-31.18 50.74q-1.46 1.94-2.96 3.89c-44.93 59.03-111.54 104.39-186.41 115.85-52.67 8.51-107.51.59-155.77-20.88a285 285 0 0 1-19.06-9.3q-.35-.2-.49-.59a1 1 0 0 1 .62-1.25q.39-.12.76.04a316 316 0 0 0 26.19 10.46q.13-.36.33-.68c.62-.96 1.38-2.44 2.03-3.76 4.57-9.57 8.06-19.91 11.29-30.28q1.53-4.98 2.92-10a186 186 0 0 1-14.45-8.97 209 209 0 0 1-17.37-13.09q-.31-.25-.37-.66a1 1 0 0 1 .87-1.1q.4-.06.73.19a222 222 0 0 0 17.92 11.84q6.78 4.08 13.82 7.59 3.05-11.4 5.59-22.96a166 166 0 0 1-16.94-9.25 180 180 0 0 1-18.6-13.14q-.32-.25-.38-.66a1 1 0 0 1 .84-1.11q.4-.05.74.18 9.24 6.53 19.07 11.84 7.95 4.35 16.2 7.82a711 711 0 0 0 2.64-13.02 1 1 0 0 1 1.14-.81 1 1 0 0 1 .83 1.12q-.32 2.32-.69 4.64-.71 4.54-1.48 9.07a194 194 0 0 0 50.85 12.66 566 566 0 0 0 7.84-57.59 1 1 0 0 1 2 .13 570 570 0 0 1-6.17 57.85 237 237 0 0 0 42.62.14c3.32-21.27 4.87-42.89 6.16-64.47.14-2.54.27-5.13.38-7.62a1 1 0 0 1 2 .07c-.07 2.51-.18 5.1-.28 7.66-1 21.41-2.25 42.8-5.25 64.08a277 277 0 0 0 42.97-7.67q4.2-1.1 8.36-2.3c4.38-22.7 7.54-45.74 10.66-68.57l1.05-8.34a1 1 0 0 1 1.1-.88 1 1 0 0 1 .89 1.1l-.84 8.37c-2.49 22.38-5.13 44.91-9.06 67.2a390 390 0 0 0 67.85-27.72c9.4-34.35 17.78-68.9 22.9-104.1 3.42-23.75 5.46-48.03 4.83-72.1a394 394 0 0 1-13.9 3.2q-.4.07-.75-.12a1 1 0 0 1-.37-1.33q.2-.34.57-.48l14.32-5.14c-.75-19.57-3.33-38.99-8.44-57.86a395 395 0 0 1-14.83 3.43q-.4.07-.75-.12a1 1 0 0 1-.37-1.33q.2-.34.57-.48l14.37-5.15a194 194 0 0 0-11.49-30.44 1 1 0 0 1 1.8-.88 191 191 0 0 1 12.22 30.4q15.74-5.7 31.41-11.5a200 200 0 0 0-18.3-35.61 433 433 0 0 0-26.5-35.7 1 1 0 0 1 1.52-1.3l2.8 3.24a435 435 0 0 1 24.7 32.05 203 203 0 0 1 19.53 35.93l3.5-1.3q17.66-6.56 35.15-13.6c-5.04-19.1-12.94-37.31-24.56-53.87a149 149 0 0 0-13.6-16.61 1 1 0 0 1 .03-1.41 1 1 0 0 1 .71-.28M312.48 618.87a1375 1375 0 0 1-10.53 38.45 300 300 0 0 0 41.2 2.47c-.2-.44-.22-.94-.07-1.4a1070 1070 0 0 0 10.48-34.62 223 223 0 0 1-41.08-4.9m93.36.28q-3.87.76-7.77 1.41a227 227 0 0 1-40.88 3.27 1061 1061 0 0 1-10.3 35.78l-.05.12a287 287 0 0 0 39.27-3.55q2.98-.46 5.95-1l.08-.23c1.22-2.45 2.35-4.99 3.4-7.49q1.77-4.2 3.5-8.46a330 330 0 0 0 6.8-19.85M259.8 599.8q-1.1 4.64-2.3 9.25c-2.83 10.63-5.85 21.16-10.25 31.5-.6 1.33-1.12 2.53-1.9 3.95a310 310 0 0 0 50.63 11.99l1.75-5.47c3.46-11.03 6.9-22.1 10.07-33.21-16.71-4-32.9-9.98-48-18m269.85-35.25a361 361 0 0 1-52.81 30.92l-4.2 13.71c-1.78 5.9-3.53 11.8-5.2 17.58a1 1 0 0 1-1.22.7 1 1 0 0 1-.7-1.23 1222 1222 0 0 1 8.18-29.3 303 303 0 0 1-63.46 21.31 322 322 0 0 1-7.5 22.27 71 71 0 0 1-4.11 8.49 54 54 0 0 1-3.73 5.66c40.78-7.73 79.13-25.18 113.03-49.34l-.03-.02a1 1 0 0 1-.23-1.39 215 215 0 0 0 11.16-18.3 702 702 0 0 0 10.82-21.06m-209.99 22.38a496 496 0 0 1-5.56 25.45 233 233 0 0 0 41.55 3.75 424 424 0 0 0 6.33-26.91l.17-.95c-14.2.85-28.46.46-42.49-1.34m96.36-7.82-4.62 1.24a255 255 0 0 1-46.13 7.7l-.28 1.72a425 425 0 0 1-5.8 26.34c12.6-.17 25.18-1.33 37.58-3.44q5.85-.98 11.63-2.2a463 463 0 0 0 7.62-31.36m-150.5-7.23a521 521 0 0 1-4.7 23.45 213 213 0 0 0 48.75 16.17 482 482 0 0 0 6.26-25.1 188 188 0 0 1-50.31-14.52m221.23-20.71A368 368 0 0 1 419.96 578a438 438 0 0 1-7.24 31.54 318 318 0 0 0 63.66-21.94q5.27-18.2 10.37-36.42m112.87-48.33q-2.7 2.93-5.5 5.86a437 437 0 0 1-59.72 52.46 671 671 0 0 1-13.52 25.61c-3.4 5.9-6.7 11.37-10.51 16.8a342 342 0 0 0 61.08-57.23q2.73-3.23 5.35-6.44a283 283 0 0 0 22.82-37.06m-45.03 4.63a443 443 0 0 1-63.8 41.58 3218 3218 0 0 1-11.06 36.96 391 391 0 0 0 55.15-32.3 668 668 0 0 0 19.7-46.24m68.02-63.52q-4.99 5.55-10.14 11a534 534 0 0 1-52.57 48.33 635 635 0 0 1-20.18 46.99A480 480 0 0 0 592 506.59a502 502 0 0 0 11.35-11.25 313 313 0 0 0 19.26-51.4m-50.25-.51c-17.25 9.44-35.25 17.92-54.83 21.9-1.94.33-4 .62-6.04.68-4.82 24.7-11.05 49.06-17.9 73.25a484 484 0 0 0 64.7-41.72 617 617 0 0 0 17.45-56.12zm60.2-50.28c-12.37 20.24-32.23 33.54-52.06 45.44a589 589 0 0 1-16.97 54.91 592 592 0 0 0 46.8-40.68 558 558 0 0 0 13.54-13.55 334 334 0 0 0 8.7-46.12m-41.33-53.88a523 523 0 0 1-30.86 12.62 404 404 0 0 1-39.6 12.44c.95 24.6-1 49.42-4.48 73.6a591 591 0 0 1-4.35 25.75c1.65-.29 3.34-.71 4.94-1.17 18.34-5.8 35.6-15.03 52.56-24.32l8.35-4.9a572 572 0 0 0 8.72-42.75c2.6-16.75 4.36-34 4.72-51.27m40.51-20.18-3.97 2.17a538 538 0 0 1-32.65 16.26 373 373 0 0 1-4.65 53.64 552 552 0 0 1-7.96 39.33c19.22-11.46 38.18-24.1 50.02-42.62q.4-.75.76-1.55.45-4.59.76-9.18a272 272 0 0 0-2.3-58.05m-46.56-42.87a523 523 0 0 1-34.31 14.17 404 404 0 0 1-39.6 12.44c5.4 18.65 8.29 37.88 9.3 57.27q18.91-6.85 37.7-13.84 16.59-6.16 33.02-12.75c.06-19.38-1.72-38.72-6.1-57.3m30.39-15a538 538 0 0 1-27.3 13.57c4.66 18.53 6.7 37.83 6.85 57.18a1558 1558 0 0 0 36.27-15.17 236 236 0 0 0-15.82-55.59" clip-rule="evenodd"/><path fill="#c9e8c6" d="M477.03 583.79s-7.7 11.82-4 18c2.74 4.57 6.94 8.15 12 6.5 5.52-1.8 6.34-8.36 5-14-1.5-6.35-13-10.5-13-10.5"/><path fill="#b5e6d6" d="M499.03 588c7.32-2.9 14.92 1 18.5 8 4.38 8.56-10 22.5-10 22.5s-14.43-4.3-16.5-12c-2.04-7.6.69-15.6 8-18.5m22.5-2.5s-9.5-8-13-8.5-10.28 1.23-7.86-6c2.43-7.23 20.3-10.55 24.5 0 3.17 7.96-3.64 14.5-3.64 14.5m-20-26c9.72 0 20.59-2.83 21.5-12.5.57-6-6.06-2.3-8-8-2.11-6.24-3.5-16.5-3.5-16.5s-20.05 37-10 37"/><path fill="#6ec288" d="M483.03 567.5c9.5 0 2.5-28.5 2.5-28.5-2.85-.8-31.5 13-22.5 20.5 3.45 2.88 7.32-1.64 11.5 0 4.25 1.67 3.95 8 8.5 8"/><path fill="#c9e8c6" d="M515.03 512c-7.35-6.3 8.91-15.2 18.5-16.5 2.33-.32 3.81-.83 6 0 2.2.83 4.5 4 4.5 4s-5.5 7.34-10.5 10c-6.43 3.42-12.96 7.24-18.5 2.5"/><path fill="#c9e8c6" d="M507.53 500c-2.9-9.94 8.85-15.26 18.5-19 8.38-3.24 23 0 23 0s-6.58 7.92-12 11.5c-9.91 6.55-26.16 18.9-29.5 7.5m-5-29.5s-10.05 3.13-12.5 8.5c-1.46 3.22-1.89 5.58-1 9 1.54 5.93 7.53 13.09 12.5 9.5 3-2.17 8.7-7.7 7.5-12.5s-6.5-14.5-6.5-14.5"/><path fill="#1f6f57" d="M591.53 517.5c-12.86 4.52 10.12-35 21.5-27.5 4.35 2.86 7.85 5.81 7.5 11-.35 5.38-4.67 7.6-9.5 10-3.9 1.94-6.89.52-11 2-3.53 1.27-4.95 3.25-8.5 4.5"/><path fill="#6ec288" d="M592.53 529c4.12 8.95 16.1-.87 24.5-6 9.74-5.94 28.8-19.31 18-23-3.7-1.26-6.22-1-10 0-7.47 1.97-6.78 11.23-14 14-4.04 1.55-6.98-.12-11 1.5-3.77 1.52-7.23 2.14-8.5 6-.92 2.8-.23 4.82 1 7.5"/><path fill="#1f6f57" d="M590.53 513c4.8-.7 7.52-3.57 9.5-8 3.26-7.28.41-17.94-7.5-19-5.64-.75-9.96 2.4-12.5 7.5-3.86 7.74 1.95 20.75 10.5 19.5"/><path fill="#c9e8c6" d="M601.03 547.5c6.5 2.34 14.65-1.65 15.5-8.5.71-5.7-3.04-10.2-8.5-12-5.22-1.72-10.5-.6-13.5 4-3.78 5.8-.01 14.16 6.5 16.5"/><path fill="#b5e6d6" d="M611.03 461.5c3.13-2.3 4.78-6.04 3-9.5-1.64-3.2-4.95-4.05-8.5-3.5-4.52.7-7.5 9-7.5 9s8.73 7.15 13 4"/><path fill="#1f6f57" d="M645.03 461.5c5.23-2.63 9.92 1.87 13.5 6.5 3.88 5 2.5 16 2.5 16s-16.24-.44-19-8c-1.98-5.43-2.16-11.9 3-14.5"/><path fill="#b5e6d6" d="M537.03 445c5.4 3.41 12.3-.72 15-6.5 2.46-5.24 2.18-11.91-3-14.5-4.86-2.43-9.83.58-13 5-3.64 5.09-4.29 12.65 1 16m-29.5 2.5c-3.96-.56-3.56-6.26-7.5-7-6.81-1.27-10.41 8.13-9.5 15 1.4 10.48 18.27 7.96 27 2 4.62-3.15 7.27-6.05 8.5-11.5 1.05-4.6 1.53-8.37-1.5-12-3.12-3.75-7.38-5.08-12-3.5-6.54 2.24 1.86 17.97-5 17"/><path fill="#c9e8c6" d="M507.53 429c-3.81 5.4-7.66 7.61-14 9.5-5.98 1.78-12.1 4.88-16 0-4.04-5.07-1.6-13.78 4.5-16 2.57-.94 4.36.7 7 0 5.9-1.58 14.23-7.6 10-12-4-4.16-7.98 7.69-13.5 6-8.39-2.57 10-12.45 8-21-.73-3.15-5.41-4.9-3.5-7.5.33-.44.57-.65 1-1 3.92-3.17 6.75 10.87 10.5 7.5 1.98-1.77.2-4.55 2-6.5 3.06-3.3 8.85-3.62 11.5 0 1.52 2.07 1.01 3.93 1 6.5-.01 5.37-4.5 13-4.5 13s-3.72-9.29-9-11c-6.18-2 7.68 7.64 9 14 1.51 7.24.28 12.47-4 18.5"/><path fill="#c9e8c6" d="M477.53 400.5c2.01 3.35 6.93 2.4 10 0 1.8-1.4 3.56-2.8 3-5-.55-2.2-2.74-2.72-5-3-4.38-.54-10.27 4.21-8 8m21.5-8c7.7.92 11.26-15 5.15-19.58a6 6 0 0 0-.65-.42l-.72-.38c-4.36-2.1-9.58-1.67-12.28 2.38-1.94 2.93-1.5 5.63-.5 9 1.42 4.76 4.07 8.4 9 9"/><path fill="#b5e6d6" d="M489.03 386s-10.24 3.74-14.5 0c-4.84-4.25-6.17-14.65 0-16.5 4.88-1.46 7.98 2.9 11 7 2.35 3.18 3.5 9.5 3.5 9.5m-5-38.37c6 3.62 3.24-7.9 7-7 3.92.93-1.47 10.62 2.5 10 3.37-.53 3.9-4.62 3.5-8-.46-3.98-3-7.58-7-7.5-3.2.06-6.5 1.8-6.5 5 0 3.37-.93 4.37.5 7.5m4.75 24.37c6.3-1.52 7.19-10.1 4.5-16-1.72-3.78-9.75-7-9.75-7s2 7.5-4 9c-6.16 1.54 3.07 15.5 9.25 14"/><path fill="#b5e6d6" d="M475.53 356.5c6.8 4.5 8.44-12.22 6-20-1.1-3.52-2.07-5.77-5-8-4.81-3.67-12.37-5.69-15.5-.5-3.49 5.8 9.53 5.92 12.5 12 2.86 5.83-3.41 12.93 2 16.5"/><path fill="#b5e6d6" d="M444.53 348c-5.43-.44-1.58-11.55 3.5-13.5 2.94-1.13 8.99 4 8 1-.7-2.16-3.8-1.07-5-3-1.66-2.67-1.83-6.62 1-8 2.18-1.06 5.44-.85 6 1.5 3 12.5 11 6.86 14.5 14s-2.5 11 1 16c1.6 2.27-4.2 3.68-7.5 4-4.26.4-6.83-3.17-10-4.5-3.87-1.63 4.77-5.86 4-10-.44-2.4-.88-4.27-3-5.5-1.7-.99-3.07-.85-5-.5-4.35.79-3.08 8.86-7.5 8.5"/><path fill="#b5e6d6" d="M447.9 359s11.66-7.15 10-13.5c-.44-1.69-.68-2.85-2-4-3.44-3.02-7.44 3.2-9 7.5-1.33 3.69 1 10 1 10m-2.87-28.78s-7.74 7.94-13.5 5c-4.43-2.26-3-6-3-6s.6-3.34 3.5-4c6.24-1.4 13 5 13 5m5-3.22s-2.38-3.45-3-6c-.64-2.66.81-4.39 0-7-.95-3.06-5-6.5-5-6.5s-8.43 3.27-9.5 8a9 9 0 0 0 0 4.5c1.47 7.21 17.5 7 17.5 7m-30.5 3.5c3.79 4.63 10.4-3.74 12-9.5.74-2.63 0-7 0-7s-10.57 2.14-12.5 7.5c-1.2 3.31-1.72 6.27.5 9"/><path fill="#b5e6d6" d="M430.03 312.5a8.4 8.4 0 0 1-8 5c-7.04.06 1-18 1-18s9.58 7.84 7 13m6-5c3.17.73 5.59-1.57 7-4.5 2.03-4.18-4.5-11-4.5-11s-7.77 4.96-7 9.5c.5 2.89 1.65 5.34 4.5 6m83.5 55c2.13-.35 15.73-11.99 8-16.5-1.88-1.1-2.82-2.67-5-2.5-1.45.11-2.4.83-3.13 1.86-.73 1.01-1.26 2.33-1.87 3.64-1.17 2.53-1.78 5.3-1.45 7.78.29 2.26 3.45 5.72 3.45 5.72"/><path fill="#6ec288" d="M519.88 369.5c2.47-2.85 5.4-4.6 9-3.5 3.18.96 4.7 3.27 5.5 6.5 1.7 6.78-14.5 10.5-14.5 10.5s-3.45-9.51 0-13.5"/><path fill="#1f6f57" d="M531.53 361c1.88-2.57 4.95-2.38 8-1.5 2.67.77 5.23 1.74 5.5 4.5.3 3.02-2.51 4.93-5.5 5.5-4.48.85-10.68-4.82-8-8.5m5.5 25c2.1 1.44 4.33-1.24 5.5-3.5 1.08-2.08 1.53-4.22 0-6-2.34-2.73-7.24 2.4-7 6 .1 1.48.27 2.66 1.5 3.5"/><path fill="#b5e6d6" d="M529.53 406c9.16 3.68 27.3-2.87 22.5-11.5-2.5-4.51-6.37-7.06-11.5-6.5-5.49.6-4.48 9.87-10 10-5.8.14-7.47-15.45-10.5-10.5-1.43 2.34-.96 4.3-.5 7 1.01 5.87 4.48 9.28 10 11.5"/><path fill="#c9e8c6" d="M527.03 409.27c-1 4.7-6.63 7.5-11 5.5-5.4-2.48 2.5-15 2.5-15s9.55 4.63 8.5 9.5"/><path fill="#1f6f57" d="M567.53 397.77c-2.4-3.6-7.57-4.16-11-1.5-2.2 1.71-3.25 3.72-3 6.5.36 3.86 7.5 6.5 7.5 6.5s9.36-7.2 6.5-11.5"/><path fill="#c9e8c6" d="M579.53 401.5c-3.9 4.82-1.3 13.81-7.5 14-2.47.08-4-.53-6-2-6.41-4.73 5.3-11.47 10.5-17.5 8.4-9.71 18.26-26.9 27.5-18 2.03 1.95 4 6 4 6s-8.85 3.02-14 6c-6.25 3.62-9.95 5.88-14.5 11.5"/><path fill="#c9e8c6" d="M595.25 392s-9.17 4.7-12.5 10c-3.01 4.79-7.22 9.56-3.72 14 3.44 4.36 9.32 2.6 14.22 0 4.98-2.64 7.77-6.37 8-12 .22-5.24-6-12-6-12"/><path fill="#b5e6d6" d="M560.53 392.5c3.3-1.98 4.83-5.24 4-9-1.2-5.43-9.02-7.79-13.5-4.5-2.18 1.6-3.24 3.3-3.5 6-.55 5.83 7.98 10.52 13 7.5"/><path fill="#c9e8c6" d="M566.03 376.5c-7 1.69-18-4-18-4 2.47-8.91 31-13.5 22-12.5s-23.5 0-23.5 0 6.27-10.5 13-13c9.29-3.44 15.57 2.23 24.5 6.5 8.46 4.04 18 4.75 19.5 14 .57 3.5-1 9-1 9-6.64-3.12-12-1-17-8 0 0 1.16 4.94.5 8-2.08 9.7-21 15-21 15s1.1-8.04 3.5-12.5c2.63-4.87 9.5-10.5 9.5-10.5s-6.52 6.68-12 8"/><path fill="#6ec288" d="M547.03 351.5c5.52.1-2.61-10.97 2-14 5.2-3.4 8.36 7.4 14.5 6.5 4.25-.62 6.84-2.14 9.5-5.5 7.2-9.09-9.84-24.16-21-21-5.98 1.7-8.87 5.37-11.5 11-3.05 6.55-4.6 12.93 0 18.5 1.97 2.38 3.42 4.45 6.5 4.5"/><path fill="#6ec288" d="M526.65 342.5c-2-1.96-2.4-4.35-1.5-7 1.2-3.56 4.98-5.82 8.5-4.5 3.1 1.16 4.6 4.24 4 7.5-.85 4.5-7.74 7.2-11 4"/><path fill="#c9e8c6" d="M529.03 309.5s3.38 9.26 2 12.5c-2.4 5.63-9.86 9.42-13.5 4.5a8 8 0 0 1-1.34-2.85 8 8 0 0 1 .19-4.23 13 13 0 0 1 1.65-3.42c3.1-4.66 11-6.5 11-6.5"/><path fill="#6ec288" d="M555.53 296.2c2.43 6.3-.35 14.61-7 15.8-2.12.38-3.54-1.42-5.5-.5-2.8 1.31-.03 5.64-2.5 7.5a6.3 6.3 0 0 1-6.5 1c-4.56-1.73-1.68-7.92 0-12.5 3.28-8.9 18.1-20.15 21.5-11.3"/><path fill="#6ec288" d="M560.03 315.5c-2.26-2.55-3.12-4.61-3.5-8-.63-5.73 1.23-10.26 6-13.5 5.95-4.04 18.29 2.2 18.29 2.2s-13.44 27.59-20.79 19.3"/><path fill="#b5e6d6" d="M588.03 294c6.5-.15 12.2-2.76 14-9 1.04-3.58 1.1-6.41-1-9.5-4.23-6.24-12.86.5-18.5 5.5-3.04 2.7-6.74 4.5-6 8.5.88 4.74 6.68 4.61 11.5 4.5m0-79s-6.55-4.97-11.5-5.5c-11.8-1.27-30.42 14.77-21 22 3.69 2.82 11.5 3 11.5 3s-.43 4.3 0 7c1.47 9.01 15.5 17.5 15.5 17.5s7.84-12.25 5.5-20c-1.56-5.2-6.79-5.59-7.21-11-.48-6.05 7.21-13 7.21-13"/><path fill="#c9e8c6" d="M553.53 247c2.77-7.95-14.42-6.06-21.5-1.5-4.1 2.65-7.97 5.14-7.5 10 .7 7.2 11.8 1.75 18.5-1 4.67-1.91 8.85-2.74 10.5-7.5"/><path fill="#c9e8c6" d="M555.53 268c.06-6.01-6.77-7.15-12.5-9-5.76-1.86-11.36-4.42-15.5 0-5.6 5.99 4.87 15.45 13 16.5 6.5.84 14.94-.95 15-7.5"/><path fill="#c9e8c6" d="M527.53 268a6.94 6.94 0 0 0-9.5 2 6.5 6.5 0 0 0-.5 7 6.97 6.97 0 0 0 9.5 3c4.14-2.2 4.46-9.48.5-12"/><path fill="#b5e6d6" d="M522.53 245.5c-3.81-6.86-13.37-6.2-20-2-8.16 5.18-11.82 19.59-3.5 24.5 6.7 3.96 13.85-.17 19-6 4.43-5 7.75-10.66 4.5-16.5m-27.44-15.58s4.94 2.08 1.94 1.58c.14.18-2.18-1.04-2.18-1.04s-7.28 10.1-3.32 13.04c3.04 2.26 7.8 1.39 9.5-2 1.24-2.47-2.56-4.73-1-7 1.59-2.3 5.27.69 7-1.5 2.68-3.37-3.08-10.27-7-8.5-2.7 1.22-4.94 5.42-4.94 5.42"/><path fill="#b5e6d6" d="M482.68 234c1.93 2.37 2.85 2.58 5.85 2 3.35-.65 6.32-5.54 6.32-5.54l.24-.54s-5.8-11.76-10.9-9.42c-4.83 2.21-4.86 9.39-1.5 13.5m1.49-24.5s15.33-2.98 16.5 3.5c.54 2.98.24 5.45-2 7.5-3.2 2.93-7.7 1.3-11-1.5-3.01-2.56-3.5-9.5-3.5-9.5m8.85-9c-.5-6 12.5-9 12.5-9s-.84 6-3 9c-2.02 2.82-7 5.5-7 5.5s-2.3-3.15-2.5-5.5m9.5-19s-6.08 1.47-8 4.5c-1.19 1.88-2.33 3.44-1.5 5.5 1.38 3.4 6.63-.85 8.5-4 1.22-2.04 1-6 1-6m4.5 10s4.61 0 7.5 2.5c2.18 1.89 3.5 6.5 3.5 6.5.02-5.32.99-7.98 4.5-12 .9-.24 3.5 8 3 11.5 3.5-1 12 4.5 12 4.5.37 3.59-25.34-.4-20 1.5 2.88 1.03 6.04.6 7 3.5.44 1.3-.47 2.22 0 3.5 1.37 3.71 6.76-6.35 9.5-3.5 2.5 2.6.35 6.27-2 9-3 3.49-8.45-.94-11.5 2.5-1.92 2.17.36 6.5-2.5 7-3.1.55-1.95-4.61-4-7-2.64-3.08-8.68-1.94-8.5-6 .12-2.65 1.6-4.35 4-5.5 3.86-1.85 11.28 8.59 10 4.5-.7-2.24-2.24-2.93-4-4.5-3.77-3.38-15.1-2.44-11.5-6 2.51-2.47 9-.5 9-.5-8-2-6-6-6-11.5"/><path fill="#c9e8c6" d="M548.53 188.5c-3.92.15-5.2 3.52-9 4.5-4.53 1.17-7.4-.93-12 0-8.55 1.74 13.97 7.42 22 4 3.35-1.42 8.14-1.92 7.5-5.5-.61-3.47-4.98-3.14-8.5-3"/><path fill="#b5e6d6" d="M567.03 191.5c-3.52-1.8-6.74-.72-10 1.5-5.82 3.97-7.66 14.57-1.5 18 5.42 3.02 12.14-.76 14.5-6.5 1.98-4.82 1.65-10.64-3-13"/><path fill="#c9e8c6" d="M555.53 187c8.5-14.5 15-9 19-13.5 5.93-6.67 21 9 21 9s-7.75 3.32-13 4.5c-10.28 2.31-20 5-27 0"/><path fill="#b5e6d6" d="M554.03 188a10.64 10.64 0 0 1 1.5-15.5c4.6-3.4 11-2.51 14.5 2-8-1-12 3.5-16 13.5m-60-15.5c-4.88-1.76.64 11.74-4.5 12.5-5.1.75-5.08-14.75-8-10.5-1.87 2.74-.46 5.32.5 8.5 1.42 4.67 2.83 11.43 7.5 10 3.43-1.05 3.46-4.57 4.5-8 1.43-4.67 4.6-10.85 0-12.5"/><path fill="#b5e6d6" d="M481.53 211.5c-1.3 3.24-8 4-8 4s-3.27-4.36-3-7.5c.29-3.24 4.87-3.77 4.5-7-.31-2.76-3.85-2.8-4.5-5.5-1.1-4.64 2.29-9.3 7-10 5.33-.8 6.8 5.34 9.5 10 1.98 3.42 5.7 6.21 3.5 9.5-1.98 2.96-7.41-1.7-9 1.5-.86 1.75.73 3.19 0 5"/><path fill="#b5e6d6" d="M470.53 199.5c-1.2 6.09-11.91-.86-14.5-6.5-2.65-5.78 5-15.5 5-15.5s4 4 4 14c5.5-4.5 2.5-10 4-14 4.5 1.5 5.48 1.24 7 4 2.55 4.6-6.87 6.24-7 11.5-.06 2.6 2 3.94 1.5 6.5m-31-15a5.83 5.83 0 0 0 5 7c4.19.41 4.59-9.74 4.59-9.74s-8.7-1.05-9.59 2.74m16.5-18s3.25-.23 5-1.5c1.76-1.27 4-5 4-5s4 2 2.5 7c-1.32 4.41-9.93 12.05-18.41 9.5-10.67-3.2.91-28.5.91-28.5 4.45 3.2 6.32 6.16 6 18.5"/><path fill="#1f6f57" d="M503.53 372.5q.35.2.65.42c4.58 1.88 12.6-.99 12.85-5.92.17-3.31-1.1-5.9-4-7.5-3.28-1.82-6.77-1.08-9.5 1.5-2.75 2.6-3.59 6.06-2 9.5q.46.98 1.28 1.62z"/><path fill="#b5e6d6" d="M519.4 345.36c-1.37-3.83-4.32-7.07-7.87-6.86a9.66 9.66 0 0 0-9 10.5c.57 5.88 8.17 9.92 13.55 7.78-.33-2.49.28-5.25 1.45-7.78.61-1.31 1.14-2.63 1.87-3.64"/><path fill="#c9e8c6" d="M516.19 323.65a8 8 0 0 1 .19-4.23 9 9 0 0 0-.85-1.92c-2.92-5-15.81 3.25-12.5 8 2.8 4 10.04 3.72 12.5-.5q.4-.67.66-1.35"/><path fill="#b5e6d6" d="M395.5 600.5c9.44-4.53 13.88-7.89 19-16.5 0 0-14.13-5.6-19 0-4.23 4.87 0 16.5 0 16.5"/><path fill="#c9e8c6" d="M414.5 584c-5.12 8.61-9.56 11.97-19 16.5 0 0 8.3.87 13.5 0 6.4-1.07 14.73.45 15.5-6 .67-5.62-10-10.5-10-10.5"/><path fill="#b5e6d6" d="M414.5 625.5s22.15-.24 30.5-9.5c5.4-5.98 9-14.14 6.5-17.5-2.98-4-12.16-1.9-19.5 2-10.53 5.59-17.5 25-17.5 25"/><path fill="#c9e8c6" d="M456.5 558.5s8.15-4.8 10-10c1.44-4.05 2.12-7.26 0-11-2.77-4.9-13.5-5-13.5-5-6.38 4.9-8.16 8.38-8 16 3.5 6 7 6.1 11.5 10m-11.5-10s-9.19-25.73-18-20a13.3 13.3 0 0 0-5 17c3.71 8.26 23 3 23 3"/><path fill="#b5e6d6" d="M453 532.5s12-1.5 12-8l-25-3c1 10 13 11 13 11"/><path fill="#c9e8c6" d="M456.5 520c-6.44-6.25-8.5-16-16.5-16s-14.68 8.5-11.5 12 7 3.35 11.5 5.5z"/><path fill="#b5e6d6" d="M411.5 511c-5.46 2.1-6.5 13.5-6.5 13.5s13.17 5.42 17 0c2.7-3.83 3.26-8.63 0-12-2.88-2.98-6.63-2.98-10.5-1.5m-16 32.5s16.2-2.24 16-9.5c-.13-4.5-6.5-9.5-6.5-9.5s-9.5-4.5-12 0 2.5 19 2.5 19M432 504c10-3 18-5.5 24.5-11.5 0 0-3.5-3.82-10-5.5s-12.5 2-12.5 2c-4.5 7.5-2 15-2 15"/><path fill="#b5e6d6" d="M432 504s-2.5-7.5 2-15c1.23-4.12 2.23-8.88 1-13-1.78-5.97-10.5-12-10.5-12s4.07 12 0 20c-1.95 3.83-6.73 7.2-7 11.5-.42 6.55 14.5 8.5 14.5 8.5m61 13s-19.16-8.83-25-1c-2.1 2.82-1.83 5.18-3 8.5 11.9 2.27 17.95.14 28-7.5"/><path fill="#c9e8c6" d="M351.05 514.54c-.32 3.6-1.55 6.96-1.55 6.96 0 7 4.88 7.62 8 12.5 0 0 6-5.03 6.5-9.5.74-6.52-4.05-16.27-10-13.5-1.34.63-2.29 2-2.95 3.54"/><path fill="#b5e6d6" d="M349.5 507.5c-2.27-2.54-8-3.5-8-3.5s4.02 5.16 5.5 8.5 2.5 9 2.5 9 .2-3.85 1.55-6.96c.22-2.6-.02-5.33-1.55-7.04"/><path fill="#c9e8c6" d="M341.5 504c-6-4.5-10.25-2-13.5 3.5l3.25 8.5c6.68 6.62 10.68 7.73 18.25 5.5 0 0-1.02-5.66-2.5-9s-5.5-8.5-5.5-8.5"/><path fill="#b5e6d6" d="M328 507.5s-10.72 2.52-12 8c-1.83 7.82 18.5 9 18.5 9l-3.25-8.5z"/><path fill="#c9e8c6" d="M335.5 528.5c3.66.2 6.7.8 8.5 4 1.54 2.72 1.09 5.07 0 8-2.93 7.9-21.56 0-21.56 0s6.14-12.36 13.06-12M347 565c-1.19-4.5-5.36-6.86-10-6.5-5.93.45-10.94 7-8.69 12.5 1.89 4.6 6.93 6.42 11.69 5 4.88-1.45 8.3-6.08 7-11m17-13.5s4.11 13.18-1.5 16c-2.97 1.49-5.59 1.6-8.5 0-3.44-1.89-4.89-5.09-4.5-9 .62-6.26 14.5-7 14.5-7m-1.5 30c8.5 8.5 10 0 15.5 13 0 0 4.65-12.27 0-17-4.26-4.34-15.5-1.5-15.5-1.5 1.14 2.5 1.6 3.84 0 5.5"/><path fill="#b5e6d6" d="M378 594.5c-5.5-13-7-4.5-15.5-13a13.75 13.75 0 0 0 4.5 19c2.59 1.58 4.7 3.18 7.5 2 3.14-1.32 3.5-8 3.5-8"/><path fill="#c9e8c6" d="M368.5 553c4.54 8.6 24.5-4.5 24.5-4.5s-15.07-17.66-22-11c-4.42 4.25-5.36 10.08-2.5 15.5"/><path fill="#b5e6d6" d="M325.38 597c8.12 0 11.35 6.1 18.62 10 0 0-2.83-18.45-10.5-17-4.12.78-6.75 3.04-8.12 7"/><path fill="#c9e8c6" d="M344 607c-7.27-3.9-10.5-10-18.62-10C313 599.5 313 616 313 616c12.38-8 20.5 3 31-9m-42.5-6.5c9.5-8 18-13.5 18-13.5s-13.46-5.68-21.5-3c-5.5 1.83-7 6-7 10.5 0 4.56 7.01 8.94 10.5 6m-27 18.5s10.3 8.2 10.5 15.5c.22 7.63-10.5 16.5-10.5 16.5s-8.57-11.88-7-20c1.03-5.33 7-12 7-12"/><path fill="#b5e6d6" d="M273.5 537.5s-10-13-25-13c-4.22 0-6.46 1.78-6.5 6-.06 5.39 6.1 14.18 9.5 10 6.5-8 22-3 22-3"/><path fill="#c9e8c6" d="M331 641.5c1.89 1.95 6 3.5 6 3.5s4.3-4.09 4.5-7.5c.36-6.33-13.5-9-13.5-9s-.63 9.26 3 13m14.5 15.5c-1.15-5.63-8.5-12-8.5-12-6.05.41-8 13.5-6 18s10.5 9.5 10.5 9.5 5.25-9.37 4-15.5"/><path fill="#b5e6d6" d="m318 491-2-4c-2.73-1.17-4-1-7-3.5-.5-1.5 0-2.5.37-5.5l-.37-7.5c-.5-4.5-4.5-4.5-4.5-4.5l-3 11-3.5-5s2.65-2.77 3.5-5c1.26-3.28 0-9 0-9s-6.73-3.7-9-1c-1.76 2.1 0 7 0 7l-9.5-12s5.08 1.12 8 0c4.01-1.54 7-8.5 7-8.5s-5.55-.66-9 0c-2.43.46-6 2-6 2s-4.09-6-2.5-9.5c2.5-5.5 7-26 7-26l-8.5 22s-1.63-4.05-4-6.5-7-6-7-6 8.75 9.1 9.5 16.5c.38 3.71-1 9.5-1 9.5s-1.23-4.6-3-7c-2.86-3.88-10.5-6.5-10.5-6.5s-1.67 7.87 1 11.5c2.23 3.02 8.5 4.5 8.5 4.5-6.11 2.43-6 6-7 10 4-1 9.03 1.2 12-2.5l10 11.5c-6.35.87-8.8 2.54-12.5 6.25 5.2 5.1 8.76 4.56 17.5 3.25l5 7.5c-9.36-.65-14.23 1.18-18.5 8.5 8.3 2.19 13.82 1.13 21.5-2.5l5 8z"/><path fill="#b5e6d6" d="M319.87 471c-6.87-5-9.4-2-10.5 7-.05.37 0 6.79 6.63 9 12 4 17.5-3 15.25-5.5s-2.94-2.75-2.94-2.75l-2.94-2.75-2.93-2.75z"/><path fill="#b5e6d6" d="M340 472c1.7-6.71-6.5-16.5-6.5-16.5l-4.06 10.25-4.06 10.25 2.93 2.75s4.6 1.86 7.19.75c3.14-1.34 3.66-4.19 4.5-7.5"/><path fill="#b5e6d6" d="m322.44 473.25 2.94 2.75 4.06-10.25s.41-3.23.06-5.25c-.82-4.71-7.06-10-7.06-10s-6.12 9.43-4.44 15.5c.89 3.2 4.44 7.25 4.44 7.25"/><path fill="#6ec288" d="M613.2 205s-45 6-76.5 42.5c-23.79 27.57-43.5 80-43.5 80s-4-43.5 23.5-83.5c35.93-52.25 86.5-50 86.5-50zm54 188s-6.72 2.13-10.5 4.5c-3.98 2.5-9 8-9 8-4.3-3.12-1.5-5-11-8-9.5 15-3.96 22.55-6.5 37 0 0 15.3 0 23-5 12.8-8.31 14-36.5 14-36.5m-25-17.5c5.2 4.54 11.24 5.4 17.5 2.5 11.23-5.2-6.5-31-6.5-31s-19.99 20.66-11 28.5m54.5-28.5s-33.6-5.02-32.5 8c.75 8.8 7.66 15.3 16.5 15.5 11.1.25 16-23.5 16-23.5"/><path fill="#6ec288" d="M665.2 316s15.24 10.4 13.5 19.5c-1.56 8.18-8.17 13.59-16.5 13.5-12.94-.14 3-33 3-33m7.5 1s11.75-.35 17 4c4.44 3.68 7 13 7 13s-10.87-.52-16-4.5c-4.58-3.55-8-12.5-8-12.5m-37-44.5s34 7.5 29.5 27.5c-1.85 8.23-7 11.5-7 11.5s-12.13 5.27-19.5 3c-15.71-4.85-3-42-3-42m54 35c-.08-5.86-3.4-10.28-9-12-7.61-2.34-16.5 12-16.5 12s25.65 9.96 25.5 0"/><path fill="#6ec288" d="M659.2 282c-3.1-11.5 30-5.5 30-5.5s-2.6 12.65-9 15.5c-8.3 3.7-18.64-1.23-21-10m.5-7.5s10.13-.75 16.5-2c5.35-1.05 13.5-3.5 13.5-3.5s-10.23-6.46-17-5c-6.38 1.37-13 10.5-13 10.5m-12-21s10.1-3.1 16.5-2c6.2 1.06 14.5 7 14.5 7s-10.33 4.73-17 3.5c-6.29-1.16-14-8.5-14-8.5m42-15s-14.4-6.07-22.5-2.5c-5.06 2.23-10.5 9.5-10.5 9.5s9.35 6.57 16 6c8.33-.71 17-13 17-13m-91-56.5s-8.94-9.4-16.5-10.5c-11.33-1.65-25.5 14.5-25.5 14.5s17.38 5.85 28 3c5.9-1.58 14-7 14-7m4.5-6.5s-7.59-.95-11-4c-6.84-6.12 0-23.5 0-23.5s14.39 4.74 16 12.5c1.26 6.04-5 15-5 15"/><path fill="#f5c97a" fill-rule="evenodd" d="M368.1 340.17c4.65-4.24 2.01-15.85-4-14-4.68 1.44-8.64 7.6-6.5 12 2.25 4.65 6.68 5.48 10.5 2" clip-rule="evenodd"/><path fill="#f4f1e6" d="M135.6 352.67s-27.43 15.1-25.5 30.5c4.5 36 18.22 17.77 25.5 32 11.5 22.5.52 19.5 7 37 3.65 9.85 10.5 16.93 16 15s16.5-19.5 22.5-30.5c6.24-11.45 10.5-22.28 16.2-31.5 0 0-2.7-21.43-12.2-29.5-6.15-5.22-19-8.11-19-8.11-22.1-.07-30.5-14.89-30.5-14.89"/><path fill="#f5c97a" d="M212.6 388.49q1.5-1.04 3.13-1.98c.6-12.41-.98-19.52-7.63-32.37-17.57 10.08-31.37 13.46-42 13.42 0 0 12.85 2.89 19 8.11 9.5 8.07 12.2 29.5 12.2 29.5 4-6.48 8.7-12.16 15.3-16.68"/><path fill="#f4f1e6" d="M218.1 347.76a110 110 0 0 1-10 6.38c6.65 12.85 8.23 19.96 7.63 32.37a54 54 0 0 1 6.87-3.34c1.6-.64 3.5-.56 5.78 0 6.38-17.09 4.05-24.81-10.28-35.41"/><path fill="#f5c97a" d="M218.1 347.76c14.33 10.6 16.66 18.32 10.28 35.41 2.59.63 5.65 1.87 9.26 3.34l2.96 1.19s2.5-16.53 2.5-25.53-5.1-31.5-5.1-31.5l-.45.42-.61.58c-5.7 5.37-11.5 10.85-18.84 16.09m71-48.12a301 301 0 0 0-20 8.53 91 91 0 0 0-12.5 7.02s-10.16 20.18-4 30.48c2.18 3.65 6.14 4.6 9.96 5.5 4.22 1.01 8.27 1.98 9.54 6.5.8 2.9-.34 5.2-1.48 7.53-1.14 2.3-2.27 4.6-1.52 7.47 2.77 10.6 16.14 15.28 26 10.5 8.77-4.25 7.37-13.69 5.91-23.5-.35-2.33-.7-4.69-.91-7-.46-4.9-2.26-8.5-4.04-12.06-1.92-3.84-3.81-7.62-3.96-12.94-.11-3.86 1.78-7.22 3.55-10.36 2.37-4.2 4.52-8.01 1.45-12.14-2.27-3.05-8-5.54-8-5.54m88 54.51s-31.4-7.28-27.5-19.97c.65-2.12 1.25-2.8 1.76-3.39 1.06-1.2 1.74-1.98 1.74-14.1 0-13.25-3.5-24.95-3.5-24.95a119 119 0 0 0-30.7 0s4.56 6.06 4.2 10.44c-.2 2.37-1.7 3.73-3.22 5.1-1.45 1.32-2.92 2.65-3.28 4.9-.75 4.66 3.07 6.69 7.13 8.84 3.66 1.94 7.51 3.99 8.37 8.16 1.5 7.32-4.5 18.59-4.5 18.59 14.33-3.31 26.33.4 36 3.39 5.16 1.6 9.66 2.99 13.5 2.99"/><path fill="#f4f1e6" d="M308.6 392.52s-15.08 4.73-19.5 12.65c-5.46 9.77-4.54 20.22 3 28.5 12.7 13.96 30.5-12.96 37.5-30.5 2.46-6.18 3.5-16.66 3.5-16.66a173 173 0 0 1-24.5 6.01m-39.5-84.35a301 301 0 0 1 20-8.54s-16.81-21.96-32.5-24.46c-9.33-1.48-16.32-2.49-24 3-5.73 4.1-6.27 9.03-10 15-10.92 17.48-33.74 28.84-24 47 3.2 5.97 12 12.5 12 12.5q4.01-2.41 7.5-4.91c7.34-5.24 13.14-10.72 18.84-16.1l.6-.57.46-.42c5.74-5.4 11.45-10.69 18.6-15.48a91 91 0 0 1 12.5-7.02m-36.5 105c14.76 4.48 35.09-18.13 35.09-18.13-11.18-1.36-20.06-4.55-27.1-7.34l-2.95-1.2c-3.61-1.46-6.67-2.7-9.26-3.33-2.28-.56-4.19-.64-5.78 0a54 54 0 0 0-10 5.32c1.06 12.36 8.12 21.08 20 24.68"/><path fill="#f4f1e6" fill-rule="evenodd" d="M289.1 395.17a284 284 0 0 0 19.5-2.65c9-1.57 16.95-3.53 24.5-6.01 14.7-4.83 27.82-11.63 44-21.34 12.53-7.52 31.5-24.11 39.13-36 0 0-8.63 11.05-16.63 13.5-8.46 2.59-17.06 4.47-22.5-2.5-2.56-3.27-1.61-6.62-.6-10.16.83-2.96 1.7-6.05.6-9.34-.83-2.46-2.49-4.06-4.08-5.6-1.95-1.9-3.81-3.7-3.92-6.9-.18-5.11 5.5-11.9 5.5-11.9a382 382 0 0 0-15.5-3.1 166 166 0 0 0-9.5-1.44s3.5 11.7 3.5 24.94c0 12.13-.68 12.9-1.74 14.11-.51.59-1.11 1.27-1.76 3.4-3.9 12.68 27.5 19.96 27.5 19.96-3.84 0-8.34-1.4-13.5-3-9.67-2.98-21.67-6.7-36-3.38 0 0 6-11.27 4.5-18.59-.86-4.18-4.71-6.22-8.37-8.16-4.06-2.15-7.88-4.18-7.13-8.84.36-2.25 1.83-3.58 3.28-4.9 1.52-1.37 3.02-2.73 3.22-5.1.36-4.38-4.2-10.44-4.2-10.44-9.98 1.35-19.59 4.04-29.8 7.9 0 0 5.73 2.5 8 5.54 3.07 4.13.92 7.94-1.45 12.14-1.77 3.14-3.66 6.5-3.55 10.36.15 5.32 2.04 9.1 3.96 12.94 1.78 3.56 3.58 7.15 4.04 12.06.21 2.31.56 4.67.91 7 1.46 9.81 2.86 19.25-5.91 23.5-9.86 4.78-23.23.1-26-10.5-.75-2.87.38-5.18 1.52-7.47 1.14-2.32 2.29-4.64 1.48-7.53-1.27-4.52-5.32-5.49-9.54-6.5-3.82-.9-7.78-1.85-9.96-5.5-6.16-10.3 4-30.48 4-30.48-7.15 4.8-12.86 10.07-18.6 15.48 0 0 5.1 22.5 5.1 31.5s-2.5 25.53-2.5 25.53c7.03 2.8 15.9 5.98 27.09 7.34 6.36.78 13.47.96 21.4.13m79-55c4.65-4.24 2.01-15.85-4-14-4.68 1.44-8.64 7.6-6.5 12 2.25 4.65 6.68 5.48 10.5 2" clip-rule="evenodd"/><path fill="#0a2540" d="M398.1 317.3a6.8 6.8 0 0 0-7 6.87 6.65 6.65 0 0 0 6 6.61c3.63.43 6.9-2 7.5-5.6a6.9 6.9 0 0 0-6.5-7.87"/><path fill="#f4f1e6" fill-rule="evenodd" d="M395.6 332.67c-4.09-.88-6.19-4.33-6.5-8.5-.4-5.38 3.62-10.98 9-10.5 5.02.45 8.08 5.5 7.5 10.5-.6 5.1-5 9.59-10 8.5m-4.5-8.5a6.8 6.8 0 0 1 7-6.86 6.9 6.9 0 0 1 6.5 7.86 6.74 6.74 0 0 1-7.5 5.61 6.65 6.65 0 0 1-6-6.6" clip-rule="evenodd"/><path fill="#f5c97a" fill-rule="evenodd" d="M419.6 320.67c0-11.7-22.79-19.43-45-24.4 0 0-5.68 6.79-5.5 11.9.1 3.2 1.97 5 3.92 6.9 1.6 1.54 3.25 3.14 4.08 5.6 1.1 3.29.23 6.38-.6 9.34-1.01 3.54-1.96 6.9.6 10.16 5.44 6.97 14.04 5.09 22.5 2.5 8-2.45 16.63-13.5 16.63-13.5 2.12-3.29 3.37-6.22 3.37-8.5m-30.5 3.5c.31 4.17 2.41 7.62 6.5 8.5 5 1.09 9.4-3.4 10-8.5.58-5-2.48-10.05-7.5-10.5-5.38-.48-9.4 5.12-9 10.5" clip-rule="evenodd"/><path fill="#0a2540" d="M209.26 567.5c.14-1.8-1.84-3.7-3.5-3-.71.3-1.17.84-1.4 1.5q-.22.7-.1 1.5c.22 1.5 1.5 2.8 3 2.5q1.01-.23 1.51-1 .42-.64.5-1.5"/><path fill="#f4f1e6" d="M207.26 570c-1.5.3-2.78-1-3-2.5a3 3 0 0 1 .1-1.5s-1.21 1.93-.6 3.5c.51 1.31 1.5 2.03 2.5 2 1.88-.06 2.51-2.5 2.51-2.5q-.51.77-1.5 1"/><path fill="#6ec288" fill-rule="evenodd" d="M189 541.17h.02zm-88.97 6.17-1.27.14q.6-.05 1.27-.14m88.97-6.17h.02z" clip-rule="evenodd"/><path fill="#5ec9bd" d="M95.76 547c-10-10.5-58.5-36-58.5-36s-22 16.5-4.5 26.5c8.16 4.66 7.7 18.83 7.27 31.7-.48 14.72-.9 27.73 11.73 22.8 12.2-4.76 18.9-12.88 24.13-19.21 3.56-4.3 6.43-7.78 9.87-8.79 5.23-1.54 8.01-1.68 13 .5-19.6-9.19-19.17-12.86 0-17.02-1.54.1-2.57-.03-3-.48"/><path fill="#b5e6d6" d="M98.76 564.5q2.3 1.01 4.5 2.57c6.21 4.33 15.27 10.8 23 17.41 1.34-8.2 3.84-11.6 12.12-14.98-4.52-4.56-7.62-9.5-7.62-9.5s13.38-3.16 22-2.5c7.42.57 18.5 4.5 18.5 4.5s-1.62 2.52-4.2 5.5c5.05 2.5 9.05 2.64 12.85 2.77 4.27.15 8.29.3 13.26 3.73-.12-3.46.45-6.74 1.97-9.5 0 0-17.77-20.88-39.88-20.88-19.6 0-48.84 3.03-55.23 3.72l-1.27.14c-19.17 4.16-19.6 7.83 0 17.02"/><path fill="#1f6f57" d="M169.26 537.5c-21.27-4.25-42.4 2.17-56.74 6.53-5.14 1.56-9.4 2.86-12.5 3.3 6.4-.68 35.65-3.7 55.24-3.7 22.1 0 39.88 20.87 39.88 20.87a13.6 13.6 0 0 1 5.62-5.5 7.4 7.4 0 0 1 3.5-.86s-5.86-1.61-7.5-4.64c-1.84-3.41 1-9.88 1-9.88q-3.12-1.01-6.5-1.87c-1.64-.4-2.12-.54-2.24-.58H189c.1.04 1.26.53-19.74-3.67"/><path fill="#2c8a5e" d="M191.26 541.76s-6.5-16.13-15-22.26c-11.06-7.98-21.26-8.8-34.5-5.5-19.96 4.97-45.82 28.95-47.89 27.88l4.9 5.6 1.26-.14c3.09-.45 7.35-1.75 12.5-3.3 14.33-4.37 35.46-10.8 56.73-6.54 21 4.2 19.85 3.71 19.74 3.67h.02c.12.04.6.17 2.24.59m33.82 27.43c2.22-2.72 4.7-5.75 3.18-8.19-2.22-3.56-13.67-11.95-30.5-17.38 0 0-2.84 6.47-1 9.88 1.64 3.03 7.5 4.64 7.5 4.64 8.67-.07 19.5 12.7 19.5 12.7q.62-.8 1.32-1.65"/><path fill="#6ec288" fill-rule="evenodd" d="M199.26 589.5s16.28-7.83 24.5-18.66c0 0-10.83-12.77-19.5-12.7a7.4 7.4 0 0 0-3.5.86 13.6 13.6 0 0 0-5.62 5.5c-1.52 2.76-2.09 6.04-1.97 9.5q.08 2.47.6 5c.89 4.54 5.5 10.5 5.5 10.5m6.5-25c1.66-.7 3.64 1.2 3.5 3q-.06.86-.49 1.5s-.63 2.44-2.5 2.5c-1 .03-2-.69-2.5-2-.62-1.57.6-3.5.6-3.5a2.4 2.4 0 0 1 1.4-1.5" clip-rule="evenodd"/><path fill="#6ec288" d="M152.76 601.5c10 1.17 28 1 37-4s9.5-8 9.5-8-4.6-5.96-5.5-10.5a31 31 0 0 1-.6-5c-4.96-3.43-8.98-3.58-13.25-3.73-3.8-.13-7.8-.27-12.84-2.77-3.56 4.12-8.92 9.1-14.3 9.5-5.13.37-10.33-3.4-14.39-7.5-8.28 3.38-10.78 6.78-12.12 14.98a132 132 0 0 1 4.5 4.02l2.4 2.28c5.9 5.66 10 9.6 19.6 10.72"/><path fill="#b5e6d6" d="M171.26 562s-11.08-3.93-18.5-4.5c-8.62-.66-22 2.5-22 2.5s3.1 4.94 7.63 9.5c4.05 4.1 9.25 7.87 14.37 7.5 5.39-.4 10.75-5.38 14.3-9.5 2.58-2.98 4.2-5.5 4.2-5.5"/><path fill="#5ec9bd" d="M103.26 567.07s-3.7-.46-6 0c-5.82 1.15-11.5 9.93-11.5 9.93s5.68 9.44 11.5 9.5c3.85.04 9-4 9-4s7.3 6.1 13 7c2.66.42 11.5-1 11.5-1a132 132 0 0 0-4.5-4.02c-7.73-6.61-16.79-13.08-23-17.41"/></svg>